<svg width="46" height="18" viewBox="0 0 46 18" fill="none" xmlns="http://www.w3.org/2000/svg">
<path d="M0.324951 18V0.545471H7.60336C8.91018 0.545471 10.0039 0.73013 10.8846 1.09945C11.771 1.46877 12.4357 1.98581 12.8789 2.65058C13.3278 3.31536 13.5522 4.08524 13.5522 4.96024C13.5522 5.62502 13.413 6.21877 13.1346 6.74149C12.8562 7.25854 12.4727 7.68752 11.984 8.02843C11.4954 8.36934 10.9301 8.60797 10.288 8.74434V8.91479C10.9926 8.94888 11.6431 9.13922 12.2397 9.48581C12.842 9.8324 13.325 10.3154 13.6886 10.9347C14.0522 11.5483 14.234 12.2756 14.234 13.1165C14.234 14.054 13.9954 14.8921 13.5181 15.6307C13.0409 16.3637 12.3505 16.9432 11.4471 17.3693C10.5437 17.7898 9.44711 18 8.15734 18H0.324951ZM4.5437 14.5994H7.15166C8.06643 14.5994 8.73972 14.4262 9.17154 14.0796C9.60904 13.733 9.82779 13.25 9.82779 12.6307C9.82779 12.1818 9.72268 11.7955 9.51245 11.4716C9.30222 11.1421 9.00393 10.8892 8.61757 10.7131C8.2312 10.5313 7.76813 10.4404 7.22836 10.4404H4.5437V14.5994ZM4.5437 7.72161H6.87893C7.33916 7.72161 7.74825 7.6449 8.1062 7.49149C8.46416 7.33809 8.74256 7.11649 8.94143 6.82672C9.14597 6.53695 9.24825 6.18752 9.24825 5.77843C9.24825 5.1932 9.04086 4.73297 8.62609 4.39774C8.21132 4.06252 7.65166 3.8949 6.94711 3.8949H4.5437V7.72161Z" fill="url(#paint0_linear_6_22096)"/>
<path d="M16.2625 18V0.545471H28.4329V3.97161H20.4812V7.55115H27.8107V10.9858H20.4812V14.5739H28.4329V18H16.2625Z" fill="url(#paint1_linear_6_22096)"/>
<path d="M30.5039 3.97161V0.545471H45.2568V3.97161H39.9642V18H35.8051V3.97161H30.5039Z" fill="url(#paint2_linear_6_22096)"/>
<defs>
<linearGradient id="paint0_linear_6_22096" x1="-53" y1="24" x2="88" y2="24" gradientUnits="userSpaceOnUse">
<stop stop-color="white"/>
<stop offset="1" stop-color="white" stop-opacity="0"/>
</linearGradient>
<linearGradient id="paint1_linear_6_22096" x1="-53" y1="24" x2="88" y2="24" gradientUnits="userSpaceOnUse">
<stop stop-color="white"/>
<stop offset="1" stop-color="white" stop-opacity="0"/>
</linearGradient>
<linearGradient id="paint2_linear_6_22096" x1="-53" y1="24" x2="88" y2="24" gradientUnits="userSpaceOnUse">
<stop stop-color="white"/>
<stop offset="1" stop-color="white" stop-opacity="0"/>
</linearGradient>
</defs>
</svg>
