<svg width="139" height="27" viewBox="0 0 139 27" fill="none" xmlns="http://www.w3.org/2000/svg">
<path d="M23.8396 3.63303H38.3366V6.98235H27.6164V11.873H34.7632V15.2223H27.6164V20.6761H38.6562V24.0254H23.8396V3.63303Z" fill="white"/>
<path d="M38.3364 9.53169H42.2004L45.5704 19.6389L48.679 9.53169H52.4267L47.2554 24.0257H43.7982L38.3364 9.53169Z" fill="white"/>
<path d="M52.543 16.8233C52.543 12.4069 55.5644 9.26506 59.8641 9.26506C64.1348 9.26506 67.1562 12.4069 67.1562 16.8233C67.1562 21.1804 64.0767 24.3222 59.777 24.3222C55.5063 24.3222 52.543 21.2396 52.543 16.8233ZM63.3504 16.9122V16.7936C63.3504 14.0371 62.014 12.3773 59.8641 12.3773C57.6561 12.3773 56.3488 14.0371 56.3488 16.7936V16.9122C56.3488 19.6094 57.6271 21.21 59.806 21.21C62.014 21.21 63.3504 19.6094 63.3504 16.9122Z" fill="white"/>
<path d="M73.3444 3.33723H69.5676V24.026H73.3444V3.33723Z" fill="white"/>
<path d="M76.1914 18.2162V9.53169H79.9391V18.0087C79.9391 19.9354 80.8397 21.0913 82.5248 21.0913C84.4713 21.0913 85.3138 19.4018 85.3138 16.9121V9.53169H89.0615V24.0257H85.3138V21.9805C84.5584 23.4922 83.2511 24.3221 81.4208 24.3221C78.167 24.3221 76.1914 21.9805 76.1914 18.2162Z" fill="white"/>
<path d="M93.1286 20.1731V12.5852H91.124V9.53229H93.1286V6.77576L96.7892 4.67132V9.50265H99.5782V12.5852H96.7601V19.7877C96.7601 20.4991 97.0797 20.7955 97.777 20.8251H99.4329V23.9966H96.5568C93.7968 23.8781 93.2158 22.6035 93.1286 20.1731Z" fill="white"/>
<path d="M101.99 3.69284H105.883V7.42749H101.99V3.69284ZM102.048 9.53193H105.825V24.0259H102.048V9.53193Z" fill="white"/>
<path d="M108.236 16.8233C108.236 12.4069 111.257 9.26506 115.557 9.26506C119.828 9.26506 122.849 12.4069 122.849 16.8233C122.849 21.1804 119.77 24.3222 115.47 24.3222C111.199 24.3222 108.236 21.2396 108.236 16.8233ZM119.043 16.9122V16.7936C119.043 14.0371 117.707 12.3773 115.557 12.3773C113.349 12.3773 112.042 14.0371 112.042 16.7936V16.9122C112.042 19.6094 113.32 21.21 115.499 21.21C117.678 21.21 119.043 19.6094 119.043 16.9122Z" fill="white"/>
<path d="M125.423 9.32751H129.171V11.6987C129.926 10.0092 131.32 9.03111 133.325 9.03111C136.434 9.03111 138.264 11.1652 138.264 15.137V23.8511H134.516V15.3444C134.516 13.3289 133.761 12.2619 132.018 12.2619C130.246 12.2619 129.142 13.7439 129.142 16.4411V23.8215H125.394L125.423 9.32751Z" fill="white"/>
<path d="M15.0656 5.50084C11.6375 0.936274 5.47841 -0.367889 0.336182 2.44792C2.34078 7.04212 3.85149 12.4366 13.7292 12.7627C14.8913 12.7923 16.1696 12.7627 17.5641 12.6441C17.3607 9.73937 16.4311 7.36816 15.0656 5.50084Z" fill="white"/>
<path d="M13.2353 14.9264C7.27964 15.2228 4.49064 17.4458 2.74751 20.1727C1.73068 21.7436 1.06249 23.522 0.336182 25.2115C7.54111 29.124 16.8378 25.004 17.5641 14.9857C15.9662 14.8671 14.5136 14.8375 13.2353 14.9264Z" fill="white"/>
</svg>
