<svg width="418" height="52" viewBox="0 0 418 52" fill="none" xmlns="http://www.w3.org/2000/svg">
<path d="M13.3454 42.2995L16.8623 39.7057C18.5396 38.4628 18.5396 36.4634 18.5396 36.4634V24.8455L12.3715 41.597C11.6682 43.5423 13.3454 42.2995 13.3454 42.2995Z" fill="#D2242B"/>
<path d="M16.8623 9.98466L13.3454 7.39087C13.3454 7.39087 11.6682 6.14802 12.3715 8.09336L18.4855 24.8449V13.2269C18.4855 13.2269 18.4855 11.2275 16.8623 9.98466Z" fill="#D2242B"/>
<path d="M0.414093 19.8732L3.11937 23.2235C4.4179 24.8446 6.47391 24.8446 6.47391 24.8446C6.47391 24.8446 4.3638 24.8446 3.11937 26.4658L0.414093 29.8161C0.414093 29.8161 -0.88444 31.4372 1.11746 30.7347L18.4853 24.8446L1.11746 18.9546C-0.830334 18.2521 0.414093 19.8732 0.414093 19.8732Z" fill="#D2242B"/>
<path d="M114.902 31.1669C114.902 31.6532 114.848 32.0315 114.685 32.3557C114.361 32.9501 113.765 33.3284 112.954 33.3284C112.088 33.3284 111.493 33.0042 111.222 32.3557C111.06 32.0315 111.006 31.6532 111.006 31.2209V25.9253H109.437V31.275C109.437 31.9234 109.545 32.5178 109.762 32.9501C110.303 34.0849 111.385 34.6253 112.954 34.6253C114.523 34.6253 115.659 34.0849 116.146 33.0042C116.363 32.5719 116.471 31.9775 116.471 31.329V25.9253H114.902V31.1669Z" fill="#808285"/>
<path d="M103.972 25.8726L100.672 34.4645H102.295L103.107 32.303H106.137L106.948 34.4645H108.625L105.217 25.8726H103.972ZM103.539 31.0601L104.189 29.385C104.405 28.7365 104.567 28.3583 104.622 28.034C104.676 28.3042 104.838 28.6825 105.054 29.3309L105.65 31.0061H103.539V31.0601Z" fill="#808285"/>
<path d="M138.654 25.8726C136.111 25.8726 134.325 27.6558 134.325 30.2496C134.325 32.8434 136.111 34.6266 138.654 34.6266C141.143 34.6266 142.982 32.8974 142.982 30.2496C142.928 27.6558 141.197 25.8726 138.654 25.8726ZM138.654 33.2756C137.085 33.2756 136.002 32.1409 136.002 30.1955C136.002 28.2502 137.085 27.1154 138.654 27.1154C140.277 27.1154 141.305 28.3042 141.305 30.1955C141.305 32.1409 140.223 33.2756 138.654 33.2756Z" fill="#808285"/>
<path d="M153.696 25.9253H152.126V34.4632H153.696V25.9253Z" fill="#808285"/>
<path d="M154.832 27.2762H157.32V34.4632H158.889V27.2762H161.162L161.595 25.9253H154.832V27.2762Z" fill="#808285"/>
<path d="M148.393 30.5725C149.367 30.2483 150.07 29.4917 150.07 28.357C150.07 27.4924 149.691 26.6818 148.826 26.2495C148.393 26.0334 147.798 25.9253 146.986 25.9253H144.66V34.4632H146.229V31.1129H146.986C147.203 31.1669 147.527 31.4911 147.906 32.3017L149.15 34.4632H150.936L149.529 31.9775C148.988 31.2209 148.663 30.7346 148.393 30.5725ZM147.852 29.6539C147.581 29.816 147.311 29.87 146.878 29.87H146.175V27.2222H146.878C147.365 27.2222 147.635 27.3303 147.852 27.4924C148.231 27.7085 148.447 28.1408 148.447 28.5731C148.447 29.0594 148.177 29.4377 147.852 29.6539Z" fill="#808285"/>
<path d="M165.977 29.7079H165.923L163.921 25.9253H162.244L165.166 31.0588V34.4632H166.735V31.1129L169.656 25.9253H167.925L165.977 29.7079Z" fill="#808285"/>
<path d="M131.079 29.4377H127.021V25.9253H125.452V34.4632H127.021V30.7886H131.079V34.4632H132.648V25.9253H131.079V29.4377Z" fill="#808285"/>
<path d="M117.607 27.2762H120.096V34.4632H121.665V27.2762H123.937L124.37 25.9253H117.607V27.2762Z" fill="#808285"/>
<path d="M126.101 23.3865H127.616V16.1455H129.889L130.321 14.8486H123.612V16.1455H126.101V23.3865Z" fill="#808285"/>
<path d="M124.099 22.0356H121.07V14.8486H119.5V23.3865H124.099V22.0356Z" fill="#808285"/>
<path d="M160.404 18.5232C160.404 18.1989 160.404 17.7666 160.404 17.4424C160.567 17.7666 160.783 18.0368 161 18.307L162.839 21.0089H163.542L165.22 18.4151C165.382 18.1989 165.707 17.7126 165.815 17.4424C165.815 17.7666 165.815 18.1989 165.815 18.5772V23.3865H167.384V14.8486H165.977L163.921 18.0368C163.597 18.4691 163.38 18.8474 163.218 19.1716C163.001 18.8474 162.785 18.5232 162.514 18.0909L160.296 14.8486H158.889V23.3865H160.458V18.5232H160.404Z" fill="#808285"/>
<path d="M179.233 19.3878C179.233 19.8741 179.233 20.3604 179.233 20.8468C178.963 20.4685 178.638 20.0362 178.259 19.5499L174.688 14.9027H173.173V23.4405H174.742V18.5772C174.742 18.0909 174.742 17.6045 174.742 17.2803C175.013 17.6586 175.338 18.0909 175.716 18.5772L179.395 23.4405H180.802V14.8486H179.233V19.3878V19.3878Z" fill="#808285"/>
<path d="M145.579 23.4939C146.77 23.4939 147.906 23.1697 148.663 22.7914V19.225H147.094V21.9269C146.77 22.089 146.229 22.197 145.688 22.197C143.848 22.197 142.766 21.0082 142.766 19.171C142.766 17.3337 143.848 16.0908 145.904 16.0908C146.824 16.0908 147.581 16.307 148.285 16.6852V15.2262C147.635 15.0101 146.824 14.7939 145.796 14.7939C142.982 14.7939 141.089 16.6852 141.089 19.279C141.143 21.7107 142.766 23.4939 145.579 23.4939Z" fill="#808285"/>
<path d="M188.485 19.225V21.9269C188.16 22.089 187.619 22.197 187.078 22.197C185.238 22.197 184.156 21.0082 184.156 19.171C184.156 17.3337 185.238 16.0908 187.294 16.0908C188.214 16.0908 188.972 16.307 189.675 16.6852V15.2262C189.026 15.0101 188.214 14.7939 187.186 14.7939C184.373 14.7939 182.479 16.6852 182.479 19.279C182.479 21.7107 184.156 23.548 186.916 23.548C188.106 23.548 189.242 23.2237 190 22.8455V19.279H188.485V19.225Z" fill="#808285"/>
<path d="M131.187 23.3859L131.999 21.2244H135.029L135.84 23.3859H137.517L134.109 14.7939H132.864L129.564 23.3859H131.187ZM133.081 18.2523C133.297 17.6039 133.46 17.2256 133.514 16.9014C133.568 17.1716 133.73 17.5498 133.947 18.1983L134.542 19.8734H132.432L133.081 18.2523Z" fill="#808285"/>
<path d="M114.956 14.7939H113.711L110.411 23.3859H112.034L112.845 21.2244H115.875L116.687 23.3859H118.364L114.956 14.7939ZM113.278 19.9815L113.873 18.3064C114.09 17.6579 114.252 17.2797 114.306 16.9554C114.36 17.2256 114.523 17.6039 114.739 18.2523L115.334 19.9275H113.278V19.9815Z" fill="#808285"/>
<path d="M171.117 14.8486H169.548V23.3865H171.117V14.8486Z" fill="#808285"/>
<path d="M155.21 21.2244L156.022 23.3859H157.699L154.29 14.7939H153.046L149.746 23.3859H151.369L152.18 21.2244H155.21ZM153.208 18.2523C153.425 17.6039 153.587 17.2256 153.641 16.9014C153.695 17.1716 153.858 17.5498 154.074 18.1983L154.669 19.8734H152.613L153.208 18.2523Z" fill="#808285"/>
<path d="M105.758 17.9821C105.433 18.4144 105.217 18.7927 105.054 19.1169C104.838 18.7927 104.622 18.4685 104.351 18.0362L102.133 14.7939H100.672V23.3318H102.241V18.4685C102.241 18.1442 102.241 17.712 102.241 17.3877C102.403 17.712 102.62 17.9821 102.836 18.2523L104.676 20.9542H105.379L107.056 18.3604C107.219 18.1442 107.543 17.6579 107.651 17.3877C107.651 17.712 107.651 18.1442 107.651 18.5225V23.3318H109.221V14.848H107.814L105.758 17.9821Z" fill="#808285"/>
<path d="M46.7287 14.7939C44.7268 14.7939 42.2921 15.6585 39.9655 17.4958C38.9375 15.7666 37.152 14.7939 34.7173 14.7939C32.3908 14.7939 30.1724 15.8747 28.3869 17.2256L27.7918 15.2803H22.5977V34.5175H28.7657V21.3324C29.8478 20.5219 31.3086 20.0896 32.499 20.0896C34.7714 20.0896 35.0419 21.7107 35.0419 23.602V34.5715H41.1559V21.7647V21.3324C42.238 20.5219 43.6447 20.0896 44.835 20.0896C47.1075 20.0896 47.378 21.6567 47.378 23.4939V34.5175H53.546V21.9269C53.546 16.5231 50.2456 14.7939 46.7287 14.7939Z" fill="#808285"/>
<path d="M93.9628 22.143C93.9628 17.4418 91.5281 14.7939 85.5765 14.7939C82.5465 14.7939 79.8954 15.5505 77.6229 16.6852L79.5166 20.5759C80.9234 19.8194 82.763 19.3871 84.3861 19.3871C86.4421 19.3871 87.7948 20.1436 87.7948 21.9269V22.143L84.7649 22.2511C82.8171 22.3591 81.0316 22.6834 79.6789 23.4399C77.677 24.5206 76.4326 26.0877 76.4326 28.6815C76.4326 32.4101 79.192 35.0038 82.9794 35.0038C85.36 35.0038 87.0373 34.0852 88.3358 32.9504L89.2015 34.5715H94.2333C93.9087 33.4908 93.9087 31.9778 93.9087 30.7889V22.143H93.9628ZM87.7948 29.5461C87.3619 29.8163 86.3339 30.2486 84.9813 30.2486C83.5204 30.2486 82.6007 29.6001 82.6007 28.2492C82.6007 27.4386 82.8712 26.9523 83.4663 26.574C84.0074 26.2498 84.7649 26.0877 85.7388 26.0337L87.7948 25.9796V29.5461Z" fill="#808285"/>
<path d="M74.8093 18.1981L75.9456 13.9832C75.6209 13.9292 74.9717 13.9292 74.5388 13.9292C71.7794 13.9292 70.4809 14.6317 69.3988 15.6584C69.2365 15.8205 69.1283 15.9286 68.9118 15.7665C68.1003 15.2801 66.6935 14.8478 64.8539 14.8478C58.9023 14.8478 56.5217 18.7385 56.5217 22.0888C56.5217 24.6286 57.6579 26.9522 59.9303 28.141C58.3613 29.0056 57.3874 30.3565 57.3874 31.7074C57.3874 32.6801 57.8202 33.5987 58.6318 34.0851C56.9004 34.6795 55.2231 36.3006 55.2231 38.5161C55.2231 41.7583 58.4695 44.244 64.5834 44.244C71.9418 44.244 75.4045 41.1099 75.4045 37.6515C75.4045 30.4646 62.7438 33.5987 62.7438 30.3025C62.7438 30.0863 62.7438 29.8702 62.9061 29.4379C63.5013 29.6 64.3129 29.708 65.1245 29.708C70.0481 29.708 73.5108 26.8981 73.5108 22.4671C73.5108 20.9 73.0239 19.387 72.1041 18.1981C72.4287 18.0901 73.0239 18.036 73.2403 18.036C73.6731 17.982 74.2683 18.036 74.8093 18.1981ZM69.5611 38.3C69.5611 39.4888 67.6133 40.0291 65.4491 40.0291C62.4192 40.0291 60.6337 38.9484 60.6337 37.3273C60.6337 36.4627 61.0665 35.8683 61.4453 35.5441C63.3931 36.5708 69.5611 36.0304 69.5611 38.3ZM65.0162 25.1689C63.1767 25.1689 62.311 23.7099 62.311 22.2509C62.311 20.1975 63.5013 19.2789 64.9621 19.2789C66.8558 19.2789 67.7756 20.846 67.7756 22.305C67.7215 24.1963 66.5312 25.1689 65.0162 25.1689Z" fill="#808285"/>
<path d="M291.262 32.5617V20.6372H289.405L286.607 22.0577L286.548 22.0871L286.951 23.9453L289.024 22.8567V32.5617H291.262Z" fill="#808285"/>
<path d="M293.5 29.4371C293.5 31.0378 294.782 32.7599 297.595 32.7599C300.067 32.7599 301.794 31.2822 301.794 29.1658C301.794 27.8233 301.033 26.7374 299.701 26.168C300.768 25.5795 301.377 24.6097 301.377 23.49C301.377 22.0201 300.242 20.4385 297.751 20.4385C295.519 20.4385 293.899 21.8286 293.899 23.7431C293.899 24.8619 294.489 25.791 295.563 26.3708C294.213 27.0251 293.5 28.0833 293.5 29.4371ZM297.647 22.1484C298.773 22.1484 299.174 22.9977 299.174 23.7249C299.174 24.4971 298.656 25.154 297.855 25.4062C296.693 25.0682 296.103 24.478 296.103 23.6529C296.102 22.9041 296.58 22.1484 297.647 22.1484ZM297.439 27.2314C298.792 27.624 299.451 28.3156 299.451 29.3469C299.451 30.328 298.716 31.0135 297.664 31.0135C297.133 31.0135 296.675 30.8315 296.342 30.4866C296.014 30.1469 295.842 29.6858 295.86 29.1849C295.86 28.2567 296.449 27.5278 297.439 27.2314Z" fill="#808285"/>
<path d="M302.59 33.2664H304.246L308.5 20.1L308.536 19.9873H306.862L302.626 33.1537L302.59 33.2664Z" fill="#808285"/>
<path d="M317.235 30.6256H312.655L313.515 29.8482C315.715 27.7534 316.989 26.1458 316.989 24.1308C316.989 22.4382 315.98 20.4622 313.139 20.4622C311.809 20.4622 310.507 20.9137 309.565 21.7006L309.517 21.7405L310.216 23.4886L310.307 23.4166C311.136 22.7684 311.918 22.4538 312.698 22.4538C313.94 22.4538 314.652 23.1445 314.652 24.3483C314.635 25.8407 313.474 27.1927 310.704 29.8508L309.35 31.1412L309.323 31.1664V32.6536H317.235V30.6256V30.6256Z" fill="#808285"/>
<path d="M321.052 30.917C320.101 30.917 319.124 30.6119 318.578 30.3095L318.48 30.2557L317.996 32.1191L318.053 32.152C318.642 32.4917 319.761 32.8549 321.139 32.8549C323.86 32.8549 325.834 31.0981 325.834 28.6767C325.834 27.342 325.289 26.2509 324.302 25.6052C323.581 25.1025 322.576 24.8261 321.474 24.8261C321.203 24.8261 320.989 24.8382 320.767 24.8659L321.073 22.6906H325.482V20.6626H319.392L318.644 26.7033L318.63 26.8133L318.74 26.7995C319.201 26.7423 319.667 26.6911 320.295 26.6911C322.355 26.6911 323.445 27.4408 323.445 28.8587C323.445 30.2731 322.204 30.917 321.052 30.917Z" fill="#808285"/>
<path d="M329.4 26C329.4 38.9029 318.903 49.4 306 49.4C293.097 49.4 282.6 38.9029 282.6 26C282.6 13.0971 293.097 2.6 306 2.6V0C291.653 0 280 11.6532 280 26C280 40.3468 291.653 52 306 52C320.347 52 332 40.3477 332 26.0009V20.3805H329.4V26Z" fill="#808285"/>
<path d="M325.461 6.64473V0H322.855V6.64473H316.316V9.1442H322.855V15.6841H325.461V9.1442H332V6.64473H325.461Z" fill="#808285"/>
</svg>
