<svg width="1100" height="173" viewBox="0 0 1100 173" fill="none" xmlns="http://www.w3.org/2000/svg">
<g clip-path="url(#clip0_6_8810)">
<g clip-path="url(#clip1_6_8810)">
<path d="M705.174 53.7295C705.878 53.7295 706.518 54.0457 707.094 54.4252C707.606 54.8047 707.926 55.627 707.926 56.4492C707.926 57.2715 707.606 57.9672 707.094 58.4732C706.582 58.9792 705.878 59.169 705.174 59.169C704.47 59.169 703.829 58.8527 703.253 58.4732C702.677 58.0937 702.485 57.2082 702.485 56.386C702.485 55.5637 702.805 54.868 703.317 54.362C703.829 53.856 704.406 53.7295 705.174 53.7295ZM705.174 51.1362C703.829 51.1362 702.549 51.5157 701.461 52.4645C700.629 53.097 699.733 54.4252 699.733 56.3227C699.733 58.2202 700.629 59.5485 701.461 60.2442C702.485 61.1297 703.701 61.5724 705.174 61.5724C706.518 61.5724 707.798 61.1929 708.886 60.2442C709.718 59.5485 710.614 58.3467 710.614 56.3227C710.614 54.2987 709.718 53.097 708.886 52.4012C707.798 51.579 706.582 51.1362 705.174 51.1362Z" fill="#FCAF17"/>
<path d="M706.71 64.2285V82.6342H703.445V64.1021C703.829 64.2918 704.533 64.4183 705.046 64.4183C705.558 64.4183 706.134 64.2918 706.71 64.2285Z" fill="#FCAF17"/>
<path d="M727.129 59.4855C726.809 56.2597 725.592 53.9195 722.392 53.9195C719.768 53.9195 718.039 55.6272 718.039 58.0307C718.039 65.0514 730.713 65.1147 730.713 75.1082C730.713 79.9784 727.769 83.0144 722.712 83.0144C717.847 83.0144 714.839 79.4092 714.711 74.2227H717.847C717.975 77.8912 719.64 80.1049 723.032 80.1049C725.848 80.1049 727.705 78.3339 727.705 74.9817C727.705 67.8977 715.031 67.0754 715.031 58.2837C715.031 53.8562 718.039 51.0732 722.648 51.0732C727.257 51.0732 730.137 54.046 730.457 59.4855H727.129Z" fill="#546373"/>
<path d="M744.347 82.8877C738.97 82.8877 735.45 78.4602 735.45 67.012C735.45 55.5638 738.97 51.0098 744.347 51.0098C749.724 51.0098 753.244 55.4373 753.244 67.012C753.244 78.5867 749.596 82.8877 744.347 82.8877ZM744.347 53.9193C741.339 53.9193 738.906 56.5125 738.906 67.012C738.906 77.5114 741.275 80.1047 744.347 80.1047C747.419 80.1047 749.788 77.5114 749.788 67.012C749.788 56.5125 747.355 53.9193 744.347 53.9193Z" fill="#546373"/>
<path d="M758.365 51.5156H771.935V54.4251H761.821V64.9246H769.439V67.7708H761.821V82.508H758.365V51.5156Z" fill="#546373"/>
<path d="M792.29 51.5156V54.4251H785.889V82.508H782.432V54.4251H776.095V51.5156H792.29Z" fill="#546373"/>
<path d="M796.002 51.5154H804.323C808.996 51.5154 811.684 54.6146 811.684 59.2319C811.684 62.3311 810.34 65.1141 806.948 66.1261V66.1893C810.788 67.2013 812.388 70.1108 812.388 74.0956C812.388 79.788 809.124 82.6975 802.275 82.6975H796.002V51.5154V51.5154ZM799.331 64.7978H801.251C806.116 64.7978 808.356 63.4063 808.356 59.1054C808.356 55.6266 806.82 54.2984 802.787 54.2984H799.331V64.7978ZM799.331 79.5983H802.787C806.82 79.5983 809.06 77.8273 809.06 73.9058C809.06 69.7946 807.268 67.5808 802.787 67.5808H799.331V79.5983Z" fill="#FCAF17"/>
<path d="M832.039 51.5154V54.4249H821.094V64.9243H829.159V67.7706H821.094V79.5983H832.615V82.5078H817.637V51.5154H832.039Z" fill="#FCAF17"/>
<path d="M851.754 51.5154V54.4249H845.353V82.5078H842.025V54.4249H835.432V51.5154H851.754Z" fill="#FCAF17"/>
<path d="M605.223 127.026C592.969 127.026 583 136.857 583 149.009C583 151.193 583.346 153.31 583.969 155.358C584.385 154.811 584.8 154.265 585.146 153.651C586.669 151.398 588.192 149.145 589.715 146.824L590.823 145.117C591.169 144.571 591.585 143.957 591.862 143.411C592.623 142.25 593.315 141.09 593.938 139.929C594.285 139.315 594.562 138.768 594.977 138.154C595.323 137.54 595.6 136.993 595.946 136.379C596.292 135.765 596.569 135.15 596.915 134.604L597.815 132.761L597.885 132.624C598.369 131.669 599.546 131.259 600.585 131.669C601.346 132.078 601.762 132.829 601.762 133.648C601.762 134.672 601.554 135.765 601.485 136.857C601.415 137.949 601.346 138.973 601.277 140.066C601.208 142.182 601.138 144.366 601.138 146.483C601.138 148.599 601.277 150.715 601.485 152.832C601.623 153.856 601.762 154.811 601.969 155.835C602.108 156.723 602.385 157.61 602.8 158.43C602.938 158.703 603.077 158.908 603.285 159.112C603.423 159.181 603.354 159.181 603.423 159.181C603.492 159.181 603.492 159.181 603.492 159.181L603.562 159.112H603.631H603.769C603.838 159.044 603.908 159.044 603.908 158.976C604.254 158.703 604.531 158.43 604.808 158.157C605.431 157.406 606.054 156.655 606.608 155.767C607.162 154.948 607.715 153.992 608.269 153.036C609.308 151.193 610.277 149.282 611.246 147.37C611.662 146.414 612.215 145.459 612.631 144.435C613.046 143.479 613.531 142.455 613.946 141.499C614.362 140.475 615.538 139.997 616.577 140.407C617.2 140.68 617.685 141.226 617.823 141.909C617.823 142.182 617.892 142.455 617.892 142.796L618.031 143.752C618.1 144.366 618.169 144.981 618.308 145.595C618.515 146.824 618.723 147.985 619.069 149.145C619.415 150.306 619.831 151.466 620.315 152.627C620.8 153.787 621.423 154.811 622.185 155.767C622.323 156.04 622.323 156.313 622.115 156.518C621.908 156.655 621.631 156.655 621.492 156.518C620.454 155.631 619.554 154.607 618.792 153.514C618.031 152.422 617.338 151.261 616.785 150.101C616.369 149.282 616.023 148.463 615.677 147.712C615.4 148.189 615.262 148.667 614.985 149.145C614.015 151.125 613.046 153.105 611.869 155.084C611.315 156.109 610.692 157.064 610.069 158.088C609.446 159.112 608.685 160.068 607.923 160.956C607.508 161.502 606.954 161.911 606.4 162.389C606.262 162.526 606.054 162.662 605.846 162.731L605.5 162.935L605.154 162.799L605.015 162.867H604.946L604.808 162.935C604.669 163.004 604.6 163.004 604.462 163.004C604.185 163.072 603.977 163.072 603.7 163.14C603.146 163.208 602.592 163.072 602.108 162.935C601.623 162.799 601.138 162.526 600.792 162.184C600.169 161.638 599.615 161.024 599.269 160.273C598.715 159.112 598.3 157.952 598.023 156.723C597.746 155.562 597.608 154.402 597.469 153.31C597.192 151.057 597.123 148.872 597.123 146.619C597.123 145.595 597.123 144.503 597.123 143.411C596.708 144.162 596.292 144.913 595.877 145.664C595.531 146.278 595.254 146.892 594.838 147.507L593.8 149.35C592.415 151.739 590.962 154.129 589.508 156.518C588.538 158.02 587.569 159.59 586.6 161.092C593.315 171.264 607.162 174.063 617.408 167.441C627.654 160.819 630.562 147.165 623.846 137.062C619.762 130.781 612.769 127.026 605.223 127.026Z" fill="url(#paint0_linear_6_8810)"/>
<path d="M646.762 156.86V142.319H646.415L641.708 156.928H640.462L635.754 142.319H635.408V156.86H633.469V140.817H636.931L641.154 153.583L645.308 140.817H648.838V156.928L646.762 156.86Z" fill="url(#paint1_linear_6_8810)"/>
<path d="M651.539 142.865V140.749H653.685V142.865H651.539ZM651.608 156.86V144.435H653.685V156.86H651.608Z" fill="url(#paint2_linear_6_8810)"/>
<path d="M666.285 152.832C666.285 155.222 665.315 157.065 661.231 157.065C656.108 157.065 655.831 154.198 655.831 150.648C655.831 147.098 656.108 144.23 661.231 144.23C665.315 144.23 666.285 146.074 666.285 148.463H664.346C664.346 146.483 663.654 145.528 661.3 145.528C658.115 145.528 657.977 147.234 657.977 150.579C657.977 153.925 658.115 155.631 661.3 155.631C663.654 155.631 664.346 154.675 664.346 152.696L666.285 152.832Z" fill="url(#paint3_linear_6_8810)"/>
<path d="M670.369 145.801C671.339 145.186 672.585 144.367 673.831 144.367C674.108 144.299 674.315 144.299 674.592 144.299C674.939 144.299 675.215 144.299 675.562 144.367L675.423 145.869C675.077 145.801 674.8 145.801 674.523 145.801C674.246 145.801 674.039 145.801 673.762 145.869C672.654 145.937 671.477 146.688 670.646 147.166V156.928H668.569V144.435H670.231L670.369 145.801Z" fill="url(#paint4_linear_6_8810)"/>
<path d="M687.192 150.716C687.192 154.266 686.915 157.133 681.654 157.133C676.462 157.133 676.115 154.266 676.115 150.716C676.115 147.166 676.392 144.299 681.654 144.299C686.846 144.23 687.192 147.166 687.192 150.716ZM678.192 150.716C678.192 154.129 678.331 155.768 681.654 155.768C684.977 155.768 685.115 154.129 685.115 150.716C685.115 147.302 684.977 145.664 681.654 145.664C678.331 145.664 678.192 147.302 678.192 150.716Z" fill="url(#paint5_linear_6_8810)"/>
<path d="M690.931 159.796C691.692 159.864 692.731 159.932 693.838 159.932C697.023 159.932 697.438 159.113 697.438 155.768C696.469 156.314 695.223 156.928 693.838 156.928C689.2 156.997 688.923 154.539 688.923 150.716C688.923 146.893 689.2 144.299 693.631 144.299C695.154 144.299 696.538 144.982 697.646 145.664L697.854 144.504H699.515V155.563C699.515 160 698.477 161.366 694.323 161.366C693.077 161.366 691.9 161.229 690.723 161.093L690.931 159.796ZM697.508 146.756C696.608 146.21 695.5 145.596 694.392 145.596C691.346 145.596 691.138 147.303 691.138 150.648C691.138 153.925 691.346 155.495 694.392 155.495C695.5 155.495 696.677 154.88 697.508 154.471V146.756Z" fill="url(#paint6_linear_6_8810)"/>
<path d="M710.869 156.86L710.662 155.699C709.623 156.314 708.308 157.065 706.854 157.065C702.215 157.133 701.938 154.539 701.938 150.648C701.938 146.756 702.215 144.23 706.785 144.23C708.308 144.23 709.623 144.913 710.662 145.528L710.869 144.435H712.531V156.86H710.869ZM710.454 146.688C709.623 146.21 708.446 145.664 707.338 145.664C704.292 145.664 704.085 147.371 704.085 150.716C704.085 154.061 704.292 155.768 707.338 155.768C708.446 155.768 709.554 155.153 710.454 154.607V146.688Z" fill="url(#paint7_linear_6_8810)"/>
<path d="M716.892 145.528C717.862 144.982 719.108 144.299 720.423 144.231C722.569 144.162 723.677 144.709 724.162 145.596C725.131 144.982 726.446 144.299 727.9 144.231C732.192 144.094 732.539 146.279 732.539 149.282V156.86H730.462V149.419C730.462 146.825 730.323 145.596 727.485 145.596C726.446 145.596 725.408 146.21 724.577 146.757C724.785 147.644 724.854 148.6 724.854 149.487V156.929H723.054V149.419C723.054 146.825 722.915 145.596 720.077 145.596C719.108 145.596 718.069 146.21 717.239 146.62V156.86H715.162V144.435H716.823L716.892 145.528Z" fill="url(#paint8_linear_6_8810)"/>
<path d="M735.1 142.865V140.749H737.246V142.865H735.1ZM735.1 156.86V144.435H737.177V156.86H735.1Z" fill="url(#paint9_linear_6_8810)"/>
<path d="M741.608 145.528C742.646 144.982 743.962 144.299 745.416 144.231C750.054 144.094 750.331 146.279 750.331 149.282V156.86H748.254V149.419C748.254 146.825 748.046 145.596 745 145.596C743.892 145.596 742.716 146.21 741.885 146.688V156.929H739.808V144.435H741.469L741.608 145.528Z" fill="url(#paint10_linear_6_8810)"/>
<path d="M754.415 159.796C755.177 159.864 756.215 159.932 757.323 159.932C760.508 159.932 760.923 159.113 760.923 155.768C759.954 156.314 758.708 156.928 757.323 156.928C752.685 156.997 752.408 154.539 752.408 150.716C752.408 146.893 752.685 144.299 757.115 144.299C758.638 144.299 760.023 144.982 761.131 145.664L761.338 144.504H763V155.563C763 160 761.962 161.366 757.808 161.366C756.562 161.366 755.385 161.229 754.208 161.093L754.415 159.796ZM760.923 146.756C760.023 146.21 758.915 145.596 757.808 145.596C754.762 145.596 754.554 147.303 754.554 150.648C754.554 153.925 754.762 155.495 757.808 155.495C758.915 155.495 760.092 154.88 760.923 154.471V146.756Z" fill="url(#paint11_linear_6_8810)"/>
<path d="M1076.05 78.0856H936.147C933.534 78.3176 931.103 76.8673 930.252 74.4889C929.887 73.2706 929.887 71.9944 930.252 70.8341L932.743 61.9003C933.594 58.1876 936.937 55.5771 940.948 55.519H1081.64C1086.5 55.519 1088.63 58.7097 1087.84 62.2484C1087.29 64.8009 1085.1 71.6463 1085.1 71.6463C1084.13 75.5911 1080.3 78.3176 1076.05 78.0856Z" fill="#0083C3"/>
<path d="M1056.11 87.4833H1018.86C1013.33 87.4833 1007.86 82.5523 1008.59 77.2152C1009.38 71.5301 1012.72 62.6543 1014.61 57.2592C1016.85 50.7619 1023.6 46.005 1029.13 46.005H1067.72C1073.31 45.947 1077.93 50.2398 1077.99 55.6349C1077.99 56.5631 1077.87 57.4913 1077.63 58.4195C1075.81 63.9306 1073.01 72.5743 1071.25 77.5633C1069.55 82.2623 1061.71 87.4833 1056.11 87.4833Z" fill="black"/>
<path d="M1068.33 49.137C1068.33 49.137 1062.19 49.137 1059.94 49.137C1054.23 49.0789 1049.13 52.5016 1047.24 57.6067L1042.99 70.5433C1038.19 81.7975 1044.26 83.7119 1048.46 83.7119H1055.45C1060.92 83.5959 1065.78 80.4052 1067.84 75.5323L1073.68 57.8387C1075.32 53.7199 1072.71 49.137 1068.33 49.137ZM1058.91 75.2422H1050.77L1056.42 58.0127H1064.56L1058.91 75.2422Z" fill="#FF1323"/>
<path d="M1027.67 70.8918H1032.17L1030.71 75.2427H1021.9L1023.11 71.588L1023.36 70.9499L1026.21 62.3641L1027.67 58.0713H1044.51V57.7812L1047 49.6016C1047 49.6016 1033.02 49.6016 1030.77 49.6016C1025.36 49.6016 1020.56 52.7922 1018.62 57.6072L1014.42 70.5438C1009.01 82.6102 1016.13 83.7124 1019.89 83.7124H1026.88C1032.53 83.8284 1037.58 80.4058 1039.28 75.3007L1043.17 62.3641H1030.47L1027.67 70.8918Z" fill="#FF1323"/>
<path d="M1001.3 72.9226L1003.12 66.7151H999.717L997.893 72.9226H994.064L996.07 66.4831C996.799 64.5106 998.805 63.1763 1000.99 63.1763H1004.52C1005.98 63.1182 1007.19 64.2205 1007.25 65.6129C1007.25 65.9609 1007.19 66.251 1007.07 66.5991L1005 72.9226H1001.3Z" fill="white"/>
<path d="M996.739 63.6402H991.694L993.275 59.5212H998.197L996.739 63.6402Z" fill="white"/>
<path d="M985.131 66.077H981.788L984.037 59.1733H980.208L977.959 66.3091C977.412 67.5854 978.142 69.0357 979.479 69.5579C979.783 69.6739 980.147 69.7319 980.451 69.7319L979.54 72.9807H983.186L984.28 69.7319C986.407 69.6739 988.231 68.3976 988.96 66.4831L991.33 59.2314H987.684L985.131 66.077Z" fill="white"/>
<path d="M975.225 59.1733H971.7C969.512 59.1733 967.506 60.4497 966.777 62.4221L963.13 72.9227H966.899L968.053 69.4999H971.396L970.424 72.8647H974.07L977.717 62.4801C978.203 61.1458 977.474 59.6955 976.076 59.2314C975.833 59.2314 975.529 59.1733 975.225 59.1733ZM972.672 66.077H969.086L970.302 62.6542H973.766L972.672 66.077Z" fill="white"/>
<path d="M955.291 59.1733L950.672 72.9227H961.733L964.043 66.077H960.335L959.241 69.4418H955.777L959.12 59.1733H955.291Z" fill="white"/>
<path d="M950.125 59.1733H943.015L938.396 72.9807H942.164L943.318 69.5579H946.6C948.788 69.5579 950.672 68.2816 951.402 66.3091C951.827 65.2648 952.678 62.6542 952.678 62.6542C953.286 61.4359 952.678 59.9275 951.402 59.4054C951.037 59.2314 950.551 59.1733 950.125 59.1733ZM947.877 66.077H944.352L945.567 62.6542H949.092L947.877 66.077Z" fill="white"/>
<path d="M1082.07 50.2391C1082 50.1811 1081.94 50.1231 1081.82 50.0651C1082.13 50.0071 1082.31 49.949 1082.43 49.775C1082.55 49.601 1082.61 49.4269 1082.61 49.2529C1082.61 49.0788 1082.55 48.9048 1082.49 48.7888C1082.43 48.6727 1082.31 48.5567 1082.19 48.4987C1082.07 48.4407 1081.82 48.4407 1081.58 48.4407H1080.24V51.5154H1080.67V50.1231H1081.15C1081.28 50.1231 1081.34 50.1231 1081.4 50.1231C1081.46 50.1231 1081.52 50.1811 1081.58 50.1811C1081.64 50.2391 1081.7 50.2971 1081.76 50.4132C1081.82 50.5292 1081.94 50.6452 1082.07 50.8193L1082.49 51.4574H1082.98L1082.43 50.6452C1082.31 50.4712 1082.19 50.3551 1082.07 50.2391ZM1081.58 49.775H1080.73V48.7307H1081.7C1081.94 48.7307 1082.07 48.7888 1082.19 48.8468C1082.31 48.9628 1082.37 49.0788 1082.37 49.1949C1082.37 49.3109 1082.37 49.3689 1082.31 49.4849C1082.25 49.5429 1082.19 49.659 1082.07 49.659C1081.88 49.717 1081.76 49.775 1081.58 49.775Z" fill="black"/>
<path d="M1081.46 46.9907C1079.76 46.9907 1078.42 48.267 1078.42 49.8914C1078.42 51.5158 1079.76 52.7921 1081.46 52.7921C1083.16 52.7921 1084.5 51.5158 1084.5 49.8914C1084.5 48.267 1083.1 46.9907 1081.46 46.9907ZM1081.46 52.328C1080.06 52.328 1078.91 51.2258 1078.91 49.8914C1078.91 48.5571 1080.06 47.4548 1081.46 47.4548C1082.86 47.4548 1084.01 48.5571 1084.01 49.8914C1084.01 51.2258 1082.86 52.328 1081.46 52.328Z" fill="black"/>
<path d="M61.1951 51.7419V57.8034H68.2307V82.2656H74.2921V57.8034H81.2736V51.7419H61.1951Z" fill="white"/>
<path d="M38.8435 82.2656H58.6514V76.2042H44.9049V70.0345H56.649V63.9731H44.9049V57.8034H58.6514V51.7419H38.8435V82.2656Z" fill="white"/>
<path d="M29.3725 70.4675L17.5744 51.7419H12V82.2656H18.0614V63.5401L29.8596 82.2656H35.434V51.7419H29.3725V70.4675Z" fill="white"/>
<path d="M132.634 51.7419V57.8034H139.615V82.2656H145.731V57.8034H152.712V51.7419H132.634Z" fill="#78C12B"/>
<path d="M124.191 70.4675L112.447 51.7419H106.818V82.2656H112.934V63.5401L124.678 82.2656H130.306V51.7419H124.191V70.4675Z" fill="#78C12B"/>
<path d="M85.5489 42.0005H84.0876V92.0074H85.5489V82.2658H103.896V76.2043H90.1491V70.0346H101.893V63.9732H90.1491V57.8035H103.896V51.7421H85.5489V42.0005Z" fill="#78C12B"/>
<path fill-rule="evenodd" clip-rule="evenodd" d="M315.622 48.4404C315.237 48.1307 314.756 48.0068 314.307 48.0068C313.569 48.0068 312.864 48.3475 312.415 48.9979L299.97 66.8982C299.232 67.9512 299.489 69.4067 300.547 70.15C300.964 70.4287 301.413 70.5836 301.862 70.5836C302.6 70.5836 303.305 70.2429 303.755 69.5925L316.2 51.6922C316.937 50.6392 316.681 49.1837 315.622 48.4404Z" fill="#FF7800"/>
<path fill-rule="evenodd" clip-rule="evenodd" d="M369.828 49.4313C369.443 48.5951 368.609 48.0996 367.743 48.0996C367.423 48.0996 367.07 48.1615 366.749 48.3164C365.594 48.8738 365.113 50.2675 365.658 51.4443L378.969 79.4407C379.354 80.2769 380.188 80.7724 381.054 80.7724C381.375 80.7724 381.728 80.7104 382.049 80.5556C383.203 79.9982 383.684 78.6045 383.139 77.4277L369.828 49.4313Z" fill="#FF7800"/>
<path fill-rule="evenodd" clip-rule="evenodd" d="M354.08 56.1826C354.08 51.723 350.487 48.0996 346.093 48.0996H346.061H346.029H340.287C339.004 48.0996 337.978 49.1526 337.978 50.4223C337.978 51.723 339.004 52.745 340.287 52.745H346.029H346.061H346.093C347.953 52.745 349.461 54.2625 349.461 56.1517C349.461 56.2446 349.461 56.3065 349.493 56.3994C349.493 56.4304 349.493 56.4304 349.493 56.4614V58.9389C349.493 59.0009 349.461 59.0628 349.461 59.1557C349.461 61.0448 347.953 62.5623 346.093 62.5623H346.061H346.029H340.287C339.004 62.5623 337.978 63.6153 337.978 64.8851C337.978 66.1858 339.004 67.2078 340.287 67.2078H346.029H346.061H346.093C350.391 67.2078 353.887 63.7702 354.08 59.4654C354.112 59.3415 354.112 59.2176 354.112 59.0938V56.4614C354.112 56.3685 354.08 56.3065 354.08 56.2136C354.08 56.2136 354.08 56.1826 354.08 56.1826Z" fill="#FF7800"/>
<path fill-rule="evenodd" clip-rule="evenodd" d="M326.111 48.0996C321.716 48.0996 318.124 51.723 318.124 56.1826C318.124 57.4834 319.15 58.5053 320.433 58.5053C321.716 58.5053 322.743 57.4524 322.743 56.1826C322.743 54.2935 324.25 52.776 326.111 52.776C327.971 52.776 329.478 54.2935 329.478 56.1826C329.478 57.4834 330.505 58.5053 331.788 58.5053C333.071 58.5053 334.097 57.4524 334.097 56.1826C334.097 51.723 330.505 48.0996 326.111 48.0996Z" fill="#FF7800"/>
<path fill-rule="evenodd" clip-rule="evenodd" d="M331.788 70.3669C330.505 70.3669 329.478 71.4199 329.478 72.7206C329.478 74.6098 327.971 76.1273 326.111 76.1273C324.25 76.1273 322.743 74.6098 322.743 72.7206C322.743 71.4199 321.716 70.3669 320.433 70.3669C319.15 70.3669 318.124 71.4199 318.124 72.7206C318.124 77.1802 321.716 80.8037 326.111 80.8037C330.505 80.8037 334.097 77.1802 334.097 72.7206C334.097 71.3889 333.071 70.3669 331.788 70.3669Z" fill="#FF7800"/>
<path fill-rule="evenodd" clip-rule="evenodd" d="M239.22 48.0996C234.826 48.0996 231.234 51.723 231.234 56.1826C231.234 57.4834 232.26 58.5053 233.543 58.5053C234.826 58.5053 235.852 57.4524 235.852 56.1826C235.852 54.2935 237.36 52.776 239.22 52.776C241.081 52.776 242.588 54.2935 242.588 56.1826C242.588 57.4834 243.614 58.5053 244.897 58.5053C246.18 58.5053 247.207 57.4524 247.207 56.1826C247.207 51.723 243.614 48.0996 239.22 48.0996Z" fill="#FF7800"/>
<path fill-rule="evenodd" clip-rule="evenodd" d="M244.897 70.3669C243.614 70.3669 242.588 71.4199 242.588 72.7206C242.588 74.6098 241.081 76.1273 239.22 76.1273C237.36 76.1273 235.852 74.6098 235.852 72.7206C235.852 71.4199 234.826 70.3669 233.543 70.3669C232.26 70.3669 231.234 71.4199 231.234 72.7206C231.234 77.1802 234.826 80.8037 239.22 80.8037C239.862 80.8037 240.471 80.7107 241.081 80.5869L242.845 83.8696C243.262 84.6129 244.031 85.0774 244.801 85.0774C244.833 85.0774 244.833 85.0774 244.865 85.0774C245.25 85.0774 245.603 84.9845 245.956 84.7987C247.079 84.1793 247.495 82.7547 246.886 81.6398L245.058 78.2332C246.373 76.7776 247.207 74.8575 247.207 72.7516C247.207 71.3889 246.18 70.3669 244.897 70.3669Z" fill="#FF7800"/>
<path fill-rule="evenodd" clip-rule="evenodd" d="M294.164 70.3669C292.881 70.3669 291.855 71.4199 291.855 72.7206C291.855 74.6098 290.347 76.1273 288.487 76.1273C286.627 76.1273 285.119 74.6098 285.119 72.7206C285.119 71.4199 284.093 70.3669 282.81 70.3669C281.527 70.3669 280.5 71.4199 280.5 72.7206C280.5 77.1802 284.093 80.8037 288.487 80.8037C292.881 80.8037 296.474 77.1802 296.474 72.7206C296.474 71.3889 295.447 70.3669 294.164 70.3669Z" fill="#FF7800"/>
<path fill-rule="evenodd" clip-rule="evenodd" d="M264.976 70.3669C263.693 70.3669 262.667 71.4199 262.667 72.7206C262.667 74.6098 261.159 76.1273 259.299 76.1273C257.439 76.1273 255.931 74.6098 255.931 72.7206C255.931 71.4199 254.905 70.3669 253.622 70.3669C252.339 70.3669 251.312 71.4199 251.312 72.7206C251.312 77.1802 254.905 80.8037 259.299 80.8037C263.693 80.8037 267.286 77.1802 267.286 72.7206C267.286 71.3889 266.259 70.3669 264.976 70.3669Z" fill="#FF7800"/>
<path fill-rule="evenodd" clip-rule="evenodd" d="M288.487 48.0996C284.093 48.0996 280.5 51.723 280.5 56.1826C280.5 57.4834 281.527 58.5053 282.81 58.5053C284.093 58.5053 285.119 57.4524 285.119 56.1826C285.119 54.2935 286.627 52.776 288.487 52.776C290.347 52.776 291.855 54.2935 291.855 56.1826C291.855 57.4834 292.881 58.5053 294.164 58.5053C295.447 58.5053 296.474 57.4524 296.474 56.1826C296.474 51.723 292.913 48.0996 288.487 48.0996Z" fill="#FF7800"/>
<path fill-rule="evenodd" clip-rule="evenodd" d="M331.788 69.0348C331.884 69.0348 331.98 69.0348 332.108 69.0657L323.897 57.2664C323.448 58.7529 322.069 59.8678 320.433 59.8678C320.305 59.8678 320.177 59.8678 320.048 59.8368L328.324 71.7291C328.709 70.1497 330.12 69.0348 331.788 69.0348Z" fill="#FF7800"/>
<path fill-rule="evenodd" clip-rule="evenodd" d="M304.171 50.4223C304.171 49.1216 303.145 48.0996 301.862 48.0996C300.579 48.0996 299.553 49.1526 299.553 50.4223V65.1948L304.171 58.5363V50.4223V50.4223Z" fill="#FF7800"/>
<path fill-rule="evenodd" clip-rule="evenodd" d="M285.119 69.8717V59.0015C284.478 59.5279 283.676 59.8376 282.81 59.8376C281.944 59.8376 281.142 59.5279 280.5 59.0015V69.8717C281.142 69.3453 281.944 69.0356 282.81 69.0356C283.708 69.0356 284.51 69.3453 285.119 69.8717Z" fill="#FF7800"/>
<path fill-rule="evenodd" clip-rule="evenodd" d="M381.086 48.0996C379.803 48.0996 378.777 49.1526 378.777 50.4223V65.1638L383.396 74.8882V50.4223C383.396 49.1526 382.337 48.0996 381.086 48.0996Z" fill="#FF7800"/>
<path fill-rule="evenodd" clip-rule="evenodd" d="M342.597 61.2314V54.1084H340.287C339.421 54.1084 338.62 53.7987 337.978 53.2722V62.0675C338.62 61.5411 339.421 61.2314 340.287 61.2314H342.597Z" fill="#FF7800"/>
<path fill-rule="evenodd" clip-rule="evenodd" d="M359.404 48.0996C358.121 48.0996 357.095 49.1526 357.095 50.4223V78.4187C357.095 79.7194 358.121 80.7414 359.404 80.7414C360.687 80.7414 361.713 79.6885 361.713 78.4187V50.4223C361.713 49.1526 360.687 48.0996 359.404 48.0996Z" fill="#FF7800"/>
<path fill-rule="evenodd" clip-rule="evenodd" d="M299.777 71.2654C299.713 71.2035 299.617 71.1415 299.553 71.0796V78.4194C299.553 79.7201 300.579 80.7421 301.862 80.7421C303.145 80.7421 304.171 79.6891 304.171 78.4194V71.0796C303.53 71.6061 302.728 71.9158 301.862 71.9158C301.092 71.9158 300.387 71.699 299.777 71.2654Z" fill="#FF7800"/>
<path fill-rule="evenodd" clip-rule="evenodd" d="M273.893 48.0996C272.61 48.0996 271.583 49.1526 271.583 50.4223V78.4187C271.583 79.7194 272.61 80.7414 273.893 80.7414C275.176 80.7414 276.202 79.6885 276.202 78.4187V50.4223C276.202 49.1526 275.176 48.0996 273.893 48.0996Z" fill="#FF7800"/>
<path fill-rule="evenodd" clip-rule="evenodd" d="M309.752 63.2744L306.705 67.6721L312.222 79.4095C312.607 80.2457 313.441 80.7412 314.307 80.7412C314.628 80.7412 314.981 80.6793 315.301 80.5244C316.456 79.967 316.937 78.5733 316.392 77.3965L309.752 63.2744Z" fill="#FF7800"/>
<path fill-rule="evenodd" clip-rule="evenodd" d="M365.434 78.4189C365.434 79.7196 366.46 80.7416 367.743 80.7416C369.026 80.7416 370.053 79.6886 370.053 78.4189V63.7703L365.434 54.0459V78.4189Z" fill="#FF7800"/>
<path fill-rule="evenodd" clip-rule="evenodd" d="M337.978 67.7344V78.4498C337.978 79.7505 339.004 80.7725 340.287 80.7725C341.57 80.7725 342.597 79.7196 342.597 78.4498V68.5706H340.287C339.421 68.5706 338.62 68.2299 337.978 67.7344Z" fill="#FF7800"/>
<path fill-rule="evenodd" clip-rule="evenodd" d="M255.963 69.8711V50.4223C255.963 49.1216 254.937 48.0996 253.654 48.0996C252.371 48.0996 251.344 49.1526 251.344 50.4223V69.8402C251.986 69.3137 252.788 69.004 253.654 69.004C254.52 69.035 255.322 69.3447 255.963 69.8711Z" fill="#FF7800"/>
<path fill-rule="evenodd" clip-rule="evenodd" d="M267.286 69.8711V50.4223C267.286 49.1216 266.259 48.0996 264.976 48.0996C263.693 48.0996 262.667 49.1526 262.667 50.4223V69.8711C263.308 69.3447 264.11 69.035 264.976 69.035C265.874 69.035 266.676 69.3447 267.286 69.8711Z" fill="#FF7800"/>
<path fill-rule="evenodd" clip-rule="evenodd" d="M235.852 69.8717V59.0015C235.211 59.5279 234.409 59.8376 233.543 59.8376C232.677 59.8376 231.875 59.5279 231.234 59.0015V69.8717C231.875 69.3453 232.677 69.0356 233.543 69.0356C234.409 69.0356 235.243 69.3453 235.852 69.8717Z" fill="#FF7800"/>
<path fill-rule="evenodd" clip-rule="evenodd" d="M247.207 69.8717V59.0015C246.565 59.5279 245.764 59.8376 244.898 59.8376C244.031 59.8376 243.198 59.5279 242.588 59.0015V69.8717C243.23 69.3453 244.031 69.0356 244.898 69.0356C245.764 69.0356 246.597 69.3453 247.207 69.8717Z" fill="#FF7800"/>
<path d="M250.217 134.695C252.175 134.376 253.503 132.53 253.184 130.572C252.865 128.614 251.019 127.285 249.061 127.604C247.103 127.923 245.774 129.769 246.093 131.727C246.413 133.685 248.258 135.014 250.217 134.695Z" fill="white"/>
<path d="M268.408 134.744C270.414 134.744 272 133.158 272 131.152C272 129.146 270.414 127.56 268.408 127.56C266.402 127.56 264.816 129.146 264.816 131.152C264.816 133.158 266.432 134.744 268.408 134.744Z" fill="white"/>
<path d="M250.22 152.297C252.178 151.978 253.506 150.132 253.187 148.174C252.868 146.216 251.022 144.887 249.064 145.206C247.106 145.525 245.777 147.371 246.096 149.329C246.415 151.288 248.261 152.616 250.22 152.297Z" fill="white"/>
<path d="M268.408 145.132C266.402 145.132 264.816 146.719 264.816 148.724C264.816 150.73 266.402 152.316 268.408 152.316C270.414 152.316 272 150.73 272 148.724C272 146.749 270.414 145.132 268.408 145.132Z" fill="white"/>
<path d="M259.917 143.446C261.848 142.992 263.046 141.059 262.593 139.128C262.139 137.196 260.206 135.998 258.275 136.452C256.343 136.905 255.145 138.839 255.599 140.77C256.052 142.701 257.986 143.899 259.917 143.446Z" fill="white"/>
<path d="M182.614 127.56H172.766C167.318 127.56 162.917 132.349 162.917 138.217V139.683V139.803V140.073V140.192V141.659C162.917 147.526 167.318 152.316 172.766 152.316H182.614C182.884 152.316 183.153 152.047 183.153 151.777V148.484C183.153 148.215 182.884 147.945 182.614 147.945H173.694C173.694 147.945 172.496 147.945 171.419 147.407C170.221 146.868 169.682 145.94 169.682 145.94C169.682 145.94 169.293 145.401 169.024 144.593C168.754 143.665 168.754 142.467 168.754 142.467V141.929H182.614C182.884 141.929 183.153 141.659 183.153 141.39V138.097C183.153 137.827 182.884 137.558 182.614 137.558H168.754V137.289C168.754 137.289 168.874 136.091 169.024 135.163C169.293 134.235 169.682 133.816 169.682 133.816C169.682 133.816 170.221 132.888 171.419 132.349C172.616 131.811 173.694 131.811 173.694 131.811H182.614C182.884 131.811 183.153 131.541 183.153 131.272V128.099C183.153 127.829 182.884 127.56 182.614 127.56Z" fill="white"/>
<path d="M207.79 147.676H200.456C200.456 147.676 199.528 147.676 198.6 147.137C197.672 146.598 197.133 145.67 197.133 145.67C197.133 145.67 196.594 145.132 196.594 144.204C196.594 143.395 196.594 142.348 196.594 142.348V139.953V127.949C196.594 127.68 196.474 127.56 196.205 127.56H191.954C191.685 127.56 191.415 127.829 191.415 128.099C191.415 128.099 191.415 128.099 191.415 128.218V140.073V141.659V144.204V144.323C191.535 148.574 195.157 152.047 199.677 152.047H207.79C208.059 152.047 208.179 151.777 208.179 151.508V148.215C208.209 147.945 208.059 147.676 207.79 147.676Z" fill="white"/>
<path d="M240.059 151.538L230.061 127.949C229.911 127.68 229.792 127.56 229.522 127.56H227.517H227.247H225.242C224.972 127.56 224.852 127.68 224.703 127.949L214.585 151.538V151.657C214.585 151.867 214.764 152.047 214.974 152.047H219.494C219.763 152.047 219.883 151.927 220.033 151.657L222.158 146.209H232.815L234.94 151.657C235.06 151.927 235.21 152.047 235.479 152.047H239.67C239.97 152.077 240.149 151.807 240.059 151.538ZM223.655 141.959L227.397 132.499L231.139 141.959H223.655Z" fill="white"/>
<path d="M155.972 151.538L150.255 141.959C153.188 141.3 155.194 139.294 155.194 134.894C155.314 129.027 151.332 127.68 146.393 127.56H145.196H134.539C134.269 127.56 134 127.829 134 128.099V151.687C134 151.957 134.269 152.226 134.539 152.226H138.79C139.059 152.226 139.328 151.957 139.328 151.687V142.467H145.315L150.644 151.807C150.764 152.077 151.033 152.196 151.302 152.196H155.852C156.122 152.196 156.242 152.077 156.242 151.807C155.972 151.687 155.972 151.538 155.972 151.538ZM146.513 138.097L145.166 138.217H139.179V131.96H145.315H146.513C149.297 131.96 150.105 133.307 150.105 135.014C149.985 136.75 149.177 138.097 146.513 138.097Z" fill="white"/>
<path d="M141.334 165.248H139.328C138.939 165.248 138.79 165.368 138.79 165.787C138.79 166.176 139.059 166.326 139.328 166.326H140.915V166.715C140.915 167.912 140.376 168.84 139.448 169.259C139.059 169.379 138.52 169.529 138.101 169.529C137.443 169.529 136.904 169.259 136.515 168.87C135.856 168.062 135.437 167.134 135.437 165.817C135.437 164.889 135.706 164.081 136.095 163.422C136.634 162.614 137.443 162.225 138.371 162.225C138.909 162.225 139.179 162.344 139.568 162.494C139.837 162.614 140.107 162.883 140.496 163.153C140.616 163.272 140.765 163.272 140.885 163.272C141.005 163.272 141.154 163.272 141.274 163.153C141.394 163.033 141.394 162.883 141.394 162.763C141.394 162.644 141.394 162.494 141.274 162.374C141.005 161.985 140.616 161.716 140.077 161.566C139.418 161.446 138.879 161.297 138.221 161.297C137.562 161.297 137.023 161.416 136.485 161.686C136.095 161.955 135.676 162.344 135.287 162.763C134.479 163.691 134.21 164.769 134.21 166.086C134.21 167.164 134.479 168.092 135.138 169.02C135.946 169.948 136.874 170.487 138.191 170.487C139.269 170.487 140.047 170.367 140.586 169.828C141.514 169.02 141.933 167.972 141.933 166.356V166.236C141.993 165.667 141.723 165.248 141.334 165.248Z" fill="white"/>
<path d="M217.249 161.536C216.86 161.536 216.71 161.656 216.71 162.075V170.068C216.71 170.457 216.83 170.606 217.249 170.606C217.638 170.606 217.788 170.337 217.788 169.948V162.075C217.788 161.656 217.668 161.536 217.249 161.536Z" fill="white"/>
<path d="M168.365 170.008C168.126 169.379 165.312 162.404 165.192 162.105C165.192 162.105 165.192 162.105 165.192 162.075C165.162 161.925 165.102 161.835 165.042 161.746C164.953 161.626 164.803 161.536 164.534 161.536C164.504 161.536 164.504 161.536 164.474 161.536C164.444 161.536 164.414 161.536 164.414 161.536C164.294 161.536 164.144 161.536 164.025 161.656C163.935 161.746 163.905 161.835 163.845 161.985C163.785 162.105 163.755 162.195 163.755 162.195L160.822 169.918V170.038V170.157C160.822 170.427 161.091 170.547 161.36 170.547C161.63 170.547 161.75 170.427 161.899 170.157L162.618 168.571H166.779C166.988 169.14 167.168 169.559 167.198 169.648C167.228 169.768 167.288 169.888 167.318 170.008L167.377 170.157C167.407 170.217 167.407 170.247 167.497 170.337C167.677 170.457 167.767 170.427 167.916 170.427H167.946C167.946 170.427 167.946 170.427 167.976 170.427C168.036 170.427 168.066 170.427 168.126 170.427H168.156C168.246 170.397 168.305 170.367 168.365 170.337L168.395 170.307C168.455 170.187 168.455 170.068 168.455 170.068C168.455 170.068 168.365 170.038 168.365 170.008ZM162.767 167.523L164.504 162.913C164.773 163.632 165.641 165.817 166.3 167.523H162.767Z" fill="white"/>
<path d="M195.277 161.267C195.157 161.147 195.007 161.147 194.738 161.147C194.468 161.147 194.349 161.147 194.199 161.267C194.079 161.387 193.93 161.536 193.93 161.656L192.074 168.332L190.218 161.806C190.218 161.686 190.098 161.536 189.948 161.417C189.829 161.297 189.679 161.297 189.409 161.297C189.29 161.297 189.02 161.417 188.871 161.566C188.751 161.686 188.601 161.836 188.601 162.105L187.254 169.709C187.254 169.828 187.254 169.828 187.254 169.978C187.254 170.367 187.524 170.637 187.793 170.637C188.182 170.637 188.452 170.517 188.452 170.098L189.469 163.063C189.858 164.41 191.415 169.679 191.565 170.128C191.744 170.637 192.553 170.667 192.702 170.098L194.798 162.854L195.905 170.217C195.935 170.547 196.175 170.637 196.444 170.637C196.833 170.637 196.983 170.367 196.983 169.828L195.516 161.836C195.546 161.536 195.426 161.387 195.277 161.267Z" fill="white"/>
<path d="M244.31 161.926C244.31 161.536 244.19 161.387 243.771 161.387C243.652 161.387 243.502 161.387 243.382 161.506C243.262 161.626 243.262 161.776 243.262 161.896V168.421L238.593 161.626C238.323 161.357 238.203 161.237 237.934 161.237C237.665 161.237 237.545 161.357 237.545 161.776V169.769C237.545 170.158 237.665 170.307 238.084 170.307C238.473 170.307 238.623 170.188 238.623 169.769V163.243L243.173 170.038C243.442 170.307 243.562 170.427 243.831 170.427C244.22 170.427 244.37 170.307 244.37 169.888V161.926H244.31Z" fill="white"/>
<path d="M271.102 165.248H269.096C268.707 165.248 268.557 165.368 268.557 165.787C268.557 166.176 268.827 166.326 269.096 166.326H270.683V166.715C270.683 167.912 270.144 168.84 269.216 169.259C268.827 169.379 268.288 169.529 267.869 169.529C267.21 169.529 266.671 169.259 266.282 168.87C265.624 168.062 265.205 167.134 265.205 165.817C265.205 164.889 265.474 164.081 265.863 163.422C266.402 162.614 267.21 162.225 268.138 162.225C268.677 162.225 268.946 162.344 269.336 162.494C269.605 162.614 269.874 162.883 270.264 163.153C270.383 163.272 270.533 163.272 270.653 163.272C270.773 163.272 270.922 163.272 271.042 163.153C271.162 163.033 271.162 162.883 271.162 162.763C271.162 162.644 271.162 162.494 271.042 162.374C270.773 161.985 270.383 161.716 269.845 161.566C269.186 161.446 268.647 161.297 267.989 161.297C267.33 161.297 266.791 161.416 266.252 161.686C265.863 161.955 265.444 162.344 265.055 162.763C264.247 163.691 263.977 164.769 263.977 166.086C263.977 167.164 264.247 168.092 264.905 169.02C265.714 169.948 266.641 170.487 267.959 170.487C269.036 170.487 269.815 170.367 270.353 169.828C271.281 169.02 271.701 167.972 271.701 166.356V166.236C271.76 165.667 271.491 165.248 271.102 165.248Z" fill="white"/>
<path d="M953.568 132.11C946.324 132.551 949.578 141.992 957.594 141.496C965.426 141 961.289 131.632 953.568 132.11Z" fill="#F19021"/>
<path d="M950.516 126.287C937.628 126.287 927.167 136.738 927.167 149.614C927.167 162.49 937.628 172.942 950.516 172.942C963.404 172.942 973.864 162.49 973.864 149.614C973.864 136.72 963.404 126.287 950.516 126.287ZM950.516 170.499C938.97 170.499 929.612 161.149 929.612 149.632C929.612 138.116 938.97 128.748 950.497 128.748C962.025 128.748 971.401 138.079 971.401 149.614C971.401 161.149 962.043 170.499 950.516 170.499ZM949.799 109.994C944.247 114.182 945.221 120.593 945.221 120.593C945.221 120.593 941.728 111.555 937.205 106.027C936.599 113.135 938.823 122.558 938.823 122.558C938.823 122.558 935.992 116.717 929.042 116.386C934.797 119.692 937.04 125.644 937.536 127.242C940.974 125.129 944.89 123.936 948.916 123.807C948.494 122.337 946.876 116.074 949.799 109.994Z" fill="#F19021"/>
<path d="M830.041 151.893V156.779H828V144.197H832.284C833.736 144.197 834.821 144.546 835.556 145.225C836.292 145.905 836.659 146.86 836.659 148.054C836.659 149.248 836.292 150.185 835.538 150.864C834.784 151.544 833.699 151.893 832.302 151.893H830.041ZM834.582 148.072C834.582 147.356 834.379 146.823 833.993 146.438C833.589 146.07 832.964 145.868 832.081 145.868H830.041V150.24H832.081C833.736 150.24 834.582 149.524 834.582 148.072ZM845.043 156.779L841.899 151.746H840.446V156.779H838.424V144.197H842.873C844.307 144.197 845.41 144.546 846.146 145.244C846.881 145.942 847.267 146.879 847.267 148.017C847.267 148.991 846.991 149.799 846.44 150.442C845.888 151.085 845.098 151.489 844.05 151.654L847.359 156.761H845.043V156.779ZM840.465 150.313H842.708C844.344 150.313 845.171 149.597 845.171 148.146C845.171 147.466 844.969 146.915 844.583 146.53C844.179 146.144 843.572 145.96 842.726 145.96H840.465V150.313ZM856.607 154.06H851.293L850.337 156.779H848.168L852.801 144.399H855.136L859.75 156.779H857.581L856.607 154.06ZM856.037 152.481L853.941 146.603L851.845 152.481H856.037ZM870.009 145.207C871.002 145.942 871.7 147.007 871.995 148.219H869.862C869.586 147.558 869.127 146.989 868.52 146.603C867.858 146.181 867.086 145.978 866.295 145.997C865.56 145.978 864.825 146.181 864.181 146.548C863.556 146.915 863.041 147.466 862.729 148.109C862.361 148.862 862.196 149.67 862.214 150.497C862.196 151.36 862.379 152.205 862.747 152.977C863.078 153.638 863.611 154.189 864.255 154.556C864.953 154.924 865.725 155.126 866.516 155.107C867.509 155.126 868.465 154.777 869.2 154.116C869.954 153.473 870.395 152.573 870.561 151.452H865.946V149.964H872.27V151.911C872.142 152.811 871.792 153.675 871.278 154.428C870.744 155.181 870.046 155.805 869.237 156.246C868.336 156.705 867.325 156.944 866.314 156.926C865.174 156.944 864.052 156.669 863.06 156.099C862.14 155.567 861.368 154.777 860.89 153.822C859.861 151.728 859.861 149.266 860.89 147.172C861.387 146.236 862.14 145.446 863.06 144.913C864.052 144.362 865.174 144.087 866.295 144.105C867.766 144.105 869.016 144.472 870.009 145.207ZM886.592 144.399V156.779H884.533V147.503L880.948 156.779H879.165L875.561 147.503V156.779H873.521V144.399H875.984L880.084 154.281L884.11 144.399H886.592ZM896.557 154.06H891.243L890.287 156.779H888.1L892.733 144.399H895.067L899.682 156.779H897.513L896.557 154.06ZM895.987 152.481L893.891 146.603L891.795 152.481H895.987ZM908.396 144.197V145.832H904.885V156.779H902.826V145.832H899.333V144.197H908.396ZM911.503 144.197V156.779H909.481V144.197H911.503ZM923.012 145.244C924.042 146.034 924.777 147.172 925.071 148.44H922.92C922.645 147.705 922.148 147.081 921.505 146.621C920.806 146.162 919.96 145.923 919.115 145.96C918.416 145.942 917.717 146.144 917.111 146.511C916.504 146.897 916.026 147.448 915.714 148.091C915.033 149.615 915.033 151.342 915.714 152.867C916.026 153.509 916.504 154.06 917.111 154.446C917.717 154.814 918.416 155.016 919.115 154.997C919.96 155.034 920.788 154.795 921.505 154.336C922.148 153.895 922.645 153.271 922.92 152.536H925.071C924.759 153.803 924.042 154.924 923.012 155.714C921.983 156.485 920.714 156.889 919.151 156.889C918.048 156.907 916.945 156.632 915.989 156.081C915.07 155.548 914.335 154.758 913.875 153.822C912.882 151.728 912.882 149.285 913.875 147.172C914.353 146.236 915.088 145.446 915.989 144.895C916.945 144.344 918.03 144.05 919.151 144.068C920.714 144.068 921.983 144.472 923.012 145.244ZM934.668 151.893V156.779H932.646V144.197H936.929C938.382 144.197 939.467 144.546 940.202 145.225C940.937 145.905 941.305 146.86 941.305 148.054C941.305 149.248 940.937 150.185 940.184 150.864C939.43 151.544 938.345 151.893 936.929 151.893H934.668ZM939.228 148.072C939.228 147.356 939.025 146.823 938.639 146.438C938.235 146.07 937.61 145.868 936.727 145.868H934.687V150.24H936.727C938.382 150.24 939.228 149.524 939.228 148.072ZM944.78 155.199H949.137V156.779H942.757V144.197H944.798V155.199H944.78ZM958.44 154.06H953.126L952.17 156.779H950.001L954.634 144.399H956.969L961.583 156.779H959.414L958.44 154.06ZM957.87 152.481L955.792 146.603L953.715 152.481H957.87ZM969.746 144.197L965.555 152.205V156.779H963.514V152.205L959.304 144.197H961.657L964.543 150.019L967.43 144.197H969.746Z" fill="white"/>
<path d="M396.776 148.704C397.558 147.609 397.989 146.318 397.949 144.948C398.067 143.188 397.363 141.466 396.032 140.293C394.546 139.236 392.746 138.689 390.946 138.806H383.121V158.916H388.364V151.169H388.403L393.215 158.916H399.045L393.568 150.661C394.82 150.465 395.993 149.761 396.776 148.704ZM392.159 146.592C391.963 146.905 391.69 147.179 391.337 147.374C390.985 147.57 390.594 147.687 390.203 147.726C389.772 147.805 389.303 147.805 388.833 147.805H388.325V142.797H388.833C389.303 142.797 389.733 142.836 390.203 142.875C390.594 142.914 390.985 143.07 391.337 143.227C391.69 143.383 391.963 143.657 392.159 144.009C392.589 144.831 392.589 145.77 392.159 146.592Z" fill="#D71920"/>
<path d="M401.158 158.916H412.621V154.338H406.439V151.091H412.621V146.513H406.439V143.305H412.621V138.845H401.158V158.916Z" fill="#D71920"/>
<path d="M513.875 150.661C515.048 150.465 516.105 149.761 516.731 148.704C517.513 147.609 517.944 146.318 517.905 144.948C518.022 143.188 517.318 141.466 515.987 140.293C514.501 139.236 512.701 138.689 510.901 138.806H503.076V158.916H508.319V151.169H508.358L513.17 158.916H519L513.875 150.661ZM512.153 146.592C511.958 146.905 511.684 147.179 511.332 147.374C510.98 147.57 510.588 147.687 510.197 147.726C509.767 147.805 509.297 147.805 508.867 147.805H508.358V142.797H508.867C509.336 142.797 509.767 142.836 510.197 142.875C510.588 142.914 510.98 143.07 511.332 143.227C511.684 143.383 511.958 143.657 512.153 144.009C512.544 144.831 512.544 145.77 512.153 146.592Z" fill="#D71920"/>
<path d="M488.366 158.916H499.829V154.338H493.648V151.091H499.829V146.513H493.648V143.305H499.829V138.845H488.366V158.916Z" fill="#D71920"/>
<path d="M462.426 138.766H457.184V158.915H462.426V138.766Z" fill="#D71920"/>
<path d="M475.533 151.638H479.484C479.445 152.577 479.015 153.477 478.271 154.064C477.489 154.651 476.55 154.964 475.572 154.924C474.829 154.924 474.124 154.768 473.498 154.455C472.872 154.142 472.364 153.672 471.933 153.125C471.503 152.538 471.19 151.912 470.994 151.208C470.564 149.799 470.564 148.312 470.994 146.865C471.19 146.161 471.503 145.535 471.933 144.948C472.325 144.4 472.872 143.931 473.459 143.578C474.085 143.226 474.789 143.07 475.494 143.07C476.394 143.031 477.254 143.344 477.958 143.852C478.663 144.439 479.21 145.183 479.523 146.043L484.14 144.087C483.436 142.444 482.301 141.074 480.815 140.135C479.289 139.236 477.528 138.766 475.728 138.805C474.32 138.805 472.951 139.04 471.62 139.509C470.408 139.94 469.312 140.644 468.412 141.583C467.512 142.522 466.808 143.618 466.339 144.83C465.83 146.161 465.595 147.569 465.595 148.978C465.595 150.347 465.83 151.716 466.299 153.007C466.769 154.181 467.434 155.277 468.373 156.176C469.273 157.076 470.368 157.741 471.542 158.211C472.833 158.68 474.163 158.954 475.533 158.915C477.059 158.915 478.545 158.641 479.915 158.015C481.245 157.389 482.38 156.45 483.24 155.237C483.945 154.259 484.492 153.125 484.727 151.951C485.001 150.582 485.118 149.212 485.118 147.804H475.494V151.638H475.533Z" fill="#D71920"/>
<path d="M440.125 143.266H444.429V158.955H449.672V143.266H454.015V138.845H440.125V143.266Z" fill="#D71920"/>
<path d="M429.405 141.739C428.544 140.839 427.527 140.096 426.353 139.587C425.219 139.079 423.967 138.805 422.715 138.844H415.868V158.954H422.715C423.967 158.954 425.219 158.68 426.353 158.171C427.488 157.663 428.544 156.919 429.405 156.02C430.305 155.081 430.97 153.985 431.44 152.811C432.418 150.307 432.418 147.49 431.44 144.987C430.97 143.774 430.266 142.678 429.405 141.739ZM427.136 148.899C427.136 149.76 427.019 150.581 426.706 151.403C426.236 152.733 425.18 153.75 423.85 154.22C423.184 154.455 422.48 154.572 421.776 154.533H420.68V143.265H421.815C423.263 143.187 424.632 143.735 425.649 144.752C426.706 145.886 427.214 147.373 427.136 148.899Z" fill="#D71920"/>
<path d="M355.186 150.777C355.773 150.777 356.321 150.659 356.869 150.464C357.182 150.268 357.299 149.877 357.26 149.525C357.221 149.055 356.595 148.703 356.595 148.703C356.634 149.838 355.656 150.112 353.621 150.151C351.587 150.151 350.609 149.838 350.648 148.703C350.648 148.703 350.022 149.055 349.983 149.525C349.905 149.877 350.061 150.229 350.374 150.464C350.922 150.698 351.47 150.777 352.056 150.777C352.682 150.777 353.191 150.777 353.621 150.777V150.738V150.777C354.091 150.777 354.56 150.777 355.186 150.777Z" fill="#D71920"/>
<path d="M371.071 152.029C370.993 151.325 370.836 150.62 370.602 149.955C370.523 149.721 370.406 149.525 370.249 149.368C370.21 149.368 370.171 149.877 370.171 149.994C370.132 150.738 370.132 151.481 370.093 152.225C369.858 155.081 369.467 157.506 367.472 159.658C367.08 160.089 366.572 160.402 366.063 160.675C365.985 160.715 365.946 160.715 365.867 160.675C365.75 160.636 365.711 160.48 365.75 160.362C366.376 159.11 367.002 157.898 367.511 156.606C368.019 155.315 368.332 153.907 368.724 152.577C368.724 152.538 368.724 152.498 368.724 152.42C368.684 152.303 368.567 152.225 368.45 152.264C368.176 152.381 367.785 152.498 367.472 152.616C367.432 152.616 367.393 152.616 367.315 152.616C367.198 152.577 367.119 152.459 367.159 152.342C367.55 151.051 368.763 147.217 368.763 147.217C368.684 147.295 367.98 148.351 367.902 148.469C367.315 149.408 366.806 150.386 366.376 151.403C366.18 151.951 365.985 152.303 365.907 152.538C365.867 152.616 365.867 152.733 365.907 152.811C366.924 153.672 366.102 155.354 365.672 155.863C365.085 156.567 364.655 157.428 364.42 158.328C364.342 158.524 364.263 158.797 364.185 159.071C364.146 159.15 364.068 159.228 363.95 159.228C363.833 159.228 363.716 159.11 363.716 158.993C363.794 157.819 363.99 156.254 364.381 155.863C364.968 155.315 364.85 153.359 364.185 153.046C363.559 152.733 363.442 152.381 363.755 151.833C363.833 151.716 363.794 151.599 363.677 151.52L360.82 149.877C360.742 149.838 360.703 149.799 360.703 149.721C360.664 149.603 360.781 149.486 360.899 149.447C361.877 149.368 362.894 149.642 363.677 150.268C363.755 150.307 363.833 150.347 363.95 150.386C364.616 150.581 365.32 150.229 365.515 149.564C365.594 149.408 365.633 149.29 365.672 149.134C365.711 149.016 365.594 148.899 365.476 148.86C364.068 148.508 363.872 148.429 363.794 147.999V147.96C363.794 147.843 363.911 147.725 364.029 147.725C364.498 147.803 365.007 147.725 365.476 147.569C365.75 147.295 365.907 146.943 365.985 146.552C365.985 146.512 365.985 146.434 365.985 146.395C365.946 146.278 365.789 146.239 365.672 146.278C365.163 146.473 365.046 146.473 364.772 146.278C364.733 146.239 364.694 146.199 364.694 146.121C364.694 146.043 364.694 146.004 364.733 145.965C364.811 145.886 364.85 145.808 364.929 145.769C365.946 144.947 367.55 140.526 367.472 139.235C367.902 139.587 368.176 140.057 368.371 140.565C369.467 140.135 370.289 139.979 370.132 138.453L368.919 139.079C368.919 139.079 368.841 138.609 369.506 138.062C370.875 136.888 371.11 135.362 371.149 133.68C371.188 133.367 371.11 133.054 370.954 132.78C370.523 132.076 369.623 131.88 368.919 132.271C366.259 133.523 362.581 134.775 359.529 134.384H359.412C357.495 133.993 355.578 133.797 353.622 133.758C351.665 133.758 349.748 133.993 347.831 134.384H347.753C344.662 134.775 340.984 133.523 338.285 132.271C338.011 132.076 337.698 131.997 337.385 132.036C336.603 132.115 335.977 132.819 336.055 133.64C336.094 135.323 336.29 136.849 337.698 138.022C338.363 138.57 338.285 139.04 338.285 139.04L337.072 138.414C336.916 139.94 337.737 140.096 338.833 140.526C338.989 140.018 339.302 139.548 339.732 139.196C339.693 140.487 341.258 144.947 342.276 145.73C342.354 145.808 342.432 145.847 342.471 145.926C342.549 146.043 342.549 146.16 342.432 146.239C342.158 146.434 342.041 146.473 341.532 146.239C341.493 146.199 341.415 146.199 341.376 146.239C341.258 146.278 341.18 146.395 341.219 146.512C341.258 146.904 341.454 147.256 341.728 147.53C342.197 147.725 342.667 147.764 343.175 147.686H343.215C343.332 147.686 343.41 147.803 343.41 147.96C343.332 148.39 343.136 148.469 341.728 148.821C341.61 148.86 341.493 148.977 341.532 149.095C341.571 149.251 341.61 149.408 341.689 149.525C341.728 149.603 341.767 149.721 341.806 149.799C342.158 150.386 342.941 150.581 343.528 150.229C344.31 149.603 345.288 149.329 346.305 149.408C346.384 149.408 346.423 149.447 346.462 149.525C346.54 149.642 346.501 149.76 346.384 149.838L343.528 151.481C343.41 151.559 343.371 151.677 343.449 151.794C343.762 152.342 343.606 152.694 343.019 153.007C342.354 153.359 342.236 155.276 342.823 155.824C343.215 156.176 343.41 157.78 343.488 158.954C343.488 159.032 343.449 159.15 343.332 159.189C343.215 159.228 343.097 159.189 343.058 159.071C342.98 158.797 342.902 158.524 342.823 158.328C342.589 157.428 342.158 156.567 341.571 155.863C341.141 155.354 340.319 153.672 341.337 152.811C341.415 152.733 341.415 152.655 341.337 152.538C341.258 152.342 341.063 151.951 340.867 151.403C340.437 150.386 339.928 149.408 339.341 148.469C339.302 148.39 338.559 147.334 338.48 147.217C338.48 147.217 339.732 151.051 340.085 152.342C340.085 152.381 340.085 152.42 340.085 152.498C340.045 152.616 339.928 152.694 339.811 152.616C339.498 152.498 339.146 152.342 338.833 152.264C338.793 152.264 338.754 152.264 338.715 152.264C338.598 152.303 338.52 152.42 338.559 152.538C338.95 153.907 339.263 155.276 339.772 156.567C340.28 157.858 340.906 159.071 341.532 160.323C341.571 160.362 341.571 160.441 341.532 160.519C341.493 160.636 341.337 160.675 341.219 160.636C340.711 160.402 340.202 160.049 339.811 159.619C337.815 157.506 337.424 155.041 337.189 152.185C337.111 151.442 337.15 150.699 337.111 149.955C337.111 149.838 337.072 149.329 337.033 149.329C336.876 149.486 336.759 149.681 336.681 149.916C336.446 150.581 336.29 151.286 336.211 151.99C335.977 153.359 335.937 154.768 336.094 156.176C336.172 156.646 336.329 157.115 336.563 157.545C337.815 159.619 339.185 161.575 340.515 163.61C340.632 163.766 340.711 163.453 340.789 163.414L340.906 163.297C341.219 163.14 341.337 163.101 341.454 163.218C341.493 163.297 341.532 163.375 341.571 163.492C341.884 164.157 342.432 165.253 342.823 165.957C342.862 166.035 342.941 166.075 343.019 166.075C343.136 166.075 343.254 165.957 343.254 165.84C343.254 165.057 343.254 164.275 343.254 163.492C343.254 163.023 343.254 162.397 343.919 162.397C344.584 162.397 344.584 162.984 344.623 163.492C344.623 163.962 344.623 164.392 344.623 164.94C344.623 164.979 344.623 165.018 344.662 165.057C344.74 165.175 344.858 165.214 344.975 165.136C345.523 164.705 346.149 164.392 346.814 164.157C347.87 163.727 349.083 163.884 349.983 164.51L349.827 164.392C349.044 163.649 347.909 163.375 346.892 163.61C346.618 163.688 346.305 163.688 346.031 163.688C345.953 163.688 345.914 163.649 345.875 163.571C345.758 163.492 345.758 163.414 345.758 163.336C346.149 162.24 347.44 158.25 344.819 156.919C344.74 156.88 344.701 156.802 344.701 156.763C344.623 156.02 343.293 152.851 346.892 150.816C347.479 151.325 348.144 152.498 349.044 153.242C347.479 153.594 346.618 152.616 345.875 151.99C346.188 153.829 347.636 153.946 348.77 154.65C347.792 154.22 346.814 154.807 345.64 154.181C346.501 155.785 348.144 155.002 349.201 155.863C348.222 156.489 347.283 156.137 346.384 156.059C346.11 156.02 345.875 156.02 345.601 156.098C345.797 156.411 346.071 156.685 346.344 156.959C346.697 157.232 347.088 157.428 347.518 157.545C347.949 157.663 348.418 157.702 348.848 157.585C350.14 157.193 351.391 156.685 352.683 156.215C352.917 156.098 353.113 155.863 353.191 155.628C353.269 155.237 353.191 154.768 353.23 154.337C353.348 153.79 352.996 153.281 352.448 153.164C351.274 152.851 350.218 152.107 349.474 151.129C349.24 150.777 349.044 150.386 348.966 149.955C348.966 149.955 348.966 149.955 348.966 149.916C348.966 149.525 349.044 149.134 349.161 148.782C349.24 148.508 349.24 148.195 349.122 147.921L349.083 147.843L348.809 146.747C348.731 146.395 348.535 146.121 348.222 145.886C348.183 145.886 348.183 145.847 348.144 145.847C348.105 145.808 348.066 145.808 348.027 145.769C347.557 145.534 347.049 145.3 346.501 145.143C344.662 144.4 343.254 142.913 342.667 140.996C342.432 140.37 342.393 139.705 342.51 139.04C342.667 139.392 342.941 140.096 343.136 140.487C343.332 141.074 343.919 141.426 344.545 141.348C346.227 141.348 347.831 141.622 348.77 143.382C349.161 144.321 349.866 145.104 350.766 145.534C350.766 145.026 350.687 144.517 350.531 144.048C351.313 143.735 351 143.265 350.57 142.835C350.022 142.209 349.435 141.622 348.809 140.957C349.318 140.839 349.787 140.565 350.14 140.213H346.853C346.853 140.174 346.853 140.135 346.853 140.096C347.87 139.9 348.809 139.548 349.709 139.079C348.183 138.14 345.014 138.609 344.466 138.453C344.466 138.335 344.897 138.218 345.366 138.101C346.423 137.827 346.814 137.749 347.87 137.475C348.927 137.201 349.905 136.77 350.883 136.262H346.579C348.027 135.44 349.67 134.892 351.352 134.697C352.291 134.619 352.996 134.619 353.582 134.658V134.266V134.54C354.169 134.54 354.834 134.54 355.813 134.579C357.495 134.775 359.099 135.323 360.586 136.144H356.282C357.221 136.653 358.238 137.083 359.295 137.357C360.351 137.631 360.742 137.709 361.799 137.983C362.268 138.14 362.698 138.218 362.698 138.335C362.151 138.492 358.982 138.022 357.456 138.961C358.356 139.47 359.334 139.822 360.312 139.979C360.312 140.018 360.312 140.057 360.312 140.096H357.025C357.417 140.448 357.847 140.722 358.356 140.839C357.769 141.465 357.182 142.091 356.595 142.717C356.165 143.187 355.852 143.617 356.634 143.93C356.478 144.4 356.399 144.908 356.399 145.417C357.299 144.947 358.004 144.165 358.395 143.265C359.334 141.504 360.938 141.231 362.62 141.231C363.246 141.309 363.794 140.918 364.029 140.37C364.185 140.018 364.459 139.274 364.655 138.922C364.772 139.587 364.733 140.252 364.498 140.878C363.911 142.756 362.503 144.282 360.664 145.026C360.155 145.182 359.647 145.378 359.138 145.652C359.099 145.652 359.06 145.691 359.021 145.73L358.942 145.769C358.669 145.965 358.434 146.278 358.356 146.63L358.082 147.725L358.043 147.803C357.964 148.077 357.964 148.39 358.004 148.664C358.121 149.016 358.199 149.408 358.199 149.799C358.199 149.799 358.199 149.799 358.199 149.838C358.082 150.268 357.925 150.66 357.691 151.012C356.947 151.99 355.93 152.733 354.717 153.046C354.169 153.164 353.817 153.672 353.935 154.22C353.974 154.65 353.895 155.081 353.974 155.511C354.052 155.785 354.248 155.98 354.482 156.098C355.734 156.606 357.025 157.076 358.316 157.467C358.747 157.585 359.216 157.585 359.647 157.428C360.077 157.311 360.468 157.115 360.82 156.841C361.094 156.606 361.329 156.293 361.564 155.98C361.329 155.941 361.055 155.902 360.781 155.941C359.881 156.059 358.982 156.372 357.964 155.746C358.982 154.885 360.664 155.707 361.525 154.063C360.351 154.689 359.373 154.102 358.395 154.533C359.529 153.868 360.977 153.75 361.29 151.872C360.507 152.538 359.686 153.477 358.121 153.124C359.021 152.381 359.725 151.207 360.273 150.699C363.911 152.772 362.581 155.941 362.464 156.646C362.464 156.724 362.385 156.802 362.346 156.802C359.725 158.171 361.016 162.123 361.407 163.218C361.407 163.258 361.407 163.258 361.407 163.297C361.407 163.414 361.329 163.531 361.212 163.531C360.899 163.531 360.625 163.531 360.351 163.453C359.295 163.218 358.199 163.531 357.417 164.236L357.299 164.51C358.238 163.884 359.451 163.727 360.507 164.157C361.173 164.392 361.759 164.744 362.346 165.136C362.385 165.175 362.425 165.175 362.464 165.175C362.581 165.175 362.698 165.057 362.698 164.94C362.698 164.431 362.698 163.962 362.698 163.492C362.698 162.984 362.738 162.397 363.403 162.397C364.068 162.397 364.068 162.984 364.068 163.492C364.068 164.275 364.068 165.057 364.068 165.84C364.068 165.918 364.107 165.996 364.185 166.035C364.303 166.114 364.42 166.075 364.498 165.957C364.889 165.253 365.437 164.157 365.75 163.492C365.789 163.414 365.828 163.336 365.867 163.218C366.024 163.101 366.141 163.14 366.415 163.297L366.533 163.414C366.611 163.453 366.689 163.805 366.806 163.61C368.137 161.536 369.506 159.619 370.758 157.545C370.993 157.115 371.149 156.646 371.228 156.176C371.345 154.807 371.306 153.398 371.071 152.029ZM347.283 150.581C347.244 150.62 347.205 150.62 347.166 150.66L347.283 150.581ZM342.158 133.875C342.393 133.914 342.628 133.953 342.823 134.032C342.628 133.993 342.393 133.914 342.158 133.875ZM343.841 135.245C342.98 135.127 342.471 134.697 341.141 134.853C340.828 134.892 340.554 134.971 340.28 135.166C340.867 135.479 342.941 136.379 342.902 136.418C342.667 136.34 341.493 136.105 341.18 135.988C341.376 136.849 340.945 138.961 342.628 142.404C343.254 143.695 344.154 144.83 345.249 145.769C345.405 145.886 345.523 145.965 345.679 146.043C341.884 144.517 341.219 140.565 340.437 138.688C340.437 138.688 340.437 138.688 340.437 138.648C340.437 138.609 340.398 138.57 340.358 138.531L339.889 137.67C339.263 136.301 338.676 133.953 341.845 134.188L345.562 135.088C345.014 135.245 344.427 135.284 343.841 135.245ZM364.381 134.032C364.616 133.953 364.85 133.914 365.085 133.875C364.85 133.914 364.616 133.993 364.381 134.032ZM361.955 145.73C363.051 144.791 363.95 143.656 364.576 142.365C366.259 138.961 365.828 136.81 366.024 135.949C365.711 136.066 364.537 136.34 364.303 136.418C364.303 136.34 366.376 135.44 366.963 135.166C366.689 135.01 366.415 134.892 366.102 134.853C364.772 134.697 364.263 135.127 363.403 135.245C362.816 135.284 362.229 135.245 361.681 135.127L365.398 134.227C368.567 133.993 367.98 136.301 367.354 137.709L366.846 138.57C366.806 138.609 366.806 138.648 366.767 138.688C366.767 138.688 366.767 138.688 366.767 138.727C365.985 140.605 365.32 144.556 361.525 146.082C361.642 145.926 361.799 145.808 361.955 145.73Z" fill="#D71920"/>
<path d="M358.356 161.693C358.708 161.419 359.295 161.771 359.686 162.006C360.077 162.241 360.312 162.71 360.664 162.984C360.507 160.676 358.238 158.641 354.756 158.446C354.365 158.407 353.974 158.407 353.622 158.407C353.269 158.407 352.878 158.446 352.487 158.446C349.005 158.641 346.697 160.676 346.54 162.984C346.892 162.71 347.166 162.241 347.518 162.006C347.909 161.771 348.496 161.419 348.848 161.693C349.083 161.85 348.848 162.632 348.966 163.102C351.118 164.393 353.661 164.275 353.582 162.789C353.504 164.275 356.047 164.393 358.199 163.102C358.356 162.632 358.121 161.85 358.356 161.693Z" fill="#D71920"/>
<path d="M347.87 143.657C347.636 143.305 347.283 143.07 346.892 142.914C346.11 142.601 345.914 142.562 345.914 143.227C345.914 143.774 345.875 144.4 346.736 144.674C347.205 144.831 347.831 144.127 347.87 143.657Z" fill="#D71920"/>
<path d="M360.547 144.674C361.407 144.4 361.368 143.774 361.368 143.227C361.368 142.562 361.173 142.64 360.39 142.914C359.999 143.07 359.647 143.305 359.412 143.657C359.412 144.127 360.038 144.831 360.547 144.674Z" fill="#D71920"/>
<path d="M488.731 55.0391H505.541V58.8456H493.111V64.4039H501.398V68.2105H493.111V74.4088H505.912V78.2154H488.731V55.0391Z" fill="white"/>
<path d="M505.541 61.7434H510.021L513.929 73.2305L517.533 61.7434H521.879L515.883 78.2161H511.874L505.541 61.7434Z" fill="white"/>
<path d="M522.014 70.03C522.014 65.0107 525.517 61.4399 530.503 61.4399C535.455 61.4399 538.958 65.0107 538.958 70.03C538.958 74.9819 535.387 78.5527 530.402 78.5527C525.45 78.5527 522.014 75.0493 522.014 70.03ZM534.545 70.1311V69.9963C534.545 66.8635 532.995 64.977 530.503 64.977C527.942 64.977 526.427 66.8635 526.427 69.9963V70.1311C526.427 73.1965 527.909 75.0156 530.435 75.0156C532.995 75.0156 534.545 73.1965 534.545 70.1311Z" fill="white"/>
<path d="M546.133 54.7029H541.754V78.2161H546.133V54.7029Z" fill="white"/>
<path d="M549.435 71.6136V61.7434H553.78V71.3777C553.78 73.5674 554.824 74.8811 556.778 74.8811C559.035 74.8811 560.012 72.961 560.012 70.1313V61.7434H564.358V78.2161H560.012V75.8917C559.136 77.6098 557.62 78.553 555.498 78.553C551.725 78.553 549.435 75.8917 549.435 71.6136Z" fill="white"/>
<path d="M569.074 73.8373V65.2135H566.749V61.7438H569.074V58.611L573.318 56.2192V61.7101H576.552V65.2135H573.284V73.3994C573.284 74.2078 573.655 74.5447 574.463 74.5784H576.384V78.1828H573.049C569.848 78.0481 569.175 76.5996 569.074 73.8373Z" fill="white"/>
<path d="M579.348 55.1074H583.862V59.3519H579.348V55.1074ZM579.416 61.7437H583.795V78.2164H579.416V61.7437Z" fill="white"/>
<path d="M586.591 70.03C586.591 65.0107 590.094 61.4399 595.08 61.4399C600.031 61.4399 603.535 65.0107 603.535 70.03C603.535 74.9819 599.964 78.5527 594.979 78.5527C590.027 78.5527 586.591 75.0493 586.591 70.03ZM599.122 70.1311V69.9963C599.122 66.8635 597.572 64.977 595.08 64.977C592.519 64.977 591.004 66.8635 591.004 69.9963V70.1311C591.004 73.1965 592.486 75.0156 595.012 75.0156C597.539 75.0156 599.122 73.1965 599.122 70.1311Z" fill="white"/>
<path d="M606.52 61.5107H610.865V64.2056C611.741 62.2855 613.358 61.1738 615.682 61.1738C619.287 61.1738 621.409 63.5993 621.409 68.1132V78.0171H617.063V68.3491C617.063 66.0584 616.188 64.8457 614.166 64.8457C612.111 64.8457 610.831 66.53 610.831 69.5955V77.9834H606.486L606.52 61.5107Z" fill="white"/>
<path d="M478.558 57.1623C474.583 51.9746 467.442 50.4924 461.479 53.6926C463.803 58.914 465.555 65.045 477.008 65.4155C478.356 65.4492 479.838 65.4155 481.455 65.2808C481.219 61.9795 480.141 59.2846 478.558 57.1623Z" fill="white"/>
<path d="M476.436 67.8742C469.53 68.2111 466.296 70.7375 464.275 73.8367C463.096 75.6221 462.321 77.6433 461.479 79.5634C469.833 84.01 480.613 79.3276 481.455 67.9416C479.602 67.8068 477.918 67.7731 476.436 67.8742Z" fill="white"/>
</g>
<rect width="1100" height="2" fill="url(#paint12_linear_6_8810)"/>
</g>
<defs>
<linearGradient id="paint0_linear_6_8810" x1="579.533" y1="155.035" x2="758.845" y2="111.228" gradientUnits="userSpaceOnUse">
<stop stop-color="#21E418"/>
<stop offset="0.3" stop-color="#31B6E9"/>
<stop offset="0.9757" stop-color="#21E418"/>
</linearGradient>
<linearGradient id="paint1_linear_6_8810" x1="581.482" y1="163.015" x2="760.795" y2="119.208" gradientUnits="userSpaceOnUse">
<stop stop-color="#21E418"/>
<stop offset="0.3" stop-color="#31B6E9"/>
<stop offset="0.9757" stop-color="#21E418"/>
</linearGradient>
<linearGradient id="paint2_linear_6_8810" x1="582.113" y1="165.595" x2="761.425" y2="121.787" gradientUnits="userSpaceOnUse">
<stop stop-color="#21E418"/>
<stop offset="0.3" stop-color="#31B6E9"/>
<stop offset="0.9757" stop-color="#21E418"/>
</linearGradient>
<linearGradient id="paint3_linear_6_8810" x1="583.005" y1="169.247" x2="762.317" y2="125.44" gradientUnits="userSpaceOnUse">
<stop stop-color="#21E418"/>
<stop offset="0.3" stop-color="#31B6E9"/>
<stop offset="0.9757" stop-color="#21E418"/>
</linearGradient>
<linearGradient id="paint4_linear_6_8810" x1="583.464" y1="171.125" x2="762.776" y2="127.317" gradientUnits="userSpaceOnUse">
<stop stop-color="#21E418"/>
<stop offset="0.3" stop-color="#31B6E9"/>
<stop offset="0.9757" stop-color="#21E418"/>
</linearGradient>
<linearGradient id="paint5_linear_6_8810" x1="584.132" y1="173.86" x2="763.444" y2="130.053" gradientUnits="userSpaceOnUse">
<stop stop-color="#21E418"/>
<stop offset="0.3" stop-color="#31B6E9"/>
<stop offset="0.9757" stop-color="#21E418"/>
</linearGradient>
<linearGradient id="paint6_linear_6_8810" x1="585.311" y1="178.686" x2="764.623" y2="134.879" gradientUnits="userSpaceOnUse">
<stop stop-color="#21E418"/>
<stop offset="0.3" stop-color="#31B6E9"/>
<stop offset="0.9757" stop-color="#21E418"/>
</linearGradient>
<linearGradient id="paint7_linear_6_8810" x1="585.608" y1="179.901" x2="764.92" y2="136.094" gradientUnits="userSpaceOnUse">
<stop stop-color="#21E418"/>
<stop offset="0.3" stop-color="#31B6E9"/>
<stop offset="0.9757" stop-color="#21E418"/>
</linearGradient>
<linearGradient id="paint8_linear_6_8810" x1="586.438" y1="183.299" x2="765.75" y2="139.492" gradientUnits="userSpaceOnUse">
<stop stop-color="#21E418"/>
<stop offset="0.3" stop-color="#31B6E9"/>
<stop offset="0.9757" stop-color="#21E418"/>
</linearGradient>
<linearGradient id="paint9_linear_6_8810" x1="586.693" y1="184.345" x2="766.006" y2="140.538" gradientUnits="userSpaceOnUse">
<stop stop-color="#21E418"/>
<stop offset="0.3" stop-color="#31B6E9"/>
<stop offset="0.9757" stop-color="#21E418"/>
</linearGradient>
<linearGradient id="paint10_linear_6_8810" x1="587.606" y1="188.078" x2="766.918" y2="144.271" gradientUnits="userSpaceOnUse">
<stop stop-color="#21E418"/>
<stop offset="0.3" stop-color="#31B6E9"/>
<stop offset="0.9757" stop-color="#21E418"/>
</linearGradient>
<linearGradient id="paint11_linear_6_8810" x1="588.79" y1="192.928" x2="768.103" y2="149.12" gradientUnits="userSpaceOnUse">
<stop stop-color="#21E418"/>
<stop offset="0.3" stop-color="#31B6E9"/>
<stop offset="0.9757" stop-color="#21E418"/>
</linearGradient>
<linearGradient id="paint12_linear_6_8810" x1="0" y1="0" x2="1100" y2="0" gradientUnits="userSpaceOnUse">
<stop stop-color="#1A1A2A"/>
<stop offset="0.5" stop-color="#2E3045"/>
<stop offset="1" stop-color="#1A1A2A"/>
</linearGradient>
<clipPath id="clip0_6_8810">
<rect width="1100" height="172.942" fill="white"/>
</clipPath>
<clipPath id="clip1_6_8810">
<rect width="1076" height="130.941" fill="white" transform="translate(12 42.0005)"/>
</clipPath>
</defs>
</svg>
