<svg width="1076" height="49" viewBox="0 0 1076 49" fill="none" xmlns="http://www.w3.org/2000/svg">
<g clip-path="url(#clip0_6_6009)">
<g clip-path="url(#clip1_6_6009)">
<g opacity="0.5">
<path d="M24.072 11.46L17.3912 28.3117L14.6944 13.9724C14.388 12.3791 13.1315 11.46 11.7525 11.46H0.84268L0.689453 12.1647C2.92657 12.6549 5.47015 13.4515 7.00242 14.2788C7.95243 14.7997 8.22824 15.2286 8.53469 16.4542L13.6525 36.2167H20.4251L30.814 11.46H24.072Z" fill="white"/>
<path d="M74.8514 11.46H69.3659C68.1401 11.46 67.0981 12.1647 66.6384 13.2677L57.0157 36.2167H63.7578L65.1062 32.5093H73.3191L74.0853 36.2167H79.9999L74.8514 11.46ZM66.9449 27.4538L70.3159 18.1394L72.2465 27.4538H66.9449Z" fill="white"/>
<path d="M33.5721 11.46L28.2704 36.2167H34.6753L39.977 11.46H33.5721Z" fill="white"/>
<path d="M48.3738 18.3228C48.4045 17.4343 49.2319 16.4845 51.1013 16.2394C52.0207 16.1168 54.5642 16.0249 57.4143 17.3424L58.5481 12.103C57.0159 11.5515 55.0239 11 52.5416 11C46.198 11 41.7544 14.3703 41.7238 19.1808C41.6931 22.7349 44.9109 24.7265 47.3319 25.9215C49.8142 27.147 50.6723 27.913 50.6416 28.9854C50.611 30.6399 48.6497 31.3753 46.8109 31.4059C43.5931 31.4672 41.7238 30.548 40.2221 29.8433L39.0576 35.2665C40.5592 35.9406 43.3173 36.5534 46.198 36.584C52.94 36.584 57.3223 33.2443 57.353 28.0969C57.3836 21.6013 48.3126 21.2336 48.3738 18.3228Z" fill="white"/>
<g clip-path="url(#clip2_6_6009)">
<path d="M510.64 15.4502C509.256 14.4834 507.238 14 504.529 14H497.495L494.843 28.9245H485.619L486.195 25.5408H491.787L492.422 21.7341H486.829L487.406 18.3505H493.171L493.921 14H482.275L479.796 28.139H475.529L478.066 14H471.955L469.476 28.139H465.325L467.804 14H461.75L459.098 28.9245H449.816L450.393 25.5408H455.985L456.619 21.7341H451.027L451.603 18.3505H457.426L458.233 14H421.912L419.836 25.8429L415.743 14H409.401L406 33.3353H412.053L414.071 21.1299L418.107 33.3353H439.727L442.321 18.3505H445.723L443.071 33.3353H499.974L501.646 23.9094L504.298 33.3353H510.352L507.584 25.6616L508.219 25.5408C509.602 25.2387 510.698 24.574 511.447 23.5468C512.197 22.5196 512.6 21.2508 512.6 19.6798C512.6 17.7462 511.966 16.4169 510.64 15.4502ZM434.48 28.9245H425.256L425.832 25.5408H431.655L432.29 21.7341H426.524L427.101 18.4109H436.325L434.48 28.9245ZM505.682 22.3988C505.048 22.8218 504.183 23.0634 502.972 23.0634H502.453H501.761L502.684 17.8671H503.145H503.549C504.529 17.8671 505.278 18.0483 505.797 18.3505C506.201 18.5921 506.662 19.136 506.662 20.1631C506.662 21.432 506.143 22.0967 505.682 22.3988Z" fill="white"/>
<path d="M516.982 31.4018C516.924 31.3414 516.867 31.281 516.751 31.281C517.039 31.2205 517.212 31.0997 517.328 30.9788C517.443 30.7976 517.501 30.6163 517.501 30.435C517.501 30.2538 517.443 30.1329 517.385 30.0121C517.27 29.8912 517.212 29.7704 517.039 29.7704C516.924 29.71 516.694 29.71 516.463 29.71L515.195 29.7704L515.368 32.7915H515.771L515.713 31.4622H516.175C516.29 31.4622 516.348 31.4622 516.405 31.4622C516.463 31.4622 516.521 31.5227 516.578 31.5227C516.636 31.5831 516.694 31.6435 516.809 31.7039C516.867 31.8248 516.982 31.9456 517.097 32.1269L517.501 32.7311H517.962L517.443 31.9456C517.212 31.6435 517.097 31.5226 516.982 31.4018ZM516.463 30.9788L515.656 31.0393L515.598 30.0121L516.521 29.9517C516.751 29.9517 516.867 29.9517 516.982 30.0725C517.097 30.1329 517.155 30.2538 517.155 30.435C517.155 30.5559 517.155 30.6163 517.097 30.7372C517.039 30.7976 516.982 30.9184 516.867 30.9184C516.751 30.9184 516.636 30.9788 516.463 30.9788Z" fill="white"/>
<path d="M516.175 28.3203C515.425 28.3807 514.791 28.6828 514.33 29.2266C513.869 29.7704 513.58 30.4955 513.638 31.281C513.696 32.852 514.964 34.0605 516.463 34C517.962 33.9396 519.115 32.6103 519 31.0393C518.942 29.4683 517.674 28.2599 516.175 28.3203ZM516.405 33.5167C515.195 33.5771 514.099 32.6103 514.041 31.281C513.984 30.6768 514.214 30.0725 514.618 29.5892C515.022 29.1058 515.598 28.8641 516.175 28.8037C517.385 28.7432 518.481 29.71 518.538 31.0393C518.538 31.0997 518.538 31.0997 518.538 31.1602C518.538 32.3686 517.616 33.4562 516.405 33.5167Z" fill="white"/>
</g>
<path d="M575.134 21.8805C574.368 21.8295 572.633 21.7277 572.633 20.149C572.633 18.2648 575.134 18.2648 576.103 18.2648C577.787 18.2648 579.93 18.7741 581.461 19.2324C581.461 19.2324 582.329 19.538 583.043 19.8435H583.094V19.7926V14.5983L582.992 14.5474C581.155 13.9363 579.063 13.3252 575.134 13.3252C568.398 13.3252 566 17.2973 566 20.6583C566 22.5934 566.816 27.1766 574.572 27.6858C575.236 27.7368 576.971 27.8386 576.971 29.4682C576.971 30.7922 575.542 31.607 573.144 31.607C570.541 31.607 567.99 30.945 566.408 30.283V35.63C568.704 36.2411 571.358 36.5466 574.419 36.5466C581.002 36.5466 583.962 32.8292 583.962 29.1626C583.962 24.9868 580.645 22.2369 575.134 21.8805Z" fill="white"/>
<path d="M611.363 19.2831C605.801 19.4358 602.995 21.9311 602.995 26.8708V36.3427H609.016V28.6022C609.016 25.6486 609.424 24.3755 612.894 24.2736V19.3849C612.333 19.2321 611.363 19.2831 611.363 19.2831Z" fill="white"/>
<path d="M617.742 17.9079C619.375 17.9079 620.701 16.5839 620.701 14.9543C620.701 13.3248 619.375 12.0007 617.742 12.0007C616.109 12.0007 614.782 13.3248 614.782 14.9543C614.782 16.5839 616.109 17.9079 617.742 17.9079Z" fill="white"/>
<path d="M595.085 19.487C594.932 19.8435 594.014 22.5425 591.667 25.3433V13.3252L585.492 14.5474V36.292H591.667V29.57C593.453 32.269 594.32 36.292 594.32 36.292H601.719C601.005 33.2366 597.79 27.6349 597.79 27.6349C600.647 24.0193 601.923 20.0981 602.127 19.487H595.085V19.487Z" fill="white"/>
<path d="M632.03 14.3946V36.292H638V13.3252L632.03 14.3946Z" fill="white"/>
<path d="M623.253 36.292H629.274V13.3252L623.253 14.3946V36.292Z" fill="white"/>
<path d="M620.752 19.4871H614.731V36.292H620.752V19.4871Z" fill="white"/>
<path d="M685 20.8268H694.446V13.7541L701.531 20.8268L694.446 28.2623V32.1312H703.105V20.8268H711.462V12.001H685V20.8268Z" fill="white"/>
<path d="M733.625 12.0007H718.304V15.8696H723.997V32.131H728.054V15.8696H733.625V12.0007Z" fill="white"/>
<path d="M737.318 19.7989V17.5017H733.685V32.1309H737.439V25.6022C737.439 22.3378 739.074 21.3101 740.952 21.3101H742.102V17.5017H740.709C739.438 17.5017 738.227 17.8644 737.318 19.7989Z" fill="white"/>
<path d="M753.002 25.9649C753.002 27.8389 751.791 29.0479 750.156 29.0479C748.46 29.0479 747.552 27.7784 747.552 25.9044V17.5017H743.858V26.8112C743.858 30.3778 745.917 32.4331 748.945 32.4331C750.761 32.4331 752.154 31.7077 753.062 30.2569V32.1309H756.635V17.5017H752.941V25.9649H753.002Z" fill="white"/>
<path d="M766.808 23.5468L763.659 22.761C762.872 22.5796 762.327 22.1565 762.327 21.4915C762.327 20.7056 763.175 20.1616 764.386 20.1616C766.142 20.1616 766.868 21.1288 766.99 22.0356L770.259 21.3101C770.017 19.6175 768.443 17.1995 764.446 17.1995C760.692 17.1995 758.694 19.1944 758.694 21.6728C758.694 24.0909 759.965 25.4208 762.69 26.0858L765.052 26.6298C766.445 26.9925 766.808 27.4157 766.808 28.0202C766.808 28.8061 766.021 29.4106 764.567 29.4106C762.872 29.4106 761.782 28.5643 761.661 27.2344L758.391 27.9598C758.573 29.7733 760.207 32.3727 764.567 32.3727C768.564 32.3727 770.441 30.0756 770.441 27.718C770.441 25.6022 769.291 24.1513 766.808 23.5468Z" fill="white"/>
<path d="M777.829 27.2342V20.8868H780.675V17.5016H777.829V13.0886L774.074 14.1767V17.5016H771.652V20.8868H774.074V28.0201C774.074 30.6799 775.649 32.1307 778.192 32.1307H780.978V28.7455H779.464C778.374 28.7455 777.829 28.3223 777.829 27.2342Z" fill="white"/>
<path d="M787.093 12.0007H783.339V32.131H787.093V12.0007Z" fill="white"/>
<path d="M799.204 17.5017L795.753 28.9874L792.543 17.5017H788.547L792.665 32.1309H794.723L793.028 37.3297H797.024L803.201 17.5017H799.204Z" fill="white"/>
<path d="M874.697 15.4364C874.417 15.7107 874.08 15.9851 873.799 16.2594C872.732 17.2469 871.946 18.3442 871.666 19.7707C871.273 21.7458 871.666 23.5015 872.901 25.1474C873.518 25.9704 874.248 26.6287 875.203 27.0128C875.315 27.0677 875.427 27.1225 875.596 27.1225C875.484 27.4517 875.371 27.7809 875.203 28.1101C874.417 29.9755 873.406 31.6763 872.003 33.2125C871.722 33.4868 871.441 33.7611 871.16 33.9806C870.15 34.8035 868.971 35.0779 867.735 34.7487C867.118 34.5841 866.444 34.3646 865.827 34.1452C865.153 33.9257 864.479 33.7611 863.805 33.7611C862.963 33.7611 862.121 33.9806 861.335 34.2549C860.717 34.4744 860.1 34.6938 859.482 34.8584C858.528 35.0779 857.629 34.8035 856.787 34.2549C855.945 33.7062 855.327 32.993 854.766 32.2249C853.306 30.2498 852.239 28.1101 851.566 25.8058C851.004 23.7209 850.836 21.6361 851.173 19.4964C851.453 17.631 852.183 15.9302 853.531 14.5586C854.934 13.1321 856.619 12.5286 858.64 12.6932C859.651 12.8029 860.605 13.0773 861.559 13.3516C861.952 13.4613 862.346 13.571 862.795 13.6259C863.356 13.7905 863.974 13.6808 864.479 13.571C865.265 13.3516 866.051 13.0773 866.837 12.8578C868.016 12.5286 869.195 12.4189 870.43 12.6383C872.003 12.9127 873.238 13.7356 874.248 14.8878C874.361 15.0524 874.529 15.1621 874.641 15.3267C874.697 15.3816 874.697 15.3816 874.697 15.4364Z" fill="white"/>
<path d="M868.802 5.99976C868.802 6.32894 868.858 6.65813 868.858 6.98731C868.746 8.68811 868.072 10.1694 866.837 11.3765C866.276 11.9251 865.714 12.4189 864.928 12.6932C864.311 12.9127 863.637 12.9675 862.963 13.0224C862.963 13.0224 862.963 13.0224 862.907 13.0224C863.075 9.23675 864.984 6.76786 868.802 5.99976Z" fill="white"/>
<path d="M883.063 10.4987C884.635 10.2243 886.656 10.0049 889.239 10.0049C892.439 10.0049 894.741 10.7181 896.201 12.0349C897.548 13.187 898.391 14.9427 898.391 17.1372C898.391 19.3318 897.717 21.0875 896.482 22.3494C894.797 24.105 891.99 25.0377 888.846 25.0377C887.891 25.0377 886.993 24.9828 886.263 24.8183V34.5841H883.063V10.4987ZM886.263 22.2396C886.993 22.4042 887.835 22.514 888.902 22.514C892.776 22.514 895.134 20.6486 895.134 17.3018C895.134 14.0648 892.832 12.5286 889.239 12.5286C887.835 12.5286 886.769 12.6384 886.207 12.803V22.2396H886.263Z" fill="white"/>
<path d="M910.013 34.5845L909.732 32.3899H909.62C908.609 33.7615 906.7 34.9686 904.174 34.9686C900.524 34.9686 898.728 32.4997 898.728 29.921C898.728 25.6965 902.546 23.3922 909.508 23.447V23.063C909.508 21.6365 909.115 19.003 905.465 19.003C903.781 19.003 902.04 19.4968 900.805 20.3198L900.075 18.2349C901.535 17.3022 903.725 16.6987 905.971 16.6987C911.417 16.6987 912.764 20.3198 912.764 23.8311V30.36C912.764 31.8962 912.82 33.3775 913.045 34.5296H910.013V34.5845ZM909.508 25.6416C905.971 25.5868 901.928 26.1903 901.928 29.5919C901.928 31.6767 903.332 32.6094 905.016 32.6094C907.318 32.6094 908.834 31.1829 909.339 29.7016C909.452 29.3724 909.508 28.9883 909.508 28.714V25.6416Z" fill="white"/>
<path d="M916.975 17.0822L920.905 27.3967C921.298 28.5489 921.747 29.9205 922.028 30.9629H922.084C922.421 29.9205 922.814 28.6037 923.207 27.3418L926.744 17.0822H930.169L925.284 29.5364C922.982 35.5166 921.354 38.589 919.165 40.4544C917.592 41.826 915.964 42.3747 915.178 42.5393L914.392 39.8509C915.178 39.5766 916.301 39.0828 917.256 38.3147C918.154 37.6015 919.277 36.3945 920.007 34.7485C920.175 34.4193 920.287 34.145 920.287 33.9804C920.287 33.8158 920.231 33.5415 920.063 33.1575L913.438 17.0273H916.975V17.0822Z" fill="white"/>
<path d="M1006.6 30.0707C1005.8 30.6134 1005.01 30.8601 1004.11 30.8601C1003.17 30.8601 1002.32 30.5147 1001.67 29.7746C1001.03 29.0345 1000.68 28.1464 1000.68 27.061C1000.68 26.0249 1001.03 25.1368 1001.67 24.3967C1002.37 23.6566 1003.17 23.3113 1004.11 23.3113C1004.41 23.3113 1004.71 23.3606 1005.01 23.4593C1005.3 23.558 1005.55 23.6566 1005.85 23.854L1001.77 26.6663L1003.66 29.4786L1011.17 24.3967C1010.38 22.8179 1009.33 21.6337 1008.09 20.795C1006.85 19.9562 1005.4 19.5615 1003.86 19.5615C1002.82 19.5615 1001.82 19.7589 1000.88 20.1536C999.932 20.5483 999.087 21.1404 998.341 21.8804C997.595 22.6699 996.998 23.5086 996.6 24.4954C996.202 25.4822 996.003 26.4689 996.003 27.5544C996.003 28.6398 996.202 29.6759 996.6 30.6134C996.998 31.6002 997.595 32.4389 998.341 33.2283C999.087 33.9684 999.932 34.5605 1000.88 34.9552C1001.82 35.3499 1002.82 35.5472 1003.86 35.5472C1005.75 35.5472 1007.39 35.0045 1008.88 33.9684C1010.38 32.9323 1011.52 31.4521 1012.32 29.5279L1008.59 27.7517C1008.04 28.7878 1007.39 29.5279 1006.6 30.0707Z" fill="white"/>
<path d="M1026.29 21.8804C1025.55 21.1404 1024.7 20.5483 1023.71 20.1536C1022.76 19.7589 1021.72 19.5615 1020.67 19.5615C1019.63 19.5615 1018.63 19.7589 1017.64 20.1536C1016.69 20.5483 1015.85 21.1404 1015.05 21.8804C1014.26 22.6699 1013.71 23.558 1013.31 24.4954C1012.91 25.4328 1012.71 26.4689 1012.71 27.5544C1012.71 28.6398 1012.91 29.6266 1013.31 30.6134C1013.71 31.5508 1014.31 32.4389 1015.05 33.2283C1015.8 33.9684 1016.64 34.5605 1017.64 34.9552C1018.63 35.3499 1019.58 35.5472 1020.67 35.5472C1021.77 35.5472 1022.76 35.3499 1023.71 34.9552C1024.65 34.5605 1025.55 33.9684 1026.29 33.2283C1027.04 32.4882 1027.63 31.6002 1028.03 30.6134C1028.43 29.6266 1028.63 28.6398 1028.63 27.5544C1028.63 26.4689 1028.43 25.4328 1028.03 24.4954C1027.63 23.5086 1027.09 22.6205 1026.29 21.8804ZM1022.76 29.7746C1022.16 30.416 1021.47 30.7121 1020.67 30.7121C1019.88 30.7121 1019.18 30.416 1018.63 29.7746C1018.09 29.1332 1017.79 28.3931 1017.79 27.505C1017.79 26.6169 1018.09 25.8769 1018.63 25.2355C1019.18 24.5941 1019.88 24.298 1020.67 24.298C1021.47 24.298 1022.16 24.5941 1022.76 25.2355C1023.36 25.8769 1023.61 26.6169 1023.61 27.505C1023.66 28.3931 1023.36 29.1332 1022.76 29.7746Z" fill="white"/>
<path d="M989.14 15.0222V25.5314C989.041 25.2847 984.863 17.1931 984.863 17.1931C984.167 15.9103 983.57 15.0222 983.023 14.5782C982.476 14.1341 981.829 13.8875 981.034 13.8875C980.089 13.8875 979.343 14.2328 978.796 14.8742C978.298 15.565 978 16.4531 978 17.5385V35.2511H982.277C982.625 35.2511 982.923 34.955 982.923 34.6097V22.6204C983.222 23.3111 988.394 33.0308 988.394 33.0308C988.941 34.0176 989.439 34.7083 989.886 35.0537C990.334 35.3991 990.881 35.5964 991.527 35.5964C992.273 35.5964 992.92 35.3498 993.368 34.807C993.815 34.2643 994.064 33.5736 994.064 32.7348V14.3315H989.787C989.439 14.3315 989.14 14.6275 989.14 15.0222Z" fill="white"/>
<path d="M1036.44 26.0755L1034.45 25.1874C1034.35 25.1381 1034.25 25.0888 1034.15 24.9407C1034.05 24.8421 1034.05 24.6941 1034.05 24.5954C1034.05 24.4474 1034.1 24.2993 1034.25 24.1513C1034.4 24.0526 1034.55 24.0033 1034.8 24.0033H1038.73C1039.07 24.0033 1039.37 23.7073 1039.37 23.3619V20.5496C1039.37 20.2042 1039.07 19.9082 1038.73 19.9082H1034.6C1032.86 19.9082 1031.71 20.3029 1030.72 21.043C1029.72 21.7831 1029.28 22.8685 1029.28 24.1513C1029.28 25.1874 1029.57 26.0755 1030.22 26.865C1030.87 27.605 1031.61 28.2958 1032.91 28.7892L1035 29.7266C1035.09 29.7759 1035.24 29.8746 1035.29 29.9733C1035.39 30.072 1035.39 30.22 1035.39 30.3187C1035.39 30.516 1035.34 30.664 1035.19 30.7627C1035.04 30.8614 1034.85 30.9107 1034.55 30.9107H1030.02C1029.67 30.9107 1029.38 31.2068 1029.38 31.5521V34.6111C1029.38 34.9565 1029.67 35.2525 1030.02 35.2525H1034C1035.49 35.2525 1036.59 35.2032 1037.18 35.0552C1037.78 34.9072 1038.33 34.7098 1038.82 34.4138C1039.42 34.0191 1039.72 33.4763 1040.07 32.8843C1040.42 32.2922 1040.57 31.6015 1040.57 30.8614C1040.57 29.7759 1040.22 28.8878 1039.57 28.1478C1038.82 27.3583 1037.93 26.7169 1036.44 26.0755Z" fill="white"/>
<path d="M1054.14 19.8584H1050.46C1050.11 19.8584 1049.82 20.1544 1049.82 20.4998V28.9367C1049.82 29.8248 1049.12 30.6142 1048.22 30.6636C1047.23 30.7129 1046.43 29.9728 1046.43 28.9861V20.4998C1046.43 20.1544 1046.14 19.8584 1045.79 19.8584H1042.11C1041.76 19.8584 1041.46 20.1544 1041.46 20.4998V28.8874C1041.46 32.5384 1044.44 35.5481 1048.17 35.5481C1051.85 35.5481 1054.89 32.5878 1054.89 28.8874V20.4998C1054.79 20.1544 1054.49 19.8584 1054.14 19.8584Z" fill="white"/>
<path d="M1064.59 19.9075C1063.94 20.0061 1063.34 20.1542 1062.85 20.4008C1062.05 20.7956 1061.45 21.3383 1060.96 22.177V20.5489C1060.96 20.2035 1060.66 19.9075 1060.31 19.9075H1057.18C1056.83 19.9075 1056.53 20.2035 1056.53 20.5489V34.6597C1056.53 35.0051 1056.83 35.3011 1057.18 35.3011H1060.76C1061.11 35.3011 1061.4 35.0051 1061.4 34.6597V29.1338C1061.4 27.3576 1061.65 25.9268 1062.4 25.1867C1062.95 24.644 1063.64 24.5453 1064.74 24.5453C1065.08 24.5453 1065.38 24.2493 1065.38 23.9039V20.5982C1065.33 20.1542 1064.98 19.8581 1064.59 19.9075Z" fill="white"/>
<path d="M1074.43 13.0002H1073.49C1071 13.0002 1069.16 13.543 1068.02 14.5791C1066.82 15.6152 1066.28 17.2927 1066.28 19.5129V35.252H1071.35V24.1014H1073.84C1074.19 24.1014 1074.48 23.8054 1074.48 23.46V20.1543C1074.48 19.809 1074.19 19.5129 1073.84 19.5129H1071.35V19.2169C1071.35 18.6248 1071.5 18.2301 1071.75 18.0328C1072 17.7861 1072.44 17.6874 1073.09 17.6874H1074.43C1074.78 17.6874 1075.08 17.3914 1075.08 17.046V13.6416C1075.08 13.2963 1074.78 13.0002 1074.43 13.0002Z" fill="white"/>
<path d="M138.442 48.5396V45.2947C138.442 44.0778 137.673 43.2666 136.407 43.2666C135.729 43.2666 135.05 43.4469 134.598 44.168C134.236 43.5821 133.694 43.2666 132.879 43.2666C132.337 43.2666 131.794 43.4469 131.387 44.0328V43.4018H130.256V48.5396H131.387V45.7003C131.387 44.7989 131.884 44.3482 132.653 44.3482C133.422 44.3482 133.784 44.844 133.784 45.7003V48.5847H134.915V45.7454C134.915 44.844 135.412 44.3933 136.181 44.3933C136.95 44.3933 137.312 44.8891 137.312 45.7454V48.6298H138.442V48.5396ZM155.266 43.4018H153.412V41.8244H152.282V43.4018H151.241V44.4384H152.282V46.782C152.282 47.9988 152.734 48.6749 154.091 48.6749C154.588 48.6749 155.131 48.5396 155.493 48.2692L155.176 47.3228C154.859 47.5031 154.452 47.5932 154.181 47.5932C153.638 47.5932 153.412 47.2326 153.412 46.7369V44.3933H155.266V43.4018V43.4018ZM164.854 43.2666C164.221 43.2666 163.769 43.5821 163.498 44.0328V43.4018H162.367V48.5396H163.498V45.6552C163.498 44.7989 163.859 44.3482 164.583 44.3482C164.809 44.3482 165.035 44.3933 165.307 44.4834L165.668 43.4469C165.397 43.3116 165.081 43.2666 164.854 43.2666ZM150.337 43.8074C149.794 43.4469 149.07 43.2666 148.256 43.2666C146.945 43.2666 146.086 43.8975 146.086 44.9341C146.086 45.7904 146.719 46.2862 147.849 46.4665L148.392 46.5566C149.025 46.6468 149.297 46.782 149.297 47.0974C149.297 47.5031 148.89 47.7284 148.121 47.7284C147.352 47.7284 146.764 47.458 146.402 47.1876L145.859 48.0439C146.493 48.4946 147.261 48.7199 148.121 48.7199C149.613 48.7199 150.472 47.9988 150.472 47.0524C150.472 46.151 149.794 45.6552 148.663 45.52L148.121 45.4299C147.623 45.3848 147.261 45.2496 147.261 44.9341C147.261 44.5736 147.623 44.3482 148.256 44.3482C148.935 44.3482 149.568 44.6186 149.885 44.7989L150.337 43.8074ZM180.503 43.2666C179.87 43.2666 179.417 43.5821 179.146 44.0328V43.4018H178.015V48.5396H179.146V45.6552C179.146 44.7989 179.508 44.3482 180.231 44.3482C180.457 44.3482 180.684 44.3933 180.955 44.4834L181.317 43.4469C181.045 43.3116 180.729 43.2666 180.503 43.2666ZM165.985 45.9707C165.985 47.5481 167.07 48.6749 168.744 48.6749C169.513 48.6749 170.055 48.4946 170.598 48.0439L170.055 47.1425C169.648 47.458 169.196 47.5932 168.699 47.5932C167.794 47.5932 167.161 46.9172 167.161 45.9256C167.161 44.9341 167.839 44.3032 168.699 44.2581C169.196 44.2581 169.648 44.4384 170.055 44.7088L170.598 43.8074C170.055 43.3567 169.513 43.1764 168.744 43.1764C167.07 43.2666 165.985 44.4384 165.985 45.9707ZM176.523 45.9707V43.4018H175.392V44.0328C175.03 43.5821 174.488 43.2666 173.764 43.2666C172.317 43.2666 171.186 44.3933 171.186 45.9707C171.186 47.5481 172.317 48.6749 173.764 48.6749C174.488 48.6749 175.03 48.4044 175.392 47.9087V48.5396H176.523V45.9707ZM172.362 45.9707C172.362 45.0693 172.95 44.3032 173.945 44.3032C174.895 44.3032 175.483 45.0243 175.483 45.9707C175.483 46.9172 174.849 47.6383 173.945 47.6383C172.95 47.6383 172.362 46.8721 172.362 45.9707ZM158.749 43.2666C157.256 43.2666 156.171 44.3482 156.171 45.9707C156.171 47.5932 157.256 48.6749 158.839 48.6749C159.608 48.6749 160.332 48.4946 160.965 47.9538L160.422 47.1425C159.97 47.5031 159.427 47.6833 158.93 47.6833C158.206 47.6833 157.528 47.3679 157.392 46.4214H161.236C161.236 46.2862 161.236 46.151 161.236 45.9707C161.236 44.3933 160.241 43.2666 158.749 43.2666ZM158.749 44.3032C159.472 44.3032 159.925 44.7539 160.06 45.5651H157.392C157.483 44.7989 157.935 44.3032 158.749 44.3032ZM186.97 45.9707V41.3286H185.839V44.0328C185.478 43.5821 184.935 43.2666 184.211 43.2666C182.764 43.2666 181.633 44.3933 181.633 45.9707C181.633 47.5481 182.764 48.6749 184.211 48.6749C184.935 48.6749 185.478 48.4044 185.839 47.9087V48.5396H186.97V45.9707ZM182.764 45.9707C182.764 45.0693 183.352 44.3032 184.347 44.3032C185.297 44.3032 185.885 45.0243 185.885 45.9707C185.885 46.9172 185.251 47.6383 184.347 47.6383C183.352 47.6383 182.764 46.8721 182.764 45.9707ZM144.819 45.9707V43.4018H143.689V44.0328C143.327 43.5821 142.784 43.2666 142.06 43.2666C140.613 43.2666 139.482 44.3933 139.482 45.9707C139.482 47.5481 140.613 48.6749 142.06 48.6749C142.784 48.6749 143.327 48.4044 143.689 47.9087V48.5396H144.819V45.9707ZM140.613 45.9707C140.613 45.0693 141.201 44.3032 142.196 44.3032C143.146 44.3032 143.734 45.0243 143.734 45.9707C143.734 46.9172 143.101 47.6383 142.196 47.6383C141.201 47.6383 140.613 46.8721 140.613 45.9707Z" fill="white"/>
<path d="M167.025 4.14624H149.975V34.6579H167.025V4.14624Z" fill="#EBEBEB"/>
<path d="M151.06 19.3794C151.06 13.205 153.955 7.66148 158.477 4.1461C155.176 1.5321 151.015 -0.000244141 146.447 -0.000244141C135.729 -0.000244141 127 8.69806 127 19.3794C127 30.1058 135.729 38.7591 146.447 38.7591C150.97 38.7591 155.176 37.2267 158.477 34.6127C153.955 31.0973 151.06 25.5989 151.06 19.3794Z" fill="#DBDBDB"/>
<path d="M190 19.3797C190 30.1061 181.271 38.7593 170.553 38.7593C166.03 38.7593 161.824 37.227 158.522 34.613C163.045 31.0976 165.94 25.5992 165.94 19.3797C165.94 13.1601 163.045 7.66172 158.522 4.14634C161.824 1.53234 165.985 0 170.553 0C181.271 0 190 8.69831 190 19.3797Z" fill="white"/>
</g>
<path d="M261.087 17.5689C260.728 17.1543 260.285 16.8226 259.76 16.5462C259.456 16.3804 259.124 16.2421 258.765 16.1316C258.682 16.1039 258.572 16.0763 258.489 16.0487C258.295 15.9934 258.102 15.9381 257.908 15.9104C257.715 15.8552 257.494 15.8275 257.3 15.7999C256.581 15.6893 255.752 15.634 254.895 15.634H247.653C247.487 15.634 247.294 15.6617 247.156 15.7446C246.824 15.9104 246.575 16.2145 246.52 16.6015L243.148 37.9683C243.092 38.3829 243.396 38.7699 243.839 38.7699H248.621C249.201 38.7699 249.671 38.3553 249.754 37.8025L250.777 31.5002C250.86 30.9474 251.357 30.5328 251.91 30.5328H252.629C257.3 30.5328 260.949 28.6255 262.027 23.1525C262.497 20.8306 262.248 18.9234 261.087 17.5689Z" fill="white"/>
<path d="M283.394 21.9913C283.034 24.4237 281.182 24.4237 279.386 24.4237H278.363L279.082 19.8905C279.137 19.6141 279.358 19.4206 279.635 19.4206H280.104C281.321 19.4206 282.482 19.4206 283.062 20.1116C283.421 20.5263 283.532 21.1344 283.394 21.9913ZM282.62 15.6614H275.875C275.405 15.6614 275.018 15.9931 274.935 16.463L272.199 33.7665C272.144 34.0982 272.42 34.4023 272.752 34.4023H275.986C276.456 34.4023 276.843 34.0706 276.926 33.6007L277.672 28.9293C277.755 28.4594 278.142 28.1277 278.584 28.1277H280.713C285.163 28.1277 287.733 25.9716 288.397 21.7149C288.701 19.8629 288.397 18.3979 287.54 17.3475C286.573 16.2695 284.859 15.6614 282.62 15.6614Z" fill="white"/>
<path d="M298.292 28.1834C297.988 30.0354 296.523 31.2792 294.644 31.2792C293.704 31.2792 292.957 30.9752 292.46 30.3947C291.99 29.8419 291.797 29.0126 291.962 28.1281C292.266 26.3038 293.731 25.0046 295.583 25.0046C296.496 25.0046 297.242 25.3087 297.739 25.8892C298.237 26.4973 298.43 27.2989 298.292 28.1834ZM302.798 21.9088H299.564C299.287 21.9088 299.039 22.1023 299.011 22.3787L298.873 23.2909L298.652 22.9592C297.961 21.9364 296.385 21.6047 294.837 21.6047C291.271 21.6047 288.203 24.3136 287.623 28.1005C287.319 29.9801 287.761 31.8044 288.839 33.0759C289.834 34.2369 291.244 34.7068 292.902 34.7068C295.777 34.7068 297.38 32.8548 297.38 32.8548L297.242 33.7393C297.187 34.071 297.463 34.4027 297.795 34.4027H300.697C301.167 34.4027 301.554 34.071 301.637 33.6011L303.378 22.5445C303.406 22.2128 303.13 21.9088 302.798 21.9088Z" fill="white"/>
<path d="M319.991 21.9089H316.757C316.453 21.9089 316.149 22.0748 315.983 22.3236L311.505 28.9022L309.598 22.5723C309.487 22.1853 309.1 21.9089 308.686 21.9089H305.507C305.12 21.9089 304.843 22.2959 304.982 22.6553L308.547 33.159L305.175 37.9133C304.899 38.3003 305.175 38.7979 305.645 38.7979H308.879C309.183 38.7979 309.487 38.6596 309.653 38.3832L320.461 22.7935C320.71 22.4065 320.461 21.9089 319.991 21.9089Z" fill="white"/>
<path d="M331.517 21.9913C331.158 24.4237 329.306 24.4237 327.509 24.4237H326.487L327.205 19.8905C327.261 19.6141 327.482 19.4206 327.758 19.4206H328.228C329.444 19.4206 330.605 19.4206 331.186 20.1116C331.545 20.5263 331.656 21.1344 331.517 21.9913ZM330.744 15.6614H323.999C323.529 15.6614 323.142 15.9931 323.087 16.463L320.35 33.7665C320.295 34.0982 320.571 34.4023 320.903 34.4023H324.358C324.69 34.4023 324.966 34.1811 324.994 33.8494L325.768 28.9569C325.851 28.487 326.238 28.1553 326.68 28.1553H328.809C333.259 28.1553 335.83 25.9993 336.493 21.7425C336.797 19.8905 336.493 18.4255 335.636 17.3751C334.724 16.2695 333.01 15.6614 330.744 15.6614Z" fill="white"/>
<path d="M346.416 28.1834C346.112 30.0354 344.647 31.2792 342.768 31.2792C341.828 31.2792 341.081 30.9752 340.584 30.3947C340.114 29.8419 339.921 29.0126 340.086 28.1281C340.39 26.3038 341.883 25.0323 343.707 25.0323C344.62 25.0323 345.366 25.3363 345.863 25.9168C346.361 26.4973 346.554 27.2989 346.416 28.1834ZM350.922 21.9088H347.688C347.411 21.9088 347.163 22.1023 347.135 22.3787L346.997 23.2909L346.776 22.9592C346.085 21.9364 344.509 21.6047 342.961 21.6047C339.395 21.6047 336.327 24.3136 335.747 28.1005C335.443 29.9801 335.885 31.8044 336.963 33.0759C337.958 34.2369 339.368 34.7068 341.026 34.7068C343.901 34.7068 345.504 32.8548 345.504 32.8548L345.366 33.7393C345.311 34.071 345.587 34.4027 345.919 34.4027H348.821C349.291 34.4027 349.678 34.071 349.733 33.6011L351.475 22.5445C351.53 22.2128 351.281 21.9088 350.922 21.9088Z" fill="white"/>
<path d="M354.736 16.1316L351.972 33.7668C351.917 34.0985 352.193 34.4026 352.525 34.4026H355.317C355.786 34.4026 356.173 34.0709 356.256 33.601L358.993 16.2974C359.048 15.9657 358.772 15.634 358.44 15.634H355.317C355.012 15.6617 354.764 15.8552 354.736 16.1316Z" fill="white"/>
<path d="M258.489 11.2387C257.107 9.66315 254.619 8.99976 251.44 8.99976H242.18C241.517 8.99976 240.964 9.46966 240.881 10.1054L237.011 34.5681C236.928 35.038 237.315 35.4803 237.785 35.4803H243.507L244.944 26.3862L244.889 26.6626C245 26.0269 245.552 25.557 246.188 25.557H248.897C254.232 25.557 258.406 23.4009 259.622 17.1263C259.65 16.9328 259.677 16.767 259.705 16.5735C260.119 14.2516 259.76 12.6761 258.489 11.2387Z" fill="#EBEBEB"/>
<path d="M258.489 16.0487C258.295 15.9934 258.102 15.9381 257.908 15.9104C257.715 15.8552 257.494 15.8275 257.3 15.7999C256.581 15.6893 255.752 15.634 254.895 15.634H247.653C247.487 15.634 247.294 15.6617 247.156 15.7446C246.824 15.9104 246.575 16.2145 246.52 16.6015L244.972 26.3866L244.917 26.663C245.027 26.0272 245.58 25.5573 246.216 25.5573H248.925C254.26 25.5573 258.433 23.4013 259.65 17.1267C259.677 16.9332 259.705 16.7673 259.733 16.5738C259.429 16.408 259.097 16.2698 258.737 16.1592C258.655 16.1039 258.572 16.0763 258.489 16.0487Z" fill="#DBDBDB"/>
</g>
</g>
<defs>
<clipPath id="clip0_6_6009">
<rect width="1074.62" height="48.7202" fill="white" transform="translate(0.689453 -0.000244141)"/>
</clipPath>
<clipPath id="clip1_6_6009">
<rect width="1074.39" height="48.7202" fill="white" transform="translate(0.689453 -0.000244141)"/>
</clipPath>
<clipPath id="clip2_6_6009">
<rect width="113" height="20" fill="white" transform="translate(406 14)"/>
</clipPath>
</defs>
</svg>
