<svg width="419" height="21" viewBox="0 0 419 21" fill="none" xmlns="http://www.w3.org/2000/svg">
<path d="M0.52002 19.9998V0.399842H12.14V2.69584H3.18002V8.68784H10.656V10.8718H3.18002V19.9998H0.52002Z" fill="url(#paint0_linear_6_22098)"/>
<path d="M26.9284 20.3358L24.4924 15.0158C23.8764 13.6905 23.1017 12.7478 22.1684 12.1878C21.2351 11.6278 20.0404 11.3478 18.5844 11.3478H18.1644V19.9998H15.5044V0.455843C16.4937 0.362509 17.4364 0.297176 18.3324 0.259842C19.2471 0.203843 20.2177 0.175843 21.2444 0.175843C23.6337 0.175843 25.4257 0.661176 26.6204 1.63184C27.8337 2.60251 28.4404 3.85318 28.4404 5.38384C28.4404 6.74651 28.0297 7.84784 27.2084 8.68784C26.4057 9.50918 25.2391 10.1252 23.7084 10.5358C24.2124 10.7598 24.6604 11.0305 25.0524 11.3478C25.4444 11.6465 25.8177 12.0572 26.1724 12.5798C26.5457 13.0838 26.9191 13.7465 27.2924 14.5678L29.4204 19.1598L26.9284 20.3358ZM18.1644 9.10784H21.2444C22.5884 9.10784 23.6804 8.80918 24.5204 8.21184C25.3604 7.61451 25.7804 6.75584 25.7804 5.63584C25.7804 4.70251 25.3884 3.93718 24.6044 3.33984C23.8204 2.72384 22.7004 2.41584 21.2444 2.41584C20.6097 2.41584 20.0404 2.42518 19.5364 2.44384C19.0324 2.46251 18.5751 2.49051 18.1644 2.52784V9.10784Z" fill="url(#paint1_linear_6_22098)"/>
<path d="M32.7856 19.9998V0.399842H44.5456V2.69584H35.4456V8.65984H43.2856V10.8998H35.4456V17.7038H44.5456V19.9998H32.7856Z" fill="url(#paint2_linear_6_22098)"/>
<path d="M56.2969 20.3358C54.8782 20.3358 53.5996 20.0745 52.4609 19.5518C51.3409 19.0105 50.3889 18.2825 49.6049 17.3678C48.8209 16.4345 48.2236 15.3518 47.8129 14.1198C47.4022 12.8878 47.1969 11.5718 47.1969 10.1718C47.1969 8.24918 47.5609 6.53184 48.2889 5.01984C49.0169 3.48918 50.0529 2.28518 51.3969 1.40784C52.7596 0.511843 54.3929 0.0638428 56.2969 0.0638428C57.7156 0.0638428 58.9849 0.325176 60.1049 0.847843C61.2436 1.37051 62.2049 2.09851 62.9889 3.03184C63.7729 3.96518 64.3702 5.03851 64.7809 6.25184C65.2102 7.46518 65.4249 8.77184 65.4249 10.1718C65.4249 11.6278 65.2196 12.8972 64.8089 13.9798C64.3982 15.0438 63.9129 15.9678 63.3529 16.7518L65.8449 18.1238L64.6409 20.3358L61.9249 18.3198C61.2342 18.8985 60.4222 19.3838 59.4889 19.7758C58.5556 20.1492 57.4916 20.3358 56.2969 20.3358ZM56.2409 18.0398C57.0062 18.0398 57.6969 17.9465 58.3129 17.7598C58.9476 17.5732 59.4889 17.3398 59.9369 17.0598L57.8089 15.7158L58.9289 13.6718L61.4489 15.4918C61.8969 14.7638 62.2142 13.9705 62.4009 13.1118C62.6062 12.2345 62.7089 11.2545 62.7089 10.1718C62.7089 9.16384 62.5596 8.19318 62.2609 7.25984C61.9809 6.32651 61.5609 5.49584 61.0009 4.76784C60.4596 4.02118 59.7876 3.43317 58.9849 3.00384C58.2009 2.57451 57.3049 2.35984 56.2969 2.35984C54.9529 2.35984 53.8049 2.70517 52.8529 3.39584C51.9009 4.06784 51.1729 4.99184 50.6689 6.16784C50.1649 7.34384 49.9129 8.67851 49.9129 10.1718C49.9129 11.1798 50.0529 12.1598 50.3329 13.1118C50.6129 14.0452 51.0236 14.8852 51.5649 15.6318C52.1062 16.3785 52.7689 16.9665 53.5529 17.3958C54.3369 17.8252 55.2329 18.0398 56.2409 18.0398Z" fill="url(#paint3_linear_6_22098)"/>
<path d="M76.4497 20.3358C74.191 20.3358 72.4177 19.6638 71.1297 18.3198C69.8417 16.9758 69.1977 15.0532 69.1977 12.5518V0.399842H71.8577V12.1318C71.8577 13.9985 72.2403 15.4452 73.0057 16.4718C73.771 17.4985 74.919 18.0118 76.4497 18.0118C78.0363 18.0118 79.2217 17.5172 80.0057 16.5278C80.7897 15.5198 81.1817 14.0545 81.1817 12.1318V0.399842H83.7577V12.4398C83.7577 14.0825 83.4497 15.5012 82.8337 16.6958C82.2363 17.8718 81.387 18.7772 80.2857 19.4118C79.203 20.0278 77.9243 20.3358 76.4497 20.3358Z" fill="url(#paint4_linear_6_22098)"/>
<path d="M88.3755 19.9998V0.399842H100.135V2.69584H91.0355V8.65984H98.8755V10.8998H91.0355V17.7038H100.135V19.9998H88.3755Z" fill="url(#paint5_linear_6_22098)"/>
<path d="M103.907 19.9998V0.399842H107.435L116.087 16.6958V0.399842H118.607V19.9998H115.135L106.427 3.81584V19.9998H103.907Z" fill="url(#paint6_linear_6_22098)"/>
<path d="M127.429 19.9998V2.75184H121.409V0.399842H136.109V2.75184H130.089V19.9998H127.429Z" fill="url(#paint7_linear_6_22098)"/>
<path d="M138.907 19.9998V0.399842H141.567V17.6198H150.555V19.9998H138.907Z" fill="url(#paint8_linear_6_22098)"/>
<path d="M155.666 19.9998V12.5518L148.862 1.49184L151.102 0.147842L157.094 10.0878L162.974 0.259842L165.074 1.49184L158.326 12.5518V19.9998H155.666Z" fill="url(#paint9_linear_6_22098)"/>
<path d="M189.726 20.2798L187.542 14.6798H178.47L176.286 20.2238L174.018 19.2998L181.69 0.399842H184.602L192.162 19.2998L189.726 20.2798ZM179.31 12.4398H186.674L183.006 3.03184L179.31 12.4398Z" fill="url(#paint10_linear_6_22098)"/>
<path d="M199.833 20.3358C198.471 20.3358 197.229 20.1585 196.109 19.8038C194.989 19.4305 194.047 18.9452 193.281 18.3478L194.625 16.1078C195.297 16.6678 196.053 17.1252 196.893 17.4798C197.733 17.8345 198.713 18.0118 199.833 18.0118C201.177 18.0118 202.241 17.7318 203.025 17.1718C203.809 16.6118 204.201 15.8558 204.201 14.9038C204.201 14.3625 204.089 13.8865 203.865 13.4758C203.641 13.0465 203.203 12.6358 202.549 12.2438C201.915 11.8332 200.972 11.3945 199.721 10.9278C198.377 10.4052 197.304 9.88251 196.501 9.35984C195.699 8.81851 195.12 8.21184 194.765 7.53984C194.429 6.84918 194.261 6.03718 194.261 5.10384C194.261 4.17051 194.513 3.33051 195.017 2.58384C195.54 1.81851 196.296 1.21184 197.285 0.763842C198.293 0.297176 199.507 0.0638428 200.925 0.0638428C202.083 0.0638428 203.119 0.185176 204.033 0.427841C204.967 0.651842 205.872 0.978509 206.749 1.40784L205.769 3.67584C205.135 3.30251 204.388 2.99451 203.529 2.75184C202.689 2.49051 201.803 2.35984 200.869 2.35984C199.637 2.35984 198.667 2.60251 197.957 3.08784C197.248 3.57318 196.893 4.19851 196.893 4.96384C196.893 5.44918 196.996 5.87851 197.201 6.25184C197.407 6.62518 197.808 6.98918 198.405 7.34384C199.021 7.69851 199.936 8.09984 201.149 8.54784C202.605 9.08918 203.753 9.65851 204.593 10.2558C205.452 10.8532 206.059 11.5065 206.413 12.2158C206.768 12.9065 206.945 13.6998 206.945 14.5958C206.945 15.8092 206.637 16.8452 206.021 17.7038C205.424 18.5625 204.584 19.2158 203.501 19.6638C202.437 20.1118 201.215 20.3358 199.833 20.3358Z" fill="url(#paint11_linear_6_22098)"/>
<path d="M223.055 20.3358L213.535 10.9838V19.9998H210.875V0.399842H213.535V9.33184L221.879 0.315843L223.671 1.96784L216.027 9.91984L224.903 18.4318L223.055 20.3358Z" fill="url(#paint12_linear_6_22098)"/>
<path d="M227.692 19.9998V0.399842H239.452V2.69584H230.352V8.65984H238.192V10.8998H230.352V17.7038H239.452V19.9998H227.692Z" fill="url(#paint13_linear_6_22098)"/>
<path d="M248.375 20.2238C247.311 20.2238 246.378 20.1958 245.575 20.1398C244.791 20.0838 244.007 20.0185 243.223 19.9438V0.455843C244.1 0.362509 244.959 0.297176 245.799 0.259842C246.639 0.203843 247.6 0.175843 248.683 0.175843C250.363 0.175843 251.81 0.437176 253.023 0.959843C254.255 1.48251 255.263 2.20118 256.047 3.11584C256.85 4.03051 257.438 5.09451 257.811 6.30784C258.203 7.50251 258.399 8.79051 258.399 10.1718C258.399 11.5345 258.203 12.8225 257.811 14.0358C257.419 15.2492 256.812 16.3225 255.991 17.2558C255.188 18.1705 254.152 18.8985 252.883 19.4398C251.632 19.9625 250.13 20.2238 248.375 20.2238ZM248.459 17.8998C250.139 17.8998 251.511 17.5732 252.575 16.9198C253.639 16.2665 254.423 15.3612 254.927 14.2038C255.431 13.0278 255.683 11.6838 255.683 10.1718C255.683 8.82784 255.431 7.56784 254.927 6.39184C254.423 5.21584 253.648 4.27318 252.603 3.56384C251.558 2.83584 250.223 2.47184 248.599 2.47184C248.058 2.47184 247.563 2.49051 247.115 2.52784C246.667 2.54651 246.256 2.57451 245.883 2.61184V17.7598C246.275 17.8158 246.686 17.8532 247.115 17.8718C247.544 17.8905 247.992 17.8998 248.459 17.8998Z" fill="url(#paint14_linear_6_22098)"/>
<path d="M278.684 20.3358C277.265 20.3358 275.986 20.0745 274.848 19.5518C273.728 19.0105 272.776 18.2825 271.992 17.3678C271.208 16.4345 270.61 15.3518 270.2 14.1198C269.789 12.8878 269.584 11.5718 269.584 10.1718C269.584 8.24918 269.948 6.53184 270.676 5.01984C271.404 3.48918 272.44 2.28518 273.784 1.40784C275.146 0.511843 276.78 0.0638428 278.684 0.0638428C280.102 0.0638428 281.372 0.325176 282.492 0.847843C283.63 1.37051 284.592 2.09851 285.376 3.03184C286.16 3.96518 286.757 5.03851 287.168 6.25184C287.597 7.46518 287.812 8.77184 287.812 10.1718C287.812 11.6278 287.606 12.8972 287.196 13.9798C286.785 15.0438 286.3 15.9678 285.74 16.7518L288.232 18.1238L287.028 20.3358L284.312 18.3198C283.621 18.8985 282.809 19.3838 281.876 19.7758C280.942 20.1492 279.878 20.3358 278.684 20.3358ZM278.628 18.0398C279.393 18.0398 280.084 17.9465 280.7 17.7598C281.334 17.5732 281.876 17.3398 282.324 17.0598L280.196 15.7158L281.316 13.6718L283.836 15.4918C284.284 14.7638 284.601 13.9705 284.788 13.1118C284.993 12.2345 285.096 11.2545 285.096 10.1718C285.096 9.16384 284.946 8.19318 284.648 7.25984C284.368 6.32651 283.948 5.49584 283.388 4.76784C282.846 4.02118 282.174 3.43317 281.372 3.00384C280.588 2.57451 279.692 2.35984 278.684 2.35984C277.34 2.35984 276.192 2.70517 275.24 3.39584C274.288 4.06784 273.56 4.99184 273.056 6.16784C272.552 7.34384 272.3 8.67851 272.3 10.1718C272.3 11.1798 272.44 12.1598 272.72 13.1118C273 14.0452 273.41 14.8852 273.952 15.6318C274.493 16.3785 275.156 16.9665 275.94 17.3958C276.724 17.8252 277.62 18.0398 278.628 18.0398Z" fill="url(#paint15_linear_6_22098)"/>
<path d="M298.836 20.3358C296.578 20.3358 294.804 19.6638 293.516 18.3198C292.228 16.9758 291.584 15.0532 291.584 12.5518V0.399842H294.244V12.1318C294.244 13.9985 294.627 15.4452 295.392 16.4718C296.158 17.4985 297.306 18.0118 298.836 18.0118C300.423 18.0118 301.608 17.5172 302.392 16.5278C303.176 15.5198 303.568 14.0545 303.568 12.1318V0.399842H306.144V12.4398C306.144 14.0825 305.836 15.5012 305.22 16.6958C304.623 17.8718 303.774 18.7772 302.672 19.4118C301.59 20.0278 300.311 20.3358 298.836 20.3358Z" fill="url(#paint16_linear_6_22098)"/>
<path d="M310.762 19.9998V0.399842H322.522V2.69584H313.422V8.65984H321.262V10.8998H313.422V17.7038H322.522V19.9998H310.762Z" fill="url(#paint17_linear_6_22098)"/>
<path d="M331.165 20.3358C329.803 20.3358 328.561 20.1585 327.441 19.8038C326.321 19.4305 325.379 18.9452 324.613 18.3478L325.957 16.1078C326.629 16.6678 327.385 17.1252 328.225 17.4798C329.065 17.8345 330.045 18.0118 331.165 18.0118C332.509 18.0118 333.573 17.7318 334.357 17.1718C335.141 16.6118 335.533 15.8558 335.533 14.9038C335.533 14.3625 335.421 13.8865 335.197 13.4758C334.973 13.0465 334.535 12.6358 333.881 12.2438C333.247 11.8332 332.304 11.3945 331.053 10.9278C329.709 10.4052 328.636 9.88251 327.833 9.35984C327.031 8.81851 326.452 8.21184 326.097 7.53984C325.761 6.84918 325.593 6.03718 325.593 5.10384C325.593 4.17051 325.845 3.33051 326.349 2.58384C326.872 1.81851 327.628 1.21184 328.617 0.763842C329.625 0.297176 330.839 0.0638428 332.257 0.0638428C333.415 0.0638428 334.451 0.185176 335.365 0.427841C336.299 0.651842 337.204 0.978509 338.081 1.40784L337.101 3.67584C336.467 3.30251 335.72 2.99451 334.861 2.75184C334.021 2.49051 333.135 2.35984 332.201 2.35984C330.969 2.35984 329.999 2.60251 329.289 3.08784C328.58 3.57318 328.225 4.19851 328.225 4.96384C328.225 5.44918 328.328 5.87851 328.533 6.25184C328.739 6.62518 329.14 6.98918 329.737 7.34384C330.353 7.69851 331.268 8.09984 332.481 8.54784C333.937 9.08918 335.085 9.65851 335.925 10.2558C336.784 10.8532 337.391 11.5065 337.745 12.2158C338.1 12.9065 338.277 13.6998 338.277 14.5958C338.277 15.8092 337.969 16.8452 337.353 17.7038C336.756 18.5625 335.916 19.2158 334.833 19.6638C333.769 20.1118 332.547 20.3358 331.165 20.3358Z" fill="url(#paint18_linear_6_22098)"/>
<path d="M345.988 19.9998V2.75184H339.968V0.399842H354.668V2.75184H348.648V19.9998H345.988Z" fill="url(#paint19_linear_6_22098)"/>
<path d="M357.465 19.9998V0.399842H360.125V19.9998H357.465Z" fill="url(#paint20_linear_6_22098)"/>
<path d="M373.296 20.3358C371.84 20.3358 370.543 20.0745 369.404 19.5518C368.266 19.0105 367.295 18.2825 366.492 17.3678C365.708 16.4345 365.102 15.3518 364.672 14.1198C364.262 12.8878 364.056 11.5718 364.056 10.1718C364.056 8.24918 364.42 6.53184 365.148 5.01984C365.895 3.48918 366.959 2.28518 368.34 1.40784C369.722 0.511843 371.374 0.0638428 373.296 0.0638428C374.734 0.0638428 376.022 0.325176 377.16 0.847843C378.318 1.37051 379.298 2.09851 380.1 3.03184C380.903 3.96518 381.51 5.03851 381.92 6.25184C382.35 7.46518 382.564 8.77184 382.564 10.1718C382.564 11.5718 382.35 12.8878 381.92 14.1198C381.51 15.3518 380.903 16.4345 380.1 17.3678C379.298 18.2825 378.327 19.0105 377.188 19.5518C376.05 20.0745 374.752 20.3358 373.296 20.3358ZM373.296 18.0398C374.734 18.0398 375.938 17.6945 376.908 17.0038C377.879 16.3132 378.607 15.3798 379.092 14.2038C379.596 13.0092 379.848 11.6652 379.848 10.1718C379.848 9.16384 379.699 8.19318 379.4 7.25984C379.102 6.32651 378.672 5.49584 378.112 4.76784C377.552 4.02118 376.862 3.43317 376.04 3.00384C375.238 2.57451 374.323 2.35984 373.296 2.35984C371.934 2.35984 370.758 2.70517 369.768 3.39584C368.798 4.08651 368.051 5.01984 367.528 6.19584C367.024 7.37184 366.772 8.69718 366.772 10.1718C366.772 11.1798 366.912 12.1598 367.192 13.1118C367.491 14.0452 367.92 14.8852 368.48 15.6318C369.04 16.3785 369.722 16.9665 370.524 17.3958C371.346 17.8252 372.27 18.0398 373.296 18.0398Z" fill="url(#paint21_linear_6_22098)"/>
<path d="M386.477 19.9998V0.399842H390.005L398.657 16.6958V0.399842H401.177V19.9998H397.705L388.997 3.81584V19.9998H386.477Z" fill="url(#paint22_linear_6_22098)"/>
<path d="M411.091 20.3358C409.729 20.3358 408.487 20.1585 407.367 19.8038C406.247 19.4305 405.305 18.9452 404.539 18.3478L405.883 16.1078C406.555 16.6678 407.311 17.1252 408.151 17.4798C408.991 17.8345 409.971 18.0118 411.091 18.0118C412.435 18.0118 413.499 17.7318 414.283 17.1718C415.067 16.6118 415.459 15.8558 415.459 14.9038C415.459 14.3625 415.347 13.8865 415.123 13.4758C414.899 13.0465 414.461 12.6358 413.807 12.2438C413.173 11.8332 412.23 11.3945 410.979 10.9278C409.635 10.4052 408.562 9.88251 407.759 9.35984C406.957 8.81851 406.378 8.21184 406.023 7.53984C405.687 6.84918 405.519 6.03718 405.519 5.10384C405.519 4.17051 405.771 3.33051 406.275 2.58384C406.798 1.81851 407.554 1.21184 408.543 0.763842C409.551 0.297176 410.765 0.0638428 412.183 0.0638428C413.341 0.0638428 414.377 0.185176 415.291 0.427841C416.225 0.651842 417.13 0.978509 418.007 1.40784L417.027 3.67584C416.393 3.30251 415.646 2.99451 414.787 2.75184C413.947 2.49051 413.061 2.35984 412.127 2.35984C410.895 2.35984 409.925 2.60251 409.215 3.08784C408.506 3.57318 408.151 4.19851 408.151 4.96384C408.151 5.44918 408.254 5.87851 408.459 6.25184C408.665 6.62518 409.066 6.98918 409.663 7.34384C410.279 7.69851 411.194 8.09984 412.407 8.54784C413.863 9.08918 415.011 9.65851 415.851 10.2558C416.71 10.8532 417.317 11.5065 417.671 12.2158C418.026 12.9065 418.203 13.6998 418.203 14.5958C418.203 15.8092 417.895 16.8452 417.279 17.7038C416.682 18.5625 415.842 19.2158 414.759 19.6638C413.695 20.1118 412.473 20.3358 411.091 20.3358Z" fill="url(#paint23_linear_6_22098)"/>
<defs>
<linearGradient id="paint0_linear_6_22098" x1="210.5" y1="4.99988" x2="210.5" y2="27.9999" gradientUnits="userSpaceOnUse">
<stop stop-color="white"/>
<stop offset="1" stop-color="#808285"/>
</linearGradient>
<linearGradient id="paint1_linear_6_22098" x1="210.5" y1="4.99988" x2="210.5" y2="27.9999" gradientUnits="userSpaceOnUse">
<stop stop-color="white"/>
<stop offset="1" stop-color="#808285"/>
</linearGradient>
<linearGradient id="paint2_linear_6_22098" x1="210.5" y1="4.99988" x2="210.5" y2="27.9999" gradientUnits="userSpaceOnUse">
<stop stop-color="white"/>
<stop offset="1" stop-color="#808285"/>
</linearGradient>
<linearGradient id="paint3_linear_6_22098" x1="210.5" y1="4.99988" x2="210.5" y2="27.9999" gradientUnits="userSpaceOnUse">
<stop stop-color="white"/>
<stop offset="1" stop-color="#808285"/>
</linearGradient>
<linearGradient id="paint4_linear_6_22098" x1="210.5" y1="4.99988" x2="210.5" y2="27.9999" gradientUnits="userSpaceOnUse">
<stop stop-color="white"/>
<stop offset="1" stop-color="#808285"/>
</linearGradient>
<linearGradient id="paint5_linear_6_22098" x1="210.5" y1="4.99988" x2="210.5" y2="27.9999" gradientUnits="userSpaceOnUse">
<stop stop-color="white"/>
<stop offset="1" stop-color="#808285"/>
</linearGradient>
<linearGradient id="paint6_linear_6_22098" x1="210.5" y1="4.99988" x2="210.5" y2="27.9999" gradientUnits="userSpaceOnUse">
<stop stop-color="white"/>
<stop offset="1" stop-color="#808285"/>
</linearGradient>
<linearGradient id="paint7_linear_6_22098" x1="210.5" y1="4.99988" x2="210.5" y2="27.9999" gradientUnits="userSpaceOnUse">
<stop stop-color="white"/>
<stop offset="1" stop-color="#808285"/>
</linearGradient>
<linearGradient id="paint8_linear_6_22098" x1="210.5" y1="4.99988" x2="210.5" y2="27.9999" gradientUnits="userSpaceOnUse">
<stop stop-color="white"/>
<stop offset="1" stop-color="#808285"/>
</linearGradient>
<linearGradient id="paint9_linear_6_22098" x1="210.5" y1="4.99988" x2="210.5" y2="27.9999" gradientUnits="userSpaceOnUse">
<stop stop-color="white"/>
<stop offset="1" stop-color="#808285"/>
</linearGradient>
<linearGradient id="paint10_linear_6_22098" x1="210.5" y1="4.99988" x2="210.5" y2="27.9999" gradientUnits="userSpaceOnUse">
<stop stop-color="white"/>
<stop offset="1" stop-color="#808285"/>
</linearGradient>
<linearGradient id="paint11_linear_6_22098" x1="210.5" y1="4.99988" x2="210.5" y2="27.9999" gradientUnits="userSpaceOnUse">
<stop stop-color="white"/>
<stop offset="1" stop-color="#808285"/>
</linearGradient>
<linearGradient id="paint12_linear_6_22098" x1="210.5" y1="4.99988" x2="210.5" y2="27.9999" gradientUnits="userSpaceOnUse">
<stop stop-color="white"/>
<stop offset="1" stop-color="#808285"/>
</linearGradient>
<linearGradient id="paint13_linear_6_22098" x1="210.5" y1="4.99988" x2="210.5" y2="27.9999" gradientUnits="userSpaceOnUse">
<stop stop-color="white"/>
<stop offset="1" stop-color="#808285"/>
</linearGradient>
<linearGradient id="paint14_linear_6_22098" x1="210.5" y1="4.99988" x2="210.5" y2="27.9999" gradientUnits="userSpaceOnUse">
<stop stop-color="white"/>
<stop offset="1" stop-color="#808285"/>
</linearGradient>
<linearGradient id="paint15_linear_6_22098" x1="210.5" y1="4.99988" x2="210.5" y2="27.9999" gradientUnits="userSpaceOnUse">
<stop stop-color="white"/>
<stop offset="1" stop-color="#808285"/>
</linearGradient>
<linearGradient id="paint16_linear_6_22098" x1="210.5" y1="4.99988" x2="210.5" y2="27.9999" gradientUnits="userSpaceOnUse">
<stop stop-color="white"/>
<stop offset="1" stop-color="#808285"/>
</linearGradient>
<linearGradient id="paint17_linear_6_22098" x1="210.5" y1="4.99988" x2="210.5" y2="27.9999" gradientUnits="userSpaceOnUse">
<stop stop-color="white"/>
<stop offset="1" stop-color="#808285"/>
</linearGradient>
<linearGradient id="paint18_linear_6_22098" x1="210.5" y1="4.99988" x2="210.5" y2="27.9999" gradientUnits="userSpaceOnUse">
<stop stop-color="white"/>
<stop offset="1" stop-color="#808285"/>
</linearGradient>
<linearGradient id="paint19_linear_6_22098" x1="210.5" y1="4.99988" x2="210.5" y2="27.9999" gradientUnits="userSpaceOnUse">
<stop stop-color="white"/>
<stop offset="1" stop-color="#808285"/>
</linearGradient>
<linearGradient id="paint20_linear_6_22098" x1="210.5" y1="4.99988" x2="210.5" y2="27.9999" gradientUnits="userSpaceOnUse">
<stop stop-color="white"/>
<stop offset="1" stop-color="#808285"/>
</linearGradient>
<linearGradient id="paint21_linear_6_22098" x1="210.5" y1="4.99988" x2="210.5" y2="27.9999" gradientUnits="userSpaceOnUse">
<stop stop-color="white"/>
<stop offset="1" stop-color="#808285"/>
</linearGradient>
<linearGradient id="paint22_linear_6_22098" x1="210.5" y1="4.99988" x2="210.5" y2="27.9999" gradientUnits="userSpaceOnUse">
<stop stop-color="white"/>
<stop offset="1" stop-color="#808285"/>
</linearGradient>
<linearGradient id="paint23_linear_6_22098" x1="210.5" y1="4.99988" x2="210.5" y2="27.9999" gradientUnits="userSpaceOnUse">
<stop stop-color="white"/>
<stop offset="1" stop-color="#808285"/>
</linearGradient>
</defs>
</svg>
