<svg width="132" height="30" viewBox="0 0 132 30" fill="none" xmlns="http://www.w3.org/2000/svg">
<path d="M5.13756 3.36491C5.74479 3.36491 6.29682 3.64317 6.79365 3.97708C7.23527 4.31099 7.51128 5.03447 7.51128 5.75795C7.51128 6.48143 7.23527 7.0936 6.79365 7.53882C6.35202 7.98404 5.74479 8.15099 5.13756 8.15099C4.53033 8.15099 3.9783 7.87273 3.48147 7.53882C2.98465 7.20491 2.81904 6.42578 2.81904 5.7023C2.81904 4.97882 3.09505 4.36665 3.53667 3.92143C3.9783 3.47621 4.47512 3.36491 5.13756 3.36491ZM5.13756 1.08317C3.9783 1.08317 2.87424 1.41708 1.93579 2.25186C1.21815 2.80839 0.445312 3.97708 0.445312 5.64665C0.445312 7.31621 1.21815 8.48491 1.93579 9.09708C2.81904 9.87621 3.86789 10.2658 5.13756 10.2658C6.29682 10.2658 7.40088 9.93186 8.33933 9.09708C9.05697 8.48491 9.82981 7.42752 9.82981 5.64665C9.82981 3.86578 9.05697 2.80839 8.33933 2.19621C7.40088 1.47273 6.35202 1.08317 5.13756 1.08317Z" fill="#FCAF17"/>
<path d="M6.46232 12.603V28.7977H3.64697V12.4917C3.97819 12.6586 4.58542 12.7699 5.02705 12.7699C5.46867 12.7699 5.96549 12.6586 6.46232 12.603Z" fill="#FCAF17"/>
<path d="M24.0722 8.42967C23.7961 5.59141 22.7473 3.53228 19.9871 3.53228C17.7238 3.53228 16.2333 5.03489 16.2333 7.14967C16.2333 13.3271 27.1635 13.3827 27.1635 22.1758C27.1635 26.461 24.6242 29.1323 20.2632 29.1323C16.0677 29.1323 13.4732 25.9601 13.3628 21.3966H16.0677C16.1781 24.6245 17.6134 26.5723 20.5392 26.5723C22.9681 26.5723 24.569 25.014 24.569 22.0645C24.569 15.8314 13.6388 15.1079 13.6388 7.37228C13.6388 3.47663 16.2333 1.02793 20.208 1.02793C24.1826 1.02793 26.6667 3.64358 26.9427 8.42967H24.0722Z" fill="#546373"/>
<path d="M38.9217 29.0205C34.2847 29.0205 31.2485 25.1249 31.2485 15.0518C31.2485 4.97877 34.2847 0.971817 38.9217 0.971817C43.5588 0.971817 46.5949 4.86747 46.5949 15.0518C46.5949 25.2362 43.4484 29.0205 38.9217 29.0205ZM38.9217 3.53182C36.3272 3.53182 34.2295 5.81356 34.2295 15.0518C34.2295 24.2901 36.272 26.5718 38.9217 26.5718C41.5715 26.5718 43.614 24.2901 43.614 15.0518C43.614 5.81356 41.5163 3.53182 38.9217 3.53182Z" fill="#546373"/>
<path d="M51.0112 1.41695H62.7142V3.97695H53.9922V13.2152H60.5613V15.7196H53.9922V28.6865H51.0112V1.41695Z" fill="#546373"/>
<path d="M80.2688 1.41695V3.97695H74.7485V28.6865H71.7676V3.97695H66.3025V1.41695H80.2688Z" fill="#546373"/>
<path d="M83.4705 1.41692H90.6468C94.6766 1.41692 96.9952 4.14387 96.9952 8.20648C96.9952 10.9334 95.8359 13.3821 92.9102 14.2726V14.3282C96.2223 15.2187 97.6024 17.7787 97.6024 21.2847C97.6024 26.2934 94.7871 28.8534 88.8803 28.8534H83.4705V1.41692V1.41692ZM86.341 13.1039H87.9971C92.1925 13.1039 94.1246 11.8795 94.1246 8.09518C94.1246 5.03431 92.7998 3.86561 89.322 3.86561H86.341V13.1039ZM86.341 26.1265H89.322C92.7998 26.1265 94.7319 24.5682 94.7319 21.1178C94.7319 17.5004 93.1862 15.5526 89.322 15.5526H86.341V26.1265Z" fill="#FCAF17"/>
<path d="M114.55 1.41692V3.97692H105.11V13.2152H112.066V15.7195H105.11V26.1265H115.047V28.6865H102.129V1.41692H114.55Z" fill="#FCAF17"/>
<path d="M131.552 1.41692V3.97692H126.032V28.6865H123.161V3.97692H117.476V1.41692H131.552Z" fill="#FCAF17"/>
</svg>
