<svg width="157" height="40" viewBox="0 0 157 40" fill="none" xmlns="http://www.w3.org/2000/svg">
<path d="M20.0339 0.989365C9.4659 0.989365 0.868164 9.63909 0.868164 20.3311C0.868164 22.2533 1.1667 24.1154 1.70405 25.9174C2.06229 25.4369 2.42053 24.9563 2.71907 24.4157C4.03261 22.4335 5.34615 20.4513 6.65969 18.409L7.615 16.9073C7.91353 16.4267 8.27177 15.8861 8.51059 15.4056C9.16737 14.3844 9.76443 13.3633 10.3018 12.3421C10.6003 11.8015 10.8391 11.321 11.1974 10.7804C11.4959 10.2398 11.7347 9.75923 12.0333 9.21862C12.3318 8.67801 12.5706 8.1374 12.8692 7.65686L13.6454 6.03504L13.7051 5.9149C14.123 5.07396 15.138 4.71355 16.0336 5.07396C16.6904 5.43436 17.0486 6.09511 17.0486 6.81592C17.0486 7.71693 16.8695 8.67801 16.8098 9.63909C16.7501 10.6002 16.6904 11.5012 16.6307 12.4623C16.571 14.3244 16.5113 16.2465 16.5113 18.1086C16.5113 19.9707 16.6307 21.8328 16.8098 23.6949C16.9292 24.5959 17.0486 25.4369 17.2277 26.3379C17.3472 27.1188 17.586 27.8996 17.9442 28.6204C18.0636 28.8607 18.183 29.0409 18.3622 29.2211C18.4816 29.2812 18.4219 29.2812 18.4816 29.2812C18.5413 29.2812 18.5413 29.2812 18.5413 29.2812L18.601 29.2211H18.6607H18.7801C18.8398 29.161 18.8995 29.161 18.8995 29.101C19.1981 28.8607 19.4369 28.6204 19.6757 28.3802C20.2131 27.7194 20.7504 27.0587 21.2281 26.2778C21.7057 25.557 22.1834 24.716 22.661 23.8751C23.5566 22.2533 24.3925 20.5714 25.2284 18.8895C25.5866 18.0485 26.0643 17.2076 26.4225 16.3066C26.7808 15.4656 27.1987 14.5646 27.557 13.7237C27.9152 12.8227 28.9302 12.4022 29.8258 12.7626C30.3632 13.0029 30.7811 13.4834 30.9005 14.0841C30.9005 14.3244 30.9602 14.5646 30.9602 14.865L31.0796 15.7059C31.1394 16.2465 31.1991 16.7871 31.3185 17.3277C31.4976 18.409 31.6767 19.4301 31.9752 20.4513C32.2738 21.4724 32.632 22.4935 33.05 23.5147C33.4679 24.5358 34.0053 25.4369 34.662 26.2778C34.7814 26.5181 34.7814 26.7583 34.6023 26.9385C34.4232 27.0587 34.1844 27.0587 34.065 26.9385C33.1694 26.1577 32.3932 25.2567 31.7364 24.2956C31.0796 23.3345 30.4826 22.3133 30.0049 21.2922C29.6467 20.5714 29.3482 19.8506 29.0496 19.1898C28.8108 19.6103 28.6914 20.0308 28.4526 20.4513C27.6167 22.1932 26.7808 23.9352 25.7658 25.6771C25.2881 26.5781 24.7508 27.4191 24.2134 28.3201C23.676 29.2211 23.0193 30.0621 22.3625 30.8429C22.0043 31.3235 21.5266 31.6839 21.049 32.1044C20.9295 32.2245 20.7504 32.3446 20.5713 32.4047L20.2728 32.5849L19.9742 32.4648L19.8548 32.5248H19.7951L19.6757 32.5849C19.5563 32.645 19.4966 32.645 19.3772 32.645C19.1383 32.705 18.9592 32.705 18.7204 32.7651C18.2428 32.8252 17.7651 32.705 17.3472 32.5849C16.9292 32.4648 16.5113 32.2245 16.2127 31.9242C15.6754 31.4436 15.1977 30.903 14.8992 30.2423C14.4215 29.2211 14.0633 28.2 13.8245 27.1187C13.5856 26.0976 13.4662 25.0765 13.3468 24.1154C13.108 22.1331 13.0483 20.211 13.0483 18.2288C13.0483 17.3277 13.0483 16.3667 13.0483 15.4056C12.69 16.0663 12.3318 16.7271 11.9736 17.3878C11.675 17.9284 11.4362 18.469 11.078 19.0096L10.1824 20.6315C8.98825 22.7338 7.73441 24.8362 6.48057 26.9385C5.64468 28.26 4.80879 29.6416 3.9729 30.9631C9.76443 39.9131 21.7057 42.3759 30.5423 36.5494C39.3788 30.7228 41.8865 18.7093 36.095 9.81929C32.5723 4.29308 26.542 0.989365 20.0339 0.989365Z" fill="url(#paint0_linear_4_61)"/>
<path d="M55.8577 27.2388V14.4444H55.5592L51.4991 27.2989H50.4244L46.3644 14.4444H46.0658V27.2388H44.394V13.123H47.3794L51.0215 24.3556L54.6039 13.123H57.6489V27.2989L55.8577 27.2388Z" fill="url(#paint1_linear_4_61)"/>
<path d="M59.9775 14.9253V13.0632H61.8284V14.9253H59.9775ZM60.0372 27.2392V16.3069H61.8284V27.2392H60.0372Z" fill="url(#paint2_linear_4_61)"/>
<path d="M72.6949 23.695C72.6949 25.7974 71.859 27.4192 68.3363 27.4192C63.918 27.4192 63.6792 24.8964 63.6792 21.7728C63.6792 18.6493 63.918 16.1265 68.3363 16.1265C71.859 16.1265 72.6949 17.7483 72.6949 19.8507H71.0231C71.0231 18.1087 70.426 17.2678 68.396 17.2678C65.6495 17.2678 65.5301 18.7695 65.5301 21.7128C65.5301 24.6561 65.6495 26.1578 68.396 26.1578C70.426 26.1578 71.0231 25.3168 71.0231 23.5749L72.6949 23.695Z" fill="url(#paint3_linear_4_61)"/>
<path d="M76.2177 17.5081C77.0535 16.9675 78.1283 16.2467 79.203 16.2467C79.4418 16.1866 79.6209 16.1866 79.8598 16.1866C80.1583 16.1866 80.3971 16.1866 80.6956 16.2467L80.5762 17.5682C80.2777 17.5081 80.0389 17.5081 79.8 17.5081C79.5612 17.5081 79.3821 17.5081 79.1433 17.5682C78.188 17.6283 77.173 18.289 76.4565 18.7095V27.2991H74.6653V16.3068H76.0982L76.2177 17.5081Z" fill="url(#paint4_linear_4_61)"/>
<path d="M90.7264 21.8327C90.7264 24.9562 90.4876 27.4791 85.9499 27.4791C81.4719 27.4791 81.1733 24.9562 81.1733 21.8327C81.1733 18.7092 81.4122 16.1864 85.9499 16.1864C90.4278 16.1263 90.7264 18.7092 90.7264 21.8327ZM82.9645 21.8327C82.9645 24.8361 83.0839 26.2777 85.9499 26.2777C88.8158 26.2777 88.9352 24.8361 88.9352 21.8327C88.9352 18.8294 88.8158 17.3877 85.9499 17.3877C83.0839 17.3877 82.9645 18.8294 82.9645 21.8327Z" fill="url(#paint5_linear_4_61)"/>
<path d="M93.9505 29.822C94.6073 29.882 95.5029 29.9421 96.4582 29.9421C99.2047 29.9421 99.5629 29.2213 99.5629 26.278C98.727 26.7585 97.6523 27.2991 96.4582 27.2991C92.4578 27.3592 92.219 25.1968 92.219 21.833C92.219 18.4692 92.4578 16.1866 96.279 16.1866C97.5926 16.1866 98.7867 16.7873 99.742 17.388L99.9211 16.3668H101.354V26.0978C101.354 30.0022 100.458 31.2035 96.8761 31.2035C95.8014 31.2035 94.7864 31.0834 93.7714 30.9633L93.9505 29.822ZM99.6226 18.3491C98.8464 17.8685 97.8911 17.3279 96.9358 17.3279C94.3087 17.3279 94.1296 18.8296 94.1296 21.7729C94.1296 24.6562 94.3087 26.0377 96.9358 26.0377C97.8911 26.0377 98.9061 25.4971 99.6226 25.1367V18.3491Z" fill="url(#paint6_linear_4_61)"/>
<path d="M111.146 27.239L110.967 26.2178C110.071 26.7585 108.937 27.4192 107.683 27.4192C103.683 27.4793 103.444 25.1967 103.444 21.7728C103.444 18.349 103.683 16.1265 107.623 16.1265C108.937 16.1265 110.071 16.7272 110.967 17.2678L111.146 16.3067H112.579V27.239H111.146ZM110.788 18.2889C110.071 17.8685 109.056 17.3879 108.101 17.3879C105.474 17.3879 105.295 18.8896 105.295 21.8329C105.295 24.7762 105.474 26.2779 108.101 26.2779C109.056 26.2779 110.012 25.7373 110.788 25.2568V18.2889Z" fill="url(#paint7_linear_4_61)"/>
<path d="M116.341 17.268C117.176 16.7874 118.251 16.1867 119.386 16.1267C121.236 16.0666 122.192 16.5471 122.61 17.328C123.446 16.7874 124.58 16.1867 125.834 16.1267C129.536 16.0065 129.834 17.9287 129.834 20.5717V27.2392H128.043V20.6918C128.043 18.4092 127.924 17.328 125.476 17.328C124.58 17.328 123.684 17.8686 122.968 18.3492C123.147 19.13 123.207 19.971 123.207 20.7519V27.2992H121.654V20.6918C121.654 18.4092 121.535 17.328 119.087 17.328C118.251 17.328 117.356 17.8686 116.639 18.229V27.2392H114.848V16.3069H116.281L116.341 17.268Z" fill="url(#paint8_linear_4_61)"/>
<path d="M132.043 14.9253V13.0632H133.894V14.9253H132.043ZM132.043 27.2392V16.3069H133.834V27.2392H132.043Z" fill="url(#paint9_linear_4_61)"/>
<path d="M137.655 17.268C138.551 16.7874 139.685 16.1867 140.939 16.1267C144.94 16.0065 145.178 17.9287 145.178 20.5717V27.2392H143.387V20.6918C143.387 18.4092 143.208 17.328 140.581 17.328C139.626 17.328 138.611 17.8686 137.894 18.2891V27.2992H136.103V16.3069H137.536L137.655 17.268Z" fill="url(#paint10_linear_4_61)"/>
<path d="M148.701 29.822C149.358 29.882 150.254 29.9421 151.209 29.9421C153.955 29.9421 154.314 29.2213 154.314 26.278C153.478 26.7585 152.403 27.2991 151.209 27.2991C147.209 27.3592 146.97 25.1968 146.97 21.833C146.97 18.4692 147.209 16.1866 151.03 16.1866C152.343 16.1866 153.537 16.7873 154.493 17.388L154.672 16.3668H156.105V26.0978C156.105 30.0022 155.209 31.2035 151.627 31.2035C150.552 31.2035 149.537 31.0834 148.522 30.9633L148.701 29.822ZM154.314 18.3491C153.537 17.8685 152.582 17.3279 151.627 17.3279C149 17.3279 148.821 18.8296 148.821 21.7729C148.821 24.6562 149 26.0377 151.627 26.0377C152.582 26.0377 153.597 25.4971 154.314 25.1367V18.3491Z" fill="url(#paint11_linear_4_61)"/>
<defs>
<linearGradient id="paint0_linear_4_61" x1="-2.12194" y1="25.6336" x2="152.865" y2="-11.4796" gradientUnits="userSpaceOnUse">
<stop stop-color="#21E418"/>
<stop offset="0.3" stop-color="#31B6E9"/>
<stop offset="0.9757" stop-color="#21E418"/>
</linearGradient>
<linearGradient id="paint1_linear_4_61" x1="-0.440798" y1="32.6547" x2="154.546" y2="-4.45853" gradientUnits="userSpaceOnUse">
<stop stop-color="#21E418"/>
<stop offset="0.3" stop-color="#31B6E9"/>
<stop offset="0.9757" stop-color="#21E418"/>
</linearGradient>
<linearGradient id="paint2_linear_4_61" x1="0.102726" y1="34.9244" x2="155.089" y2="-2.18886" gradientUnits="userSpaceOnUse">
<stop stop-color="#21E418"/>
<stop offset="0.3" stop-color="#31B6E9"/>
<stop offset="0.9757" stop-color="#21E418"/>
</linearGradient>
<linearGradient id="paint3_linear_4_61" x1="0.872111" y1="38.138" x2="155.859" y2="1.02473" gradientUnits="userSpaceOnUse">
<stop stop-color="#21E418"/>
<stop offset="0.3" stop-color="#31B6E9"/>
<stop offset="0.9757" stop-color="#21E418"/>
</linearGradient>
<linearGradient id="paint4_linear_4_61" x1="1.26781" y1="39.7901" x2="156.255" y2="2.67689" gradientUnits="userSpaceOnUse">
<stop stop-color="#21E418"/>
<stop offset="0.3" stop-color="#31B6E9"/>
<stop offset="0.9757" stop-color="#21E418"/>
</linearGradient>
<linearGradient id="paint5_linear_4_61" x1="1.84427" y1="42.1969" x2="156.831" y2="5.08358" gradientUnits="userSpaceOnUse">
<stop stop-color="#21E418"/>
<stop offset="0.3" stop-color="#31B6E9"/>
<stop offset="0.9757" stop-color="#21E418"/>
</linearGradient>
<linearGradient id="paint6_linear_4_61" x1="2.86099" y1="46.4433" x2="157.848" y2="9.33" gradientUnits="userSpaceOnUse">
<stop stop-color="#21E418"/>
<stop offset="0.3" stop-color="#31B6E9"/>
<stop offset="0.9757" stop-color="#21E418"/>
</linearGradient>
<linearGradient id="paint7_linear_4_61" x1="3.11704" y1="47.5124" x2="158.104" y2="10.3992" gradientUnits="userSpaceOnUse">
<stop stop-color="#21E418"/>
<stop offset="0.3" stop-color="#31B6E9"/>
<stop offset="0.9757" stop-color="#21E418"/>
</linearGradient>
<linearGradient id="paint8_linear_4_61" x1="3.83306" y1="50.5021" x2="158.82" y2="13.3888" gradientUnits="userSpaceOnUse">
<stop stop-color="#21E418"/>
<stop offset="0.3" stop-color="#31B6E9"/>
<stop offset="0.9757" stop-color="#21E418"/>
</linearGradient>
<linearGradient id="paint9_linear_4_61" x1="4.05306" y1="51.4224" x2="159.04" y2="14.309" gradientUnits="userSpaceOnUse">
<stop stop-color="#21E418"/>
<stop offset="0.3" stop-color="#31B6E9"/>
<stop offset="0.9757" stop-color="#21E418"/>
</linearGradient>
<linearGradient id="paint10_linear_4_61" x1="4.83967" y1="54.7072" x2="159.826" y2="17.594" gradientUnits="userSpaceOnUse">
<stop stop-color="#21E418"/>
<stop offset="0.3" stop-color="#31B6E9"/>
<stop offset="0.9757" stop-color="#21E418"/>
</linearGradient>
<linearGradient id="paint11_linear_4_61" x1="5.86147" y1="58.9741" x2="160.848" y2="21.8608" gradientUnits="userSpaceOnUse">
<stop stop-color="#21E418"/>
<stop offset="0.3" stop-color="#31B6E9"/>
<stop offset="0.9757" stop-color="#21E418"/>
</linearGradient>
</defs>
</svg>
