<svg width="122" height="44" viewBox="0 0 122 44" fill="none" xmlns="http://www.w3.org/2000/svg">
<path d="M42.9854 8.57117V13.9045H49.053V35.4283H54.2806V13.9045H60.3016V8.57117H42.9854Z" fill="white"/>
<path d="M23.7087 35.4283H40.7916V30.095H28.9363V24.6664H39.0647V19.3331H28.9363V13.9045H40.7916V8.57117H23.7087V35.4283Z" fill="white"/>
<path d="M15.5409 25.0474L5.36583 8.57117H0.55835V35.4283H5.7859V18.9521L15.9609 35.4283H20.7684V8.57117H15.5409V25.0474Z" fill="white"/>
<path d="M104.596 8.57117V13.9045H110.617V35.4283H115.891V13.9045H121.912V8.57117H104.596Z" fill="#78C12B"/>
<path d="M97.3146 25.0474L87.1862 8.57117H82.332V35.4283H87.6063V18.9521L97.7346 35.4283H102.589V8.57117H97.3146V25.0474Z" fill="#78C12B"/>
<path d="M63.9887 -3.05176e-05H62.7285V44H63.9887V35.4285H79.8114V30.0952H67.9561V24.6666H78.0844V19.3333H67.9561V13.9047H79.8114V8.5714H63.9887V-3.05176e-05Z" fill="#78C12B"/>
</svg>
