<svg width="137" height="38" viewBox="0 0 137 38" fill="none" xmlns="http://www.w3.org/2000/svg">
<path d="M126.693 29.2134H6.03747C3.7837 29.4175 1.68717 28.1414 0.953389 26.0487C0.638909 24.9768 0.638909 23.8538 0.953389 22.8329L3.10233 14.9723C3.83612 11.7055 6.71884 9.40857 10.1781 9.35753H131.515C135.708 9.35753 137.542 12.1649 136.861 15.2785C136.389 17.5245 134.502 23.5476 134.502 23.5476C133.664 27.0185 130.362 29.4175 126.693 29.2134Z" fill="#0083C3"/>
<path d="M109.501 37.4823H77.372C72.6024 37.4823 67.8852 33.1436 68.5141 28.4477C69.1955 23.4454 72.0782 15.6358 73.7031 10.8888C75.6423 5.17194 81.4602 0.986397 86.2298 0.986397H119.512C124.334 0.935354 128.318 4.71255 128.37 9.45957C128.37 10.2763 128.265 11.093 128.056 11.9096C126.483 16.7588 124.072 24.3642 122.552 28.7539C121.085 32.8884 114.323 37.4823 109.501 37.4823Z" fill="black"/>
<path d="M120.036 3.74209C120.036 3.74209 114.743 3.74209 112.803 3.74209C107.876 3.69105 103.474 6.7026 101.849 11.1944L98.1799 22.5771C94.0393 32.4794 99.2806 34.1639 102.897 34.1639H108.925C113.642 34.0618 117.835 31.2544 119.617 26.9668L124.649 11.3986C126.064 7.77451 123.81 3.74209 120.036 3.74209ZM111.912 26.7116H104.889L109.763 11.5517H116.787L111.912 26.7116Z" fill="#FF1323"/>
<path d="M84.9719 22.8838H88.8505L87.5926 26.712H79.9926L81.0409 23.4963L81.2506 22.9348L83.714 15.3804L84.9719 11.6032H99.4904V11.348L101.639 4.15089C101.639 4.15089 89.5843 4.15089 87.645 4.15089C82.9802 4.15089 78.8396 6.95827 77.1623 11.1949L73.5458 22.5775C68.881 33.1945 75.0134 34.1643 78.263 34.1643H84.2905C89.165 34.2664 93.5153 31.2549 94.9828 26.7631L98.3373 15.3804H87.3829L84.9719 22.8838Z" fill="#FF1323"/>
<path d="M62.2248 24.6707L63.7972 19.2088H60.8619L59.2895 24.6707H55.9873L57.717 19.0046C58.346 17.2691 60.0757 16.095 61.9627 16.095H65.0028C66.2607 16.044 67.3091 17.0139 67.3615 18.239C67.3615 18.5452 67.3091 18.8005 67.2042 19.1067L65.4221 24.6707H62.2248Z" fill="white"/>
<path d="M58.2936 16.5033H53.9431L55.3059 12.8791H59.5516L58.2936 16.5033Z" fill="white"/>
<path d="M48.2828 18.6473H45.4L47.3393 12.5729H44.0372L42.0978 18.8515C41.626 19.9745 42.255 21.2506 43.4082 21.71C43.6702 21.8121 43.9847 21.8631 44.2468 21.8631L43.4606 24.7217H46.6055L47.549 21.8631C49.3835 21.8121 50.956 20.6891 51.585 19.0046L53.6292 12.6239H50.4843L48.2828 18.6473Z" fill="white"/>
<path d="M39.7395 12.5729H36.6994C34.8125 12.5729 33.0828 13.6959 32.4538 15.4314L29.3088 24.6706H32.5586L33.5545 21.6589H36.4373L35.5987 24.6196H38.7436L41.8886 15.4825C42.3079 14.3084 41.6789 13.0323 40.4733 12.6239C40.2637 12.6239 40.0016 12.5729 39.7395 12.5729ZM37.5381 18.6473H34.4456L35.4939 15.6356H38.4815L37.5381 18.6473Z" fill="white"/>
<path d="M22.548 12.5729L18.5645 24.6706H28.1041L30.0959 18.6473H26.8985L25.955 21.6079H22.9674L25.8502 12.5729H22.548Z" fill="white"/>
<path d="M18.093 12.5729H11.9604L7.97681 24.7217H11.2266L12.2225 21.71H15.0529C16.9399 21.71 18.5647 20.587 19.1937 18.8515C19.5606 17.9326 20.2944 15.6356 20.2944 15.6356C20.8186 14.5636 20.2944 13.2365 19.1937 12.777C18.8792 12.6239 18.4599 12.5729 18.093 12.5729ZM16.1536 18.6473H13.1135L14.1618 15.6356H17.2019L16.1536 18.6473Z" fill="white"/>
</svg>
