<svg width="132" height="34" viewBox="0 0 132 34" fill="none" xmlns="http://www.w3.org/2000/svg">
<path fill-rule="evenodd" clip-rule="evenodd" d="M72.8425 1.36388C72.5106 1.09138 72.0957 0.982384 71.7084 0.982384C71.0722 0.982384 70.4636 1.28213 70.0763 1.85436L59.3435 17.6045C58.7072 18.531 58.9285 19.8117 59.8414 20.4657C60.201 20.7109 60.5883 20.8472 60.9755 20.8472C61.6117 20.8472 62.2203 20.5474 62.6076 19.9752L73.3405 4.22506C73.9767 3.29858 73.7554 2.01786 72.8425 1.36388Z" fill="#FF7800"/>
<path fill-rule="evenodd" clip-rule="evenodd" d="M119.591 2.23585C119.259 1.50012 118.54 1.06413 117.793 1.06413C117.517 1.06413 117.212 1.11862 116.936 1.25487C115.94 1.74536 115.525 2.97158 115.995 4.00706L127.475 28.6405C127.807 29.3762 128.526 29.8122 129.273 29.8122C129.55 29.8122 129.854 29.7577 130.131 29.6215C131.126 29.131 131.541 27.9048 131.071 26.8693L119.591 2.23585Z" fill="#FF7800"/>
<path fill-rule="evenodd" clip-rule="evenodd" d="M106.009 8.17621C106.009 4.2523 102.911 1.06413 99.1213 1.06413H99.0936H99.066H94.1145C93.008 1.06413 92.1228 1.9906 92.1228 3.10783C92.1228 4.2523 93.008 5.15153 94.1145 5.15153H99.066H99.0936H99.1213C100.726 5.15153 102.026 6.48675 102.026 8.14896C102.026 8.23071 102.026 8.28521 102.053 8.36696C102.053 8.39421 102.053 8.39421 102.053 8.42146V10.6014C102.053 10.6559 102.026 10.7104 102.026 10.7922C102.026 12.4544 100.726 13.7896 99.1213 13.7896H99.0936H99.066H94.1145C93.008 13.7896 92.1228 14.7161 92.1228 15.8333C92.1228 16.9778 93.008 17.877 94.1145 17.877H99.066H99.0936H99.1213C102.828 17.877 105.843 14.8523 106.009 11.0646C106.037 10.9557 106.037 10.8467 106.037 10.7377V8.42146C106.037 8.33971 106.009 8.28521 106.009 8.20346C106.009 8.20346 106.009 8.17621 106.009 8.17621Z" fill="#FF7800"/>
<path fill-rule="evenodd" clip-rule="evenodd" d="M81.8878 1.06413C78.0981 1.06413 75 4.2523 75 8.17621C75 9.32069 75.8852 10.2199 76.9917 10.2199C78.0982 10.2199 78.9833 9.29344 78.9833 8.17621C78.9833 6.514 80.2834 5.17878 81.8878 5.17878C83.4922 5.17878 84.7924 6.514 84.7924 8.17621C84.7924 9.32069 85.6776 10.2199 86.784 10.2199C87.8905 10.2199 88.7757 9.29344 88.7757 8.17621C88.7757 4.2523 85.6775 1.06413 81.8878 1.06413Z" fill="#FF7800"/>
<path fill-rule="evenodd" clip-rule="evenodd" d="M86.784 20.6562C85.6776 20.6562 84.7924 21.5827 84.7924 22.7272C84.7924 24.3894 83.4922 25.7246 81.8878 25.7246C80.2834 25.7246 78.9833 24.3894 78.9833 22.7272C78.9833 21.5827 78.0982 20.6562 76.9917 20.6562C75.8852 20.6562 75 21.5827 75 22.7272C75 26.6511 78.0981 29.8393 81.8878 29.8393C85.6775 29.8393 88.7757 26.6511 88.7757 22.7272C88.7757 21.5555 87.8905 20.6562 86.784 20.6562Z" fill="#FF7800"/>
<path fill-rule="evenodd" clip-rule="evenodd" d="M6.95133 1.06413C3.16163 1.06413 0.0634766 4.2523 0.0634766 8.17621C0.0634766 9.32069 0.948662 10.2199 2.05514 10.2199C3.16163 10.2199 4.04681 9.29344 4.04681 8.17621C4.04681 6.514 5.34693 5.17878 6.95133 5.17878C8.55572 5.17878 9.85584 6.514 9.85584 8.17621C9.85584 9.32069 10.741 10.2199 11.8475 10.2199C12.954 10.2199 13.8392 9.29344 13.8392 8.17621C13.8392 4.2523 10.741 1.06413 6.95133 1.06413Z" fill="#FF7800"/>
<path fill-rule="evenodd" clip-rule="evenodd" d="M11.8475 20.6562C10.741 20.6562 9.85584 21.5827 9.85584 22.7272C9.85584 24.3894 8.55572 25.7246 6.95133 25.7246C5.34693 25.7246 4.04681 24.3894 4.04681 22.7272C4.04681 21.5827 3.16163 20.6562 2.05514 20.6562C0.948662 20.6562 0.0634766 21.5827 0.0634766 22.7272C0.0634766 26.6511 3.16163 29.8393 6.95133 29.8393C7.50457 29.8393 8.03015 29.7575 8.55572 29.6485L10.0771 32.537C10.4367 33.1909 11.1006 33.5997 11.7645 33.5997C11.7922 33.5997 11.7922 33.5997 11.8198 33.5997C12.1518 33.5997 12.4561 33.5179 12.7604 33.3544C13.7285 32.8095 14.0881 31.556 13.5626 30.575L11.9858 27.5776C13.12 26.2968 13.8392 24.6074 13.8392 22.7544C13.8392 21.5555 12.954 20.6562 11.8475 20.6562Z" fill="#FF7800"/>
<path fill-rule="evenodd" clip-rule="evenodd" d="M54.3363 20.6562C53.2298 20.6562 52.3446 21.5827 52.3446 22.7272C52.3446 24.3894 51.0445 25.7246 49.4401 25.7246C47.8357 25.7246 46.5356 24.3894 46.5356 22.7272C46.5356 21.5827 45.6504 20.6562 44.5439 20.6562C43.4374 20.6562 42.5522 21.5827 42.5522 22.7272C42.5522 26.6511 45.6504 29.8393 49.4401 29.8393C53.2298 29.8393 56.3279 26.6511 56.3279 22.7272C56.3279 21.5555 55.4428 20.6562 54.3363 20.6562Z" fill="#FF7800"/>
<path fill-rule="evenodd" clip-rule="evenodd" d="M29.1642 20.6562C28.0577 20.6562 27.1725 21.5827 27.1725 22.7272C27.1725 24.3894 25.8724 25.7246 24.268 25.7246C22.6636 25.7246 21.3635 24.3894 21.3635 22.7272C21.3635 21.5827 20.4783 20.6562 19.3718 20.6562C18.2653 20.6562 17.3801 21.5827 17.3801 22.7272C17.3801 26.6511 20.4783 29.8393 24.268 29.8393C28.0577 29.8393 31.1558 26.6511 31.1558 22.7272C31.1558 21.5555 30.2706 20.6562 29.1642 20.6562Z" fill="#FF7800"/>
<path fill-rule="evenodd" clip-rule="evenodd" d="M49.4401 1.06413C45.6504 1.06413 42.5522 4.2523 42.5522 8.17621C42.5522 9.32069 43.4374 10.2199 44.5439 10.2199C45.6504 10.2199 46.5356 9.29344 46.5356 8.17621C46.5356 6.514 47.8357 5.17878 49.4401 5.17878C51.0445 5.17878 52.3446 6.514 52.3446 8.17621C52.3446 9.32069 53.2298 10.2199 54.3363 10.2199C55.4428 10.2199 56.3279 9.29344 56.3279 8.17621C56.3279 4.2523 53.2575 1.06413 49.4401 1.06413Z" fill="#FF7800"/>
<path fill-rule="evenodd" clip-rule="evenodd" d="M86.784 19.4847C86.867 19.4847 86.9499 19.4847 87.0606 19.5119L79.9791 9.12991C79.5918 10.4379 78.4024 11.4189 76.9916 11.4189C76.881 11.4189 76.7703 11.4189 76.6597 11.3916L83.7965 21.8554C84.1284 20.4656 85.3456 19.4847 86.784 19.4847Z" fill="#FF7800"/>
<path fill-rule="evenodd" clip-rule="evenodd" d="M62.9672 3.10783C62.9672 1.96335 62.082 1.06413 60.9756 1.06413C59.8691 1.06413 58.9839 1.9906 58.9839 3.10783V16.1058L62.9672 10.2472V3.10783V3.10783Z" fill="#FF7800"/>
<path fill-rule="evenodd" clip-rule="evenodd" d="M46.5356 20.2204V10.6559C45.9823 11.1192 45.2908 11.3916 44.5439 11.3916C43.797 11.3916 43.1055 11.1192 42.5522 10.6559V20.2204C43.1055 19.7572 43.797 19.4847 44.5439 19.4847C45.3184 19.4847 46.01 19.7572 46.5356 20.2204Z" fill="#FF7800"/>
<path fill-rule="evenodd" clip-rule="evenodd" d="M129.301 1.06413C128.194 1.06413 127.309 1.9906 127.309 3.10783V16.0785L131.292 24.6348V3.10783C131.292 1.9906 130.38 1.06413 129.301 1.06413Z" fill="#FF7800"/>
<path fill-rule="evenodd" clip-rule="evenodd" d="M96.1061 12.6179V6.35057H94.1145C93.3676 6.35057 92.676 6.07808 92.1228 5.61484V13.3537C92.676 12.8904 93.3676 12.6179 94.1145 12.6179H96.1061Z" fill="#FF7800"/>
<path fill-rule="evenodd" clip-rule="evenodd" d="M110.601 1.06413C109.495 1.06413 108.609 1.9906 108.609 3.10783V27.7413C108.609 28.8857 109.495 29.785 110.601 29.785C111.708 29.785 112.593 28.8585 112.593 27.7413V3.10783C112.593 1.9906 111.708 1.06413 110.601 1.06413Z" fill="#FF7800"/>
<path fill-rule="evenodd" clip-rule="evenodd" d="M59.1775 21.4467C59.1222 21.3922 59.0392 21.3377 58.9839 21.2832V27.7414C58.9839 28.8858 59.8691 29.7851 60.9756 29.7851C62.082 29.7851 62.9672 28.8586 62.9672 27.7414V21.2832C62.414 21.7465 61.7224 22.019 60.9756 22.019C60.3117 22.019 59.7031 21.8282 59.1775 21.4467Z" fill="#FF7800"/>
<path fill-rule="evenodd" clip-rule="evenodd" d="M36.854 1.06413C35.7475 1.06413 34.8623 1.9906 34.8623 3.10783V27.7413C34.8623 28.8857 35.7475 29.785 36.854 29.785C37.9605 29.785 38.8456 28.8585 38.8456 27.7413V3.10783C38.8456 1.9906 37.9605 1.06413 36.854 1.06413Z" fill="#FF7800"/>
<path fill-rule="evenodd" clip-rule="evenodd" d="M67.7802 14.4161L65.1523 18.2856L69.9102 28.6131C70.2422 29.3488 70.9614 29.7848 71.7082 29.7848C71.9849 29.7848 72.2892 29.7303 72.5658 29.5941C73.5616 29.1036 73.9765 27.8773 73.5063 26.8419L67.7802 14.4161Z" fill="#FF7800"/>
<path fill-rule="evenodd" clip-rule="evenodd" d="M115.802 27.7414C115.802 28.8858 116.687 29.7851 117.793 29.7851C118.9 29.7851 119.785 28.8586 119.785 27.7414V14.8524L115.802 6.29611V27.7414Z" fill="#FF7800"/>
<path fill-rule="evenodd" clip-rule="evenodd" d="M92.1228 18.3402V27.7685C92.1228 28.913 93.008 29.8122 94.1145 29.8122C95.221 29.8122 96.1061 28.8857 96.1061 27.7685V19.0759H94.1145C93.3676 19.0759 92.676 18.7762 92.1228 18.3402Z" fill="#FF7800"/>
<path fill-rule="evenodd" clip-rule="evenodd" d="M21.391 20.2204V3.10783C21.391 1.96335 20.5059 1.06413 19.3994 1.06413C18.2929 1.06413 17.4077 1.9906 17.4077 3.10783V20.1932C17.961 19.73 18.6525 19.4575 19.3994 19.4575C20.1463 19.4847 20.8378 19.7572 21.391 20.2204Z" fill="#FF7800"/>
<path fill-rule="evenodd" clip-rule="evenodd" d="M31.1555 20.2204V3.10783C31.1555 1.96335 30.2703 1.06413 29.1638 1.06413C28.0573 1.06413 27.1721 1.9906 27.1721 3.10783V20.2204C27.7254 19.7572 28.4169 19.4847 29.1638 19.4847C29.9383 19.4847 30.6299 19.7572 31.1555 20.2204Z" fill="#FF7800"/>
<path fill-rule="evenodd" clip-rule="evenodd" d="M4.04681 20.2204V10.6559C3.49357 11.1192 2.80202 11.3916 2.05514 11.3916C1.30827 11.3916 0.616717 11.1192 0.0634766 10.6559V20.2204C0.616717 19.7572 1.30827 19.4847 2.05514 19.4847C2.80202 19.4847 3.52123 19.7572 4.04681 20.2204Z" fill="#FF7800"/>
<path fill-rule="evenodd" clip-rule="evenodd" d="M13.8395 20.2204V10.6559C13.2863 11.1192 12.5947 11.3916 11.8479 11.3916C11.101 11.3916 10.3818 11.1192 9.8562 10.6559V20.2204C10.4094 19.7572 11.101 19.4847 11.8479 19.4847C12.5947 19.4847 13.314 19.7572 13.8395 20.2204Z" fill="#FF7800"/>
</svg>
