<svg width="159" height="31" viewBox="0 0 159 31" fill="none" xmlns="http://www.w3.org/2000/svg">
<path d="M52.6624 15.6491C53.3372 14.6852 53.7084 13.5492 53.6746 12.3443C53.7759 10.7952 53.1685 9.28055 52.0213 8.24781C50.7391 7.31835 49.187 6.8364 47.6348 6.93968H40.8865V24.6339H45.4079V17.8179H45.4416L49.5919 24.6339H54.6194L49.8955 17.3703C50.9753 17.1982 51.9875 16.5786 52.6624 15.6491ZM48.6808 13.7902C48.5121 14.0656 48.2759 14.3066 47.9723 14.4787C47.6686 14.6508 47.3312 14.7541 46.9938 14.7885C46.6226 14.8573 46.2177 14.8573 45.8128 14.8573H45.3741V10.451H45.8128C46.2177 10.451 46.5888 10.4854 46.9938 10.5198C47.3312 10.5543 47.6686 10.692 47.9723 10.8297C48.2759 10.9674 48.5121 11.2083 48.6808 11.5182C49.052 12.2411 49.052 13.0673 48.6808 13.7902Z" fill="#D71920"/>
<path d="M56.4415 24.6341H66.3279V20.6064H60.9967V17.7492H66.3279V13.7215H60.9967V10.8987H66.3279V6.97427H56.4415V24.6341Z" fill="#D71920"/>
<path d="M153.652 17.3703C154.664 17.1982 155.575 16.5786 156.115 15.6491C156.79 14.6852 157.161 13.5492 157.127 12.3443C157.228 10.7952 156.621 9.28055 155.474 8.24781C154.191 7.31835 152.639 6.8364 151.087 6.93968H144.339V24.6339H148.86V17.8179H148.894L153.044 24.6339H158.072L153.652 17.3703ZM152.167 13.7902C151.998 14.0656 151.762 14.3066 151.458 14.4787C151.155 14.6508 150.817 14.7541 150.48 14.7885C150.109 14.8573 149.704 14.8573 149.333 14.8573H148.894V10.451H149.333C149.738 10.451 150.109 10.4854 150.48 10.5198C150.817 10.5543 151.155 10.692 151.458 10.8297C151.762 10.9674 151.998 11.2083 152.167 11.5182C152.504 12.2411 152.504 13.0673 152.167 13.7902Z" fill="#D71920"/>
<path d="M131.652 24.6341H141.538V20.6064H136.207V17.7492H141.538V13.7215H136.207V10.8987H141.538V6.97427H131.652V24.6341Z" fill="#D71920"/>
<path d="M109.281 6.90502H104.76V24.6337H109.281V6.90502Z" fill="#D71920"/>
<path d="M120.585 18.2309H123.993C123.959 19.0571 123.588 19.8488 122.947 20.3652C122.272 20.8816 121.462 21.157 120.618 21.1225C119.977 21.1225 119.37 20.9848 118.83 20.7094C118.29 20.434 117.852 20.021 117.48 19.539C117.109 19.0226 116.839 18.4718 116.671 17.8522C116.299 16.6129 116.299 15.3048 116.671 14.0311C116.839 13.4114 117.109 12.8606 117.48 12.3443C117.818 11.8623 118.29 11.4492 118.796 11.1394C119.336 10.8296 119.944 10.6919 120.551 10.6919C121.327 10.6574 122.069 10.9328 122.677 11.3804C123.284 11.8967 123.756 12.5508 124.026 13.3081L128.008 11.5869C127.4 10.1411 126.422 8.93621 125.14 8.11002C123.824 7.31825 122.305 6.90516 120.753 6.93958C119.539 6.93958 118.358 7.14613 117.21 7.55923C116.164 7.9379 115.22 8.55754 114.444 9.38373C113.668 10.2099 113.06 11.1738 112.655 12.241C112.217 13.4114 112.014 14.6507 112.014 15.89C112.014 17.0949 112.217 18.2997 112.622 19.4357C113.026 20.4685 113.6 21.4324 114.41 22.2241C115.186 23.0159 116.131 23.6011 117.143 24.0142C118.256 24.4273 119.404 24.6683 120.585 24.6339C121.901 24.6339 123.183 24.3929 124.364 23.8421C125.511 23.2913 126.489 22.4651 127.232 21.3979C127.839 20.5373 128.311 19.539 128.514 18.5063C128.75 17.3014 128.851 16.0965 128.851 14.8573H120.551V18.2309H120.585Z" fill="#D71920"/>
<path d="M90.0483 10.8643H93.7599V24.6685H98.2813V10.8643H102.027V6.97427H90.0483V10.8643Z" fill="#D71920"/>
<path d="M80.8031 9.52131C80.0608 8.72954 79.1835 8.07548 78.1712 7.62795C77.1927 7.18043 76.113 6.93946 75.0332 6.97389H69.1284V24.6682H75.0332C76.113 24.6682 77.1927 24.4272 78.1712 23.9797C79.1497 23.5321 80.0608 22.8781 80.8031 22.0863C81.5792 21.2601 82.1528 20.2962 82.5577 19.2635C83.4012 17.0603 83.4012 14.5817 82.5577 12.3786C82.1528 11.3114 81.5454 10.3475 80.8031 9.52131ZM78.8461 15.821C78.8461 16.5784 78.7448 17.3013 78.4749 18.0242C78.07 19.1946 77.159 20.0897 76.0118 20.5028C75.4381 20.7093 74.8308 20.8126 74.2234 20.7782H73.2787V10.8639H74.2572C75.5056 10.795 76.6866 11.277 77.5639 12.172C78.4749 13.1703 78.9136 14.4785 78.8461 15.821Z" fill="#D71920"/>
<path d="M16.7948 17.4733C17.3009 17.4733 17.7733 17.37 18.2457 17.1979C18.5156 17.0258 18.6168 16.6815 18.5831 16.3717C18.5494 15.9586 18.0095 15.6488 18.0095 15.6488C18.0432 16.6471 17.1997 16.8881 15.4451 16.9225C13.6905 16.9225 12.847 16.6471 12.8807 15.6488C12.8807 15.6488 12.3409 15.9586 12.3071 16.3717C12.2396 16.6815 12.3746 16.9913 12.6445 17.1979C13.1169 17.4044 13.5893 17.4733 14.0954 17.4733C14.6353 17.4733 15.0739 17.4733 15.4451 17.4733V17.4389V17.4733C15.85 17.4733 16.2549 17.4733 16.7948 17.4733Z" fill="#D71920"/>
<path d="M30.4939 18.5749C30.4264 17.9552 30.2914 17.3356 30.089 16.7504C30.0215 16.5438 29.9203 16.3717 29.7853 16.234C29.7516 16.234 29.7178 16.6815 29.7178 16.7848C29.6841 17.4389 29.6841 18.0929 29.6503 18.747C29.4479 21.26 29.1105 23.3943 27.3896 25.2877C27.0522 25.6664 26.6136 25.9418 26.1749 26.1827C26.1074 26.2171 26.0737 26.2171 26.0062 26.1827C25.905 26.1483 25.8712 26.0106 25.905 25.9073C26.4449 24.8057 26.9847 23.7386 27.4234 22.6026C27.862 21.4665 28.1319 20.2273 28.4694 19.0568C28.4694 19.0224 28.4694 18.988 28.4694 18.9191C28.4356 18.8158 28.3344 18.747 28.2332 18.7814C27.997 18.8847 27.6596 18.988 27.3896 19.0912C27.3559 19.0912 27.3221 19.0912 27.2547 19.0912C27.1534 19.0568 27.0859 18.9535 27.1197 18.8503C27.4571 17.7143 28.5031 14.3406 28.5031 14.3406C28.4356 14.4095 27.8283 15.339 27.7608 15.4422C27.2547 16.2684 26.816 17.129 26.4449 18.0241C26.2761 18.506 26.1074 18.8159 26.04 19.0224C26.0062 19.0912 26.0062 19.1945 26.04 19.2634C26.9172 20.0207 26.2087 21.501 25.8375 21.9485C25.3314 22.5681 24.9602 23.3255 24.7578 24.1172C24.6903 24.2894 24.6228 24.5303 24.5553 24.7713C24.5216 24.8402 24.4541 24.909 24.3529 24.909C24.2516 24.909 24.1504 24.8057 24.1504 24.7025C24.2179 23.6697 24.3866 22.2927 24.724 21.9485C25.2301 21.4665 25.1289 19.7453 24.5553 19.4699C24.0154 19.1945 23.9142 18.8847 24.1841 18.4028C24.2516 18.2995 24.2179 18.1962 24.1167 18.1274L21.6535 16.6815C21.586 16.6471 21.5523 16.6127 21.5523 16.5438C21.5185 16.4405 21.6198 16.3373 21.721 16.3029C22.5645 16.234 23.4418 16.475 24.1167 17.0258C24.1842 17.0602 24.2516 17.0946 24.3529 17.129C24.9265 17.3012 25.5338 16.9913 25.7025 16.4061C25.77 16.2684 25.8038 16.1652 25.8375 16.0275C25.8712 15.9242 25.77 15.8209 25.6688 15.7865C24.4541 15.4767 24.2854 15.4078 24.2179 15.0291V14.9947C24.2179 14.8914 24.3191 14.7882 24.4203 14.7882C24.8252 14.857 25.2639 14.7882 25.6688 14.6505C25.905 14.4095 26.04 14.0997 26.1074 13.7554C26.1074 13.721 26.1074 13.6522 26.1074 13.6177C26.0737 13.5145 25.9387 13.48 25.8375 13.5145C25.3989 13.6866 25.2976 13.6866 25.0614 13.5145C25.0277 13.48 24.994 13.4456 24.994 13.3768C24.994 13.3079 24.994 13.2735 25.0277 13.2391C25.0952 13.1702 25.1289 13.1014 25.1964 13.0669C26.0737 12.344 27.4571 8.45403 27.3896 7.31802C27.7608 7.62784 27.997 8.04093 28.1657 8.48845C29.1105 8.10978 29.819 7.97208 29.6841 6.62952L28.6381 7.18032C28.6381 7.18032 28.5706 6.76722 29.1442 6.28528C30.3252 5.25254 30.5276 3.90997 30.5614 2.42971C30.5951 2.15432 30.5276 1.87892 30.3927 1.63795C30.0215 1.0183 29.2454 0.846181 28.6381 1.19043C26.3436 2.29202 23.1719 3.39361 20.54 3.04936H20.4388C18.7855 2.70511 17.1321 2.53299 15.445 2.49856C13.7579 2.49856 12.1046 2.70511 10.4512 3.04936H10.3837C7.71813 3.39361 4.54639 2.29202 2.2182 1.19043C1.98201 1.0183 1.71208 0.949455 1.44214 0.983879C0.767305 1.05273 0.227436 1.67237 0.294919 2.39529C0.328661 3.87555 0.49737 5.21811 1.71208 6.25085C2.28569 6.7328 2.2182 7.14589 2.2182 7.14589L1.17221 6.5951C1.03724 7.93766 1.74582 8.07536 2.69059 8.45403C2.82556 8.00651 3.09549 7.59341 3.46665 7.28359C3.43291 8.4196 4.78259 12.344 5.65987 13.0325C5.72736 13.1014 5.79484 13.1358 5.82858 13.2046C5.89607 13.3079 5.89607 13.4112 5.79484 13.48C5.55865 13.6522 5.45742 13.6866 5.01878 13.48C4.98504 13.4456 4.91755 13.4456 4.88381 13.48C4.78259 13.5145 4.7151 13.6177 4.74884 13.721C4.78258 14.0652 4.95129 14.3751 5.18749 14.616C5.59239 14.7882 5.99729 14.8226 6.43594 14.7537H6.46968C6.5709 14.7537 6.63839 14.857 6.63839 14.9947C6.5709 15.3734 6.40219 15.4422 5.18749 15.7521C5.08626 15.7865 4.98504 15.8898 5.01878 15.993C5.05252 16.1307 5.08626 16.2684 5.15375 16.3717C5.18749 16.4405 5.22123 16.5438 5.25497 16.6127C5.55865 17.129 6.23348 17.3012 6.73961 16.9913C7.41445 16.4405 8.258 16.1996 9.13528 16.2684C9.20277 16.2684 9.23651 16.3029 9.27025 16.3717C9.33773 16.475 9.30399 16.5782 9.20277 16.6471L6.73961 18.0929C6.63839 18.1618 6.60465 18.2651 6.67213 18.3683C6.94206 18.8503 6.8071 19.1601 6.30097 19.4355C5.72736 19.7453 5.62613 21.4321 6.13226 21.9141C6.46968 22.2239 6.63839 23.6353 6.70587 24.668C6.70587 24.7369 6.67213 24.8402 6.5709 24.8746C6.46968 24.909 6.36845 24.8746 6.33471 24.7713C6.26723 24.5303 6.19974 24.2894 6.13226 24.1172C5.92981 23.3255 5.55865 22.5681 5.05252 21.9485C4.68136 21.501 3.97278 20.0207 4.85007 19.2634C4.91755 19.1945 4.91755 19.1257 4.85007 19.0224C4.78259 18.8503 4.61388 18.506 4.44517 18.0241C4.07401 17.129 3.63536 16.2684 3.12923 15.4422C3.09549 15.3734 2.4544 14.4439 2.38691 14.3406C2.38691 14.3406 3.46665 17.7143 3.77033 18.8503C3.77033 18.8847 3.77033 18.9191 3.77033 18.988C3.73659 19.0912 3.63536 19.1601 3.53414 19.0912C3.2642 18.988 2.96053 18.8503 2.69059 18.7814C2.65685 18.7814 2.62311 18.7814 2.58937 18.7814C2.48814 18.8159 2.42066 18.9191 2.4544 19.0224C2.79182 20.2273 3.06175 21.4321 3.50039 22.5681C3.93904 23.7042 4.47891 24.7713 5.01878 25.8729C5.05252 25.9073 5.05252 25.9762 5.01878 26.045C4.98504 26.1483 4.85007 26.1827 4.74884 26.1483C4.3102 25.9418 3.87156 25.6319 3.53414 25.2533C1.8133 23.3943 1.47588 21.2256 1.27343 18.7126C1.20595 18.0585 1.23969 17.4044 1.20595 16.7504C1.20595 16.6471 1.17221 16.1996 1.13847 16.1996C1.0035 16.3373 0.902273 16.5094 0.834789 16.7159C0.632338 17.3012 0.49737 17.9208 0.429887 18.5405C0.227436 19.7453 0.193694 20.9846 0.328661 22.2239C0.396145 22.637 0.531112 23.0501 0.733563 23.4288C1.8133 25.2533 2.99427 26.9745 4.14149 28.7646C4.24272 28.9023 4.3102 28.6269 4.37768 28.5925L4.47891 28.4892C4.74884 28.3515 4.85007 28.3171 4.95129 28.4203C4.98504 28.4892 5.01878 28.558 5.05252 28.6613C5.32245 29.2465 5.79484 30.2104 6.13226 30.8301C6.166 30.8989 6.23348 30.9333 6.30097 30.9333C6.40219 30.9333 6.50342 30.8301 6.50342 30.7268C6.50342 30.0383 6.50342 29.3498 6.50342 28.6613C6.50342 28.2482 6.50342 27.6974 7.07703 27.6974C7.65064 27.6974 7.65064 28.2138 7.68438 28.6613C7.68438 29.0744 7.68438 29.4531 7.68438 29.935C7.68438 29.9694 7.68438 30.0039 7.71813 30.0383C7.78561 30.1416 7.88684 30.176 7.98806 30.1071C8.46045 29.7285 9.00032 29.4531 9.57393 29.2465C10.485 28.8678 11.531 29.0055 12.307 29.5563L12.1721 29.4531C11.4972 28.799 10.5187 28.558 9.64141 28.7646C9.40522 28.8334 9.13528 28.8334 8.89909 28.8334C8.83161 28.8334 8.79787 28.799 8.76412 28.7302C8.6629 28.6613 8.6629 28.5925 8.6629 28.5236C9.00032 27.5597 10.1138 24.0484 7.85309 22.878C7.78561 22.8435 7.75187 22.7747 7.75187 22.7403C7.68438 22.0862 6.53716 19.2978 9.64141 17.5077C10.1475 17.9552 10.7212 18.988 11.4972 19.642C10.1475 19.9519 9.40522 19.0912 8.76412 18.5405C9.03406 20.1584 10.2825 20.2617 11.261 20.8813C10.4175 20.5027 9.57393 21.019 8.56167 20.4682C9.30399 21.8796 10.7212 21.1912 11.6322 21.9485C10.7886 22.4993 9.97883 22.1895 9.20277 22.1206C8.96657 22.0862 8.76412 22.0862 8.52793 22.155C8.69664 22.4304 8.93283 22.6714 9.16903 22.9124C9.4727 23.1534 9.81012 23.3255 10.1813 23.4288C10.5524 23.532 10.9573 23.5665 11.3285 23.4632C12.442 23.1189 13.5217 22.6714 14.6352 22.2583C14.8377 22.155 15.0064 21.9485 15.0738 21.7419C15.1413 21.3977 15.0738 20.9846 15.1076 20.6059C15.2088 20.124 14.9051 19.6765 14.4328 19.5732C13.4205 19.2978 12.5095 18.6437 11.8684 17.7831C11.6659 17.4733 11.4972 17.129 11.4297 16.7504C11.4297 16.7504 11.4297 16.7504 11.4297 16.7159C11.4297 16.3717 11.4972 16.0275 11.5984 15.7176C11.6659 15.4767 11.6659 15.2013 11.5647 14.9603L11.531 14.8914L11.2948 13.9275C11.2273 13.6177 11.0586 13.3768 10.7886 13.1702C10.7549 13.1702 10.7549 13.1358 10.7212 13.1358C10.6874 13.1014 10.6537 13.1014 10.6199 13.0669C10.215 12.8604 9.77638 12.6538 9.30399 12.5161C7.71813 11.8621 6.50342 10.5539 5.99729 8.86712C5.79484 8.31633 5.7611 7.73111 5.86232 7.14589C5.99729 7.45571 6.23348 8.07536 6.40219 8.4196C6.5709 8.93597 7.07703 9.2458 7.6169 9.17695C9.0678 9.17695 10.4512 9.41792 11.261 10.967C11.5984 11.7932 12.2058 12.4817 12.9819 12.8604C12.9819 12.4129 12.9144 11.9653 12.7794 11.5522C13.4542 11.2769 13.1843 10.8638 12.8131 10.4851C12.3408 9.93429 11.8346 9.41792 11.2948 8.8327C11.7334 8.72943 12.1383 8.48845 12.442 8.17863H9.60767C9.60767 8.14421 9.60767 8.10978 9.60767 8.07536C10.485 7.90323 11.2948 7.59341 12.0708 7.18032C10.7549 6.35413 8.0218 6.76722 7.54942 6.62952C7.54942 6.52625 7.92058 6.42297 8.32548 6.3197C9.23651 6.07873 9.57393 6.00988 10.485 5.76891C11.396 5.52793 12.2395 5.14926 13.0831 4.70174H9.37148C10.6199 3.97882 12.0371 3.49688 13.488 3.32476C14.2978 3.25591 14.9051 3.25591 15.4113 3.29033V2.94608V3.18706C15.9174 3.18706 16.491 3.18706 17.3346 3.22148C18.7855 3.39361 20.1689 3.87555 21.4511 4.59847H17.7395C18.5493 5.04599 19.4265 5.42466 20.3376 5.66563C21.2486 5.9066 21.586 5.97545 22.4971 6.21643C22.902 6.35413 23.2731 6.42297 23.2731 6.52625C22.8007 6.66395 20.0676 6.25085 18.7517 7.07704C19.5278 7.52456 20.3713 7.83438 21.2149 7.97208C21.2149 8.00651 21.2149 8.04093 21.2149 8.07536H18.3805C18.718 8.38518 19.0891 8.62615 19.5278 8.72943C19.0216 9.28022 18.5155 9.83101 18.0094 10.3818C17.6382 10.7949 17.3683 11.1736 18.0431 11.449C17.9082 11.8621 17.8407 12.3096 17.8407 12.7571C18.6167 12.344 19.2241 11.6555 19.5615 10.8638C20.3713 9.31465 21.7547 9.07367 23.2056 9.07367C23.7455 9.14252 24.2179 8.79828 24.4203 8.31633C24.5553 8.00651 24.7915 7.35244 24.9602 7.04262C25.0614 7.62784 25.0277 8.21306 24.8252 8.76385C24.3191 10.4162 23.1044 11.7588 21.5185 12.4129C21.0799 12.5506 20.6413 12.7227 20.2026 12.9637C20.1689 12.9637 20.1351 12.9981 20.1014 13.0325L20.0339 13.0669C19.7977 13.2391 19.5953 13.5145 19.5278 13.8243L19.2916 14.7882L19.2578 14.857C19.1904 15.098 19.1904 15.3734 19.2241 15.6144C19.3253 15.9242 19.3928 16.2684 19.3928 16.6127C19.3928 16.6127 19.3928 16.6127 19.3928 16.6471C19.2916 17.0258 19.1566 17.37 18.9542 17.6798C18.3131 18.5405 17.4358 19.1945 16.3898 19.4699C15.9174 19.5732 15.6137 20.0207 15.7149 20.5027C15.7487 20.8813 15.6812 21.26 15.7487 21.6387C15.8162 21.8796 15.9849 22.0518 16.1873 22.155C17.2671 22.6026 18.3805 23.0157 19.494 23.3599C19.8652 23.4632 20.2701 23.4632 20.6413 23.3255C21.0124 23.2222 21.3498 23.0501 21.6535 22.8091C21.8897 22.6026 22.0922 22.3272 22.2946 22.0518C22.0922 22.0173 21.856 21.9829 21.6198 22.0173C20.8437 22.1206 20.0676 22.396 19.1904 21.8452C20.0676 21.0879 21.5185 21.8108 22.2609 20.365C21.2486 20.9158 20.4051 20.3994 19.5615 20.7781C20.54 20.1928 21.7885 20.0896 22.0584 18.4372C21.3836 19.0224 20.675 19.8486 19.3253 19.5388C20.1014 18.8847 20.7087 17.852 21.1811 17.4044C24.3191 19.2289 23.1719 22.0173 23.0707 22.637C23.0707 22.7058 23.0032 22.7747 22.9694 22.7747C20.7087 23.9795 21.8222 27.4564 22.1596 28.4203C22.1596 28.4548 22.1596 28.4548 22.1596 28.4892C22.1596 28.5925 22.0922 28.6957 21.9909 28.6957C21.721 28.6957 21.4848 28.6957 21.2486 28.6269C20.3376 28.4203 19.3928 28.6957 18.718 29.3154L18.6167 29.5563C19.4265 29.0055 20.4725 28.8678 21.3836 29.2465C21.9572 29.4531 22.4633 29.7629 22.9694 30.1071C23.0032 30.1416 23.0369 30.1416 23.0707 30.1416C23.1719 30.1416 23.2731 30.0383 23.2731 29.935C23.2731 29.4875 23.2731 29.0744 23.2731 28.6613C23.2731 28.2138 23.3069 27.6974 23.8805 27.6974C24.4541 27.6974 24.4541 28.2138 24.4541 28.6613C24.4541 29.3498 24.4541 30.0383 24.4541 30.7268C24.4541 30.7956 24.4878 30.8645 24.5553 30.8989C24.6565 30.9678 24.7578 30.9333 24.8252 30.8301C25.1627 30.2104 25.635 29.2465 25.905 28.6613C25.9387 28.5925 25.9725 28.5236 26.0062 28.4203C26.1412 28.3171 26.2424 28.3515 26.4786 28.4892L26.5798 28.5925C26.6473 28.6269 26.7148 28.9367 26.816 28.7646C27.9632 26.9401 29.1442 25.2533 30.2239 23.4288C30.4264 23.0501 30.5614 22.637 30.6288 22.2239C30.7301 21.019 30.6963 19.7797 30.4939 18.5749ZM9.97883 17.3012C9.94509 17.3356 9.91135 17.3356 9.8776 17.37L9.97883 17.3012ZM5.55865 2.60184C5.7611 2.63626 5.96355 2.67069 6.13226 2.73954C5.96355 2.70511 5.7611 2.63626 5.55865 2.60184ZM7.00955 3.8067C6.26723 3.70343 5.82858 3.32476 4.68136 3.46245C4.41142 3.49688 4.17523 3.56573 3.93904 3.73785C4.44517 4.01325 6.23349 4.80502 6.19974 4.83944C5.99729 4.77059 4.98504 4.56404 4.7151 4.46077C4.88381 5.21811 4.51265 7.07704 5.96355 10.1064C6.50342 11.2424 7.27948 12.2407 8.22425 13.0669C8.35922 13.1702 8.46045 13.2391 8.59541 13.3079C5.32245 11.9653 4.74884 8.48845 4.07401 6.83607C4.07401 6.83607 4.07401 6.83607 4.07401 6.80165C4.07401 6.76722 4.04026 6.7328 4.00652 6.69837L3.60162 5.94103C3.06175 4.73617 2.55562 2.67069 5.28871 2.87724L8.49419 3.669C8.0218 3.8067 7.51568 3.84113 7.00955 3.8067ZM24.724 2.73954C24.9265 2.67069 25.1289 2.63626 25.3314 2.60184C25.1289 2.63626 24.9265 2.70511 24.724 2.73954ZM22.632 13.0325C23.5768 12.2063 24.3529 11.208 24.8927 10.072C26.3436 7.07704 25.9725 5.18369 26.1412 4.42634C25.8712 4.52962 24.859 4.77059 24.6565 4.83944C24.6565 4.77059 26.4449 3.97882 26.951 3.73785C26.7148 3.60015 26.4786 3.49688 26.2087 3.46245C25.0614 3.32476 24.6228 3.70343 23.8805 3.8067C23.3743 3.84113 22.8682 3.8067 22.3958 3.70343L25.6013 2.91166C28.3344 2.70511 27.8283 4.73617 27.2884 5.97545L26.8498 6.7328C26.816 6.76722 26.816 6.80165 26.7823 6.83607C26.7823 6.83607 26.7823 6.83607 26.7823 6.8705C26.1074 8.52288 25.5338 11.9998 22.2609 13.3423C22.3621 13.2046 22.4971 13.1014 22.632 13.0325Z" fill="#D71920"/>
<path d="M19.5278 27.0777C19.8315 26.8367 20.3376 27.1465 20.675 27.3531C21.0124 27.5596 21.2149 27.9727 21.5186 28.2137C21.3836 26.1826 19.4266 24.3925 16.4236 24.2204C16.0861 24.186 15.7487 24.186 15.445 24.186C15.1414 24.186 14.8039 24.2204 14.4665 24.2204C11.4635 24.3925 9.47274 26.1826 9.33777 28.2137C9.64145 27.9727 9.87764 27.5596 10.1813 27.3531C10.5187 27.1465 11.0249 26.8367 11.3285 27.0777C11.531 27.2154 11.3285 27.9039 11.4298 28.3169C13.2856 29.453 15.4788 29.3497 15.4113 28.0415C15.3438 29.3497 17.537 29.453 19.3928 28.3169C19.5278 27.9039 19.3254 27.2154 19.5278 27.0777Z" fill="#D71920"/>
<path d="M10.4851 11.2081C10.2826 10.8983 9.97893 10.6917 9.64151 10.554C8.96667 10.2786 8.79796 10.2442 8.79796 10.8294C8.79796 11.3114 8.76422 11.8621 9.50654 12.1031C9.91145 12.2408 10.4513 11.6212 10.4851 11.2081Z" fill="#D71920"/>
<path d="M21.4174 12.1031C22.1597 11.8622 22.1259 11.3114 22.1259 10.8294C22.1259 10.2442 21.9572 10.3131 21.2824 10.554C20.945 10.6917 20.6413 10.8983 20.4388 11.2081C20.4388 11.6212 20.9787 12.2408 21.4174 12.1031Z" fill="#D71920"/>
</svg>
