<svg width="120" height="40" viewBox="0 0 120 40" fill="none" xmlns="http://www.w3.org/2000/svg">
<path d="M100.924 7.73684C102.613 7.45615 103.759 5.83191 103.484 4.109C103.209 2.38609 101.617 1.21694 99.9278 1.49764C98.2391 1.77833 97.0932 3.40257 97.3683 5.12548C97.6434 6.84839 99.2354 8.01754 100.924 7.73684Z" fill="white"/>
<path d="M116.613 7.7802C118.342 7.7802 119.711 6.38423 119.711 4.61951C119.711 2.85479 118.342 1.45882 116.613 1.45882C114.883 1.45882 113.515 2.85479 113.515 4.61951C113.515 6.38423 114.909 7.7802 116.613 7.7802Z" fill="white"/>
<path d="M100.927 23.2247C102.615 22.944 103.761 21.3197 103.486 19.5968C103.211 17.8739 101.619 16.7048 99.9304 16.9855C98.2417 17.2661 97.0957 18.8904 97.3708 20.6133C97.646 22.3362 99.238 23.5054 100.927 23.2247Z" fill="white"/>
<path d="M116.613 16.9201C114.883 16.9201 113.515 18.3161 113.515 20.0808C113.515 21.8456 114.883 23.2415 116.613 23.2415C118.342 23.2415 119.711 21.8456 119.711 20.0808C119.711 18.3425 118.342 16.9201 116.613 16.9201Z" fill="white"/>
<path d="M109.29 15.4366C110.956 15.0375 111.989 13.3364 111.598 11.6371C111.207 9.93775 109.539 8.88365 107.874 9.28269C106.208 9.68174 105.175 11.3828 105.566 13.0822C105.957 14.7815 107.624 15.8356 109.29 15.4366Z" fill="white"/>
<path d="M42.622 1.45882H34.1283C29.4297 1.45882 25.6346 5.67307 25.6346 10.8355V12.1262V12.2315V12.4686V12.5739V13.8645C25.6346 19.027 29.4297 23.2413 34.1283 23.2413H42.622C42.8544 23.2413 43.0867 23.0042 43.0867 22.7672V19.8699C43.0867 19.6328 42.8544 19.3958 42.622 19.3958H34.9287C34.9287 19.3958 33.896 19.3958 32.9666 18.9217C31.9339 18.4475 31.4692 17.631 31.4692 17.631C31.4692 17.631 31.1336 17.1569 30.9012 16.4458C30.6689 15.6293 30.6689 14.5757 30.6689 14.5757V14.1016H42.622C42.8544 14.1016 43.0867 13.8645 43.0867 13.6275V10.7302C43.0867 10.4931 42.8544 10.2561 42.622 10.2561H30.6689V10.019C30.6689 10.019 30.7722 8.96546 30.9012 8.14895C31.1336 7.33244 31.4692 6.96369 31.4692 6.96369C31.4692 6.96369 31.9339 6.14718 32.9666 5.67308C33.9993 5.19897 34.9287 5.19897 34.9287 5.19897H42.622C42.8544 5.19897 43.0867 4.96192 43.0867 4.72487V1.93292C43.0867 1.69587 42.8544 1.45882 42.622 1.45882Z" fill="white"/>
<path d="M64.3339 19.1587H58.0088C58.0088 19.1587 57.2085 19.1587 56.4082 18.6846C55.6078 18.2105 55.1431 17.394 55.1431 17.394C55.1431 17.394 54.6784 16.9199 54.6784 16.1034C54.6784 15.3922 54.6784 14.4703 54.6784 14.4703V12.3632V1.80122C54.6784 1.56417 54.5752 1.45882 54.3428 1.45882H50.6769C50.4445 1.45882 50.2122 1.69587 50.2122 1.93292C50.2122 1.93292 50.2122 1.93292 50.2122 2.03828V12.4686V13.8645V16.1034V16.2087C50.3154 19.9489 53.4392 23.0042 57.3376 23.0042H64.3339C64.5662 23.0042 64.6695 22.7672 64.6695 22.5301V19.6328C64.6953 19.3958 64.5662 19.1587 64.3339 19.1587Z" fill="white"/>
<path d="M92.1643 22.5564L83.5416 1.80122C83.4125 1.56417 83.3092 1.45882 83.0769 1.45882H81.3471H81.1148H79.3851C79.1527 1.45882 79.0495 1.56417 78.9204 1.80122L70.1943 22.5564V22.6618C70.1943 22.8462 70.3492 23.0042 70.5299 23.0042H74.4283C74.6606 23.0042 74.7639 22.8989 74.893 22.6618L76.726 17.8681H85.9167L87.7497 22.6618C87.8529 22.8989 87.982 23.0042 88.2144 23.0042H91.8287C92.0869 23.0306 92.2418 22.7935 92.1643 22.5564ZM78.0168 14.1279L81.2439 5.80477L84.471 14.1279H78.0168Z" fill="white"/>
<path d="M19.6452 22.5564L14.7143 14.1279C17.2443 13.5485 18.974 11.7837 18.974 7.9119C19.0773 2.74943 15.6437 1.56417 11.3839 1.45882H10.3512H1.1605C0.928151 1.45882 0.695801 1.69587 0.695801 1.93292V22.6881C0.695801 22.9252 0.928151 23.1622 1.1605 23.1622H4.82647C5.05882 23.1622 5.29117 22.9252 5.29117 22.6881V14.5757H10.4545L15.0499 22.7935C15.1531 23.0306 15.3855 23.1359 15.6178 23.1359H19.542C19.7743 23.1359 19.8776 23.0306 19.8776 22.7935C19.6452 22.6881 19.6452 22.5564 19.6452 22.5564ZM11.4872 10.7302L10.3254 10.8355H5.16209V5.33067H10.4545H11.4872C13.8881 5.33067 14.5852 6.51593 14.5852 8.01726C14.4819 9.54492 13.7849 10.7302 11.4872 10.7302Z" fill="white"/>
<path d="M7.02096 34.6199H5.29124C4.95562 34.6199 4.82654 34.7252 4.82654 35.094C4.82654 35.4364 5.05889 35.5681 5.29124 35.5681H6.65952V35.9105C6.65952 36.9641 6.19482 37.7806 5.39451 38.1493C5.05889 38.2547 4.59419 38.3864 4.23276 38.3864C3.66479 38.3864 3.20009 38.1493 2.86447 37.8069C2.2965 37.0958 1.93507 36.2793 1.93507 35.1203C1.93507 34.3038 2.16742 33.5927 2.50304 33.0132C2.96774 32.3021 3.66479 31.9596 4.46511 31.9596C4.92981 31.9596 5.16216 32.065 5.49777 32.1967C5.73012 32.302 5.96247 32.5391 6.29809 32.7762C6.40136 32.8815 6.53044 32.8815 6.63371 32.8815C6.73697 32.8815 6.86606 32.8815 6.96932 32.7762C7.07259 32.6708 7.07259 32.5391 7.07259 32.4337C7.07259 32.3284 7.07259 32.1967 6.96932 32.0913C6.73697 31.7489 6.40136 31.5119 5.93666 31.3802C5.36869 31.2748 4.90399 31.1431 4.33602 31.1431C3.76806 31.1431 3.30336 31.2485 2.83866 31.4855C2.50304 31.7226 2.1416 32.065 1.80599 32.4337C1.10894 33.2503 0.876587 34.1985 0.876587 35.3574C0.876587 36.3056 1.10894 37.1221 1.6769 37.9386C2.37395 38.7551 3.17427 39.2292 4.31021 39.2292C5.23961 39.2292 5.91084 39.1239 6.37554 38.6498C7.17586 37.9386 7.53729 37.0168 7.53729 35.5944V35.4891C7.58892 34.9886 7.35657 34.6199 7.02096 34.6199Z" fill="white"/>
<path d="M72.492 31.3538C72.1564 31.3538 72.0273 31.4592 72.0273 31.8279V38.8604C72.0273 39.2029 72.1306 39.3346 72.492 39.3346C72.8277 39.3346 72.9567 39.0975 72.9567 38.7551V31.8279C72.9567 31.4592 72.8535 31.3538 72.492 31.3538Z" fill="white"/>
<path d="M30.3333 38.8078C30.1268 38.2546 27.7 32.1176 27.5968 31.8542C27.5968 31.8542 27.5968 31.8542 27.5968 31.8279C27.5709 31.6962 27.5193 31.6172 27.4677 31.5382C27.3902 31.4328 27.2611 31.3538 27.0288 31.3538C27.003 31.3538 27.003 31.3538 26.9772 31.3538C26.9513 31.3538 26.9255 31.3538 26.9255 31.3538C26.8223 31.3538 26.6932 31.3538 26.5899 31.4592C26.5125 31.5382 26.4866 31.6172 26.435 31.7489C26.3834 31.8542 26.3576 31.9333 26.3576 31.9333L23.8275 38.7287V38.8341V38.9395C23.8275 39.1765 24.0599 39.2819 24.2922 39.2819C24.5246 39.2819 24.6278 39.1765 24.7569 38.9395L25.3765 37.5435H28.965C29.1458 38.0439 29.3007 38.4127 29.3265 38.4917C29.3523 38.5971 29.4039 38.7024 29.4297 38.8078L29.4814 38.9395C29.5072 38.9921 29.5072 39.0185 29.5846 39.0975C29.7395 39.2029 29.817 39.1765 29.9461 39.1765H29.9719C29.9719 39.1765 29.9719 39.1765 29.9977 39.1765C30.0493 39.1765 30.0752 39.1765 30.1268 39.1765H30.1526C30.2301 39.1502 30.2817 39.1238 30.3333 39.0975L30.3591 39.0712C30.4108 38.9658 30.4108 38.8604 30.4108 38.8604C30.4108 38.8604 30.3333 38.8341 30.3333 38.8078ZM25.5056 36.6216L27.003 32.5654C27.2353 33.1975 27.984 35.1203 28.552 36.6216H25.5056Z" fill="white"/>
<path d="M53.5425 31.1169C53.4393 31.0115 53.3102 31.0115 53.0778 31.0115C52.8455 31.0115 52.7422 31.0115 52.6131 31.1169C52.5099 31.2222 52.3808 31.3539 52.3808 31.4593L50.7801 37.3329L49.1795 31.591C49.1795 31.4856 49.0762 31.3539 48.9472 31.2486C48.8439 31.1432 48.7148 31.1432 48.4825 31.1432C48.3792 31.1432 48.1468 31.2486 48.0178 31.3803C47.9145 31.4856 47.7854 31.6173 47.7854 31.8544L46.6237 38.5445C46.6237 38.6499 46.6237 38.6499 46.6237 38.7816C46.6237 39.124 46.856 39.361 47.0884 39.361C47.424 39.361 47.6563 39.2557 47.6563 38.8869L48.5341 32.6972C48.8697 33.8825 50.2122 38.5182 50.3413 38.9133C50.4962 39.361 51.1932 39.3874 51.3223 38.8869L53.1295 32.5129L54.0847 38.9923C54.1105 39.282 54.317 39.361 54.5494 39.361C54.885 39.361 55.0141 39.124 55.0141 38.6499L53.7491 31.6173C53.7749 31.3539 53.6716 31.2222 53.5425 31.1169Z" fill="white"/>
<path d="M95.8303 31.6964C95.8303 31.354 95.727 31.2223 95.3656 31.2223C95.2623 31.2223 95.1332 31.2223 95.03 31.3276C94.9267 31.433 94.9267 31.5647 94.9267 31.67V37.412L90.8993 31.433C90.667 31.1959 90.5637 31.0906 90.3313 31.0906C90.099 31.0906 89.9957 31.1959 89.9957 31.5647V38.5972C89.9957 38.9396 90.099 39.0713 90.4604 39.0713C90.796 39.0713 90.9251 38.966 90.9251 38.5972V32.8553L94.8493 38.8343C95.0816 39.0713 95.1849 39.1767 95.4172 39.1767C95.7528 39.1767 95.8819 39.0713 95.8819 38.7026V31.6964H95.8303Z" fill="white"/>
<path d="M118.936 34.6199H117.206C116.871 34.6199 116.742 34.7252 116.742 35.094C116.742 35.4364 116.974 35.5681 117.206 35.5681H118.575V35.9105C118.575 36.9641 118.11 37.7806 117.31 38.1493C116.974 38.2547 116.509 38.3864 116.148 38.3864C115.58 38.3864 115.115 38.1493 114.78 37.8069C114.212 37.0958 113.85 36.2793 113.85 35.1203C113.85 34.3038 114.083 33.5927 114.418 33.0132C114.883 32.3021 115.58 31.9596 116.38 31.9596C116.845 31.9596 117.077 32.065 117.413 32.1967C117.645 32.302 117.878 32.5391 118.213 32.7762C118.317 32.8815 118.446 32.8815 118.549 32.8815C118.652 32.8815 118.781 32.8815 118.884 32.7762C118.988 32.6708 118.988 32.5391 118.988 32.4337C118.988 32.3284 118.988 32.1967 118.884 32.0913C118.652 31.7489 118.317 31.5119 117.852 31.3802C117.284 31.2748 116.819 31.1431 116.251 31.1431C115.683 31.1431 115.219 31.2485 114.754 31.4855C114.418 31.7226 114.057 32.065 113.721 32.4337C113.024 33.2503 112.792 34.1985 112.792 35.3574C112.792 36.3056 113.024 37.1221 113.592 37.9386C114.289 38.7551 115.089 39.2292 116.225 39.2292C117.155 39.2292 117.826 39.1239 118.291 38.6498C119.091 37.9386 119.452 37.0168 119.452 35.5944V35.4891C119.504 34.9886 119.272 34.6199 118.936 34.6199Z" fill="white"/>
</svg>
