<svg width="379" height="203" viewBox="0 0 379 203" fill="none" xmlns="http://www.w3.org/2000/svg">
<path d="M26.084 16.5781V11H52.3652V16.5781H42.5684V43H35.8809V16.5781H26.084Z" fill="url(#paint0_linear_6_6205)"/>
<path d="M64.0254 43.4688C61.5566 43.4688 59.4316 42.9688 57.6504 41.9688C55.8796 40.9583 54.515 39.5313 53.5566 37.6875C52.5983 35.8333 52.1191 33.6406 52.1191 31.1094C52.1191 28.6406 52.5983 26.474 53.5566 24.6094C54.515 22.7448 55.8639 21.2917 57.6035 20.25C59.3535 19.2083 61.4056 18.6875 63.7598 18.6875C65.3431 18.6875 66.8171 18.9427 68.1816 19.4531C69.5566 19.9531 70.7546 20.7083 71.7754 21.7188C72.8066 22.7292 73.6087 24 74.1816 25.5312C74.7546 27.0521 75.041 28.8333 75.041 30.875V32.7031H54.7754V28.5781H68.7754C68.7754 27.6198 68.5671 26.7708 68.1504 26.0313C67.7337 25.2917 67.1556 24.7135 66.416 24.2969C65.6868 23.8698 64.8379 23.6563 63.8691 23.6563C62.8587 23.6563 61.9629 23.8906 61.1816 24.3594C60.4108 24.8177 59.8066 25.4375 59.3691 26.2188C58.9316 26.9896 58.7077 27.849 58.6973 28.7969V32.7188C58.6973 33.9062 58.916 34.9323 59.3535 35.7969C59.8014 36.6615 60.4316 37.3281 61.2441 37.7969C62.0566 38.2656 63.0202 38.5 64.1348 38.5C64.8743 38.5 65.5514 38.3958 66.166 38.1875C66.7806 37.9792 67.3066 37.6667 67.7441 37.25C68.1816 36.8333 68.515 36.3229 68.7441 35.7188L74.9004 36.125C74.5879 37.6042 73.9473 38.8958 72.9785 40C72.0202 41.0938 70.7806 41.9479 69.2598 42.5625C67.7493 43.1667 66.0046 43.4688 64.0254 43.4688Z" fill="url(#paint1_linear_6_6205)"/>
<path d="M84.5176 19L88.9238 27.3906L93.4395 19H100.268L93.3145 31L100.455 43H93.6582L88.9238 34.7031L84.2676 43H77.3926L84.5176 31L77.6426 19H84.5176Z" fill="url(#paint2_linear_6_6205)"/>
<path d="M116.986 19V24H102.533V19H116.986ZM105.814 13.25H112.471V35.625C112.471 36.2396 112.564 36.7188 112.752 37.0625C112.939 37.3958 113.2 37.6302 113.533 37.7656C113.877 37.901 114.273 37.9688 114.721 37.9688C115.033 37.9688 115.346 37.9427 115.658 37.8906C115.971 37.8281 116.21 37.7813 116.377 37.75L117.424 42.7031C117.09 42.8073 116.622 42.9271 116.018 43.0625C115.413 43.2083 114.679 43.2969 113.814 43.3281C112.21 43.3906 110.804 43.1771 109.596 42.6875C108.398 42.1979 107.465 41.4375 106.799 40.4063C106.132 39.375 105.804 38.0729 105.814 36.5V13.25Z" fill="url(#paint3_linear_6_6205)"/>
<path d="M161.037 27C161.037 30.4896 160.376 33.4583 159.053 35.9063C157.74 38.3542 155.949 40.224 153.678 41.5156C151.417 42.7969 148.876 43.4375 146.053 43.4375C143.209 43.4375 140.657 42.7917 138.396 41.5C136.136 40.2083 134.35 38.3385 133.037 35.8906C131.725 33.4427 131.068 30.4792 131.068 27C131.068 23.5104 131.725 20.5417 133.037 18.0938C134.35 15.6458 136.136 13.7813 138.396 12.5C140.657 11.2083 143.209 10.5625 146.053 10.5625C148.876 10.5625 151.417 11.2083 153.678 12.5C155.949 13.7813 157.74 15.6458 159.053 18.0938C160.376 20.5417 161.037 23.5104 161.037 27ZM154.178 27C154.178 24.7396 153.839 22.8333 153.162 21.2813C152.495 19.7292 151.553 18.5521 150.334 17.75C149.115 16.9479 147.688 16.5469 146.053 16.5469C144.417 16.5469 142.99 16.9479 141.771 17.75C140.553 18.5521 139.605 19.7292 138.928 21.2813C138.261 22.8333 137.928 24.7396 137.928 27C137.928 29.2604 138.261 31.1667 138.928 32.7188C139.605 34.2708 140.553 35.4479 141.771 36.25C142.99 37.0521 144.417 37.4531 146.053 37.4531C147.688 37.4531 149.115 37.0521 150.334 36.25C151.553 35.4479 152.495 34.2708 153.162 32.7188C153.839 31.1667 154.178 29.2604 154.178 27Z" fill="url(#paint4_linear_6_6205)"/>
<path d="M172.58 29.125V43H165.924V19H172.268V23.2344H172.549C173.08 21.8385 173.971 20.7344 175.221 19.9219C176.471 19.099 177.986 18.6875 179.768 18.6875C181.434 18.6875 182.887 19.0521 184.127 19.7813C185.367 20.5104 186.33 21.5521 187.018 22.9062C187.705 24.25 188.049 25.8542 188.049 27.7188V43H181.393V28.9063C181.403 27.4375 181.028 26.2917 180.268 25.4688C179.507 24.6354 178.46 24.2188 177.127 24.2188C176.231 24.2188 175.439 24.4115 174.752 24.7969C174.075 25.1823 173.544 25.7448 173.158 26.4844C172.783 27.2135 172.59 28.0938 172.58 29.125Z" fill="url(#paint5_linear_6_6205)"/>
<path d="M203.604 43V11H216.416C218.77 11 220.734 11.349 222.307 12.0469C223.88 12.7448 225.062 13.7135 225.854 14.9531C226.645 16.1823 227.041 17.599 227.041 19.2031C227.041 20.4531 226.791 21.5521 226.291 22.5C225.791 23.4375 225.104 24.2083 224.229 24.8125C223.364 25.4063 222.374 25.8281 221.26 26.0781V26.3906C222.479 26.4427 223.619 26.7865 224.682 27.4219C225.755 28.0573 226.624 28.9479 227.291 30.0938C227.958 31.2292 228.291 32.5833 228.291 34.1562C228.291 35.8542 227.869 37.3698 227.025 38.7031C226.192 40.026 224.958 41.0729 223.322 41.8438C221.687 42.6146 219.671 43 217.275 43H203.604ZM210.369 37.4688H215.885C217.77 37.4688 219.145 37.1094 220.01 36.3906C220.874 35.6615 221.307 34.6927 221.307 33.4844C221.307 32.599 221.093 31.8177 220.666 31.1406C220.239 30.4635 219.63 29.9323 218.838 29.5469C218.057 29.1615 217.124 28.9688 216.041 28.9688H210.369V37.4688ZM210.369 24.3906H215.385C216.312 24.3906 217.135 24.2292 217.854 23.9063C218.583 23.5729 219.156 23.1042 219.572 22.5C219.999 21.8958 220.213 21.1719 220.213 20.3281C220.213 19.1719 219.801 18.2396 218.979 17.5312C218.166 16.8229 217.01 16.4687 215.51 16.4687H210.369V24.3906Z" fill="url(#paint6_linear_6_6205)"/>
<path d="M239.412 43.4531C237.881 43.4531 236.516 43.1875 235.318 42.6562C234.12 42.1146 233.173 41.3177 232.475 40.2656C231.787 39.2031 231.443 37.8802 231.443 36.2969C231.443 34.9635 231.688 33.8438 232.178 32.9375C232.667 32.0313 233.334 31.3021 234.178 30.75C235.021 30.1979 235.98 29.7812 237.053 29.5C238.136 29.2188 239.271 29.0208 240.459 28.9063C241.855 28.7604 242.98 28.625 243.834 28.5C244.688 28.3646 245.308 28.1667 245.693 27.9062C246.079 27.6458 246.271 27.2604 246.271 26.75V26.6562C246.271 25.6667 245.959 24.901 245.334 24.3594C244.719 23.8177 243.844 23.5469 242.709 23.5469C241.511 23.5469 240.558 23.8125 239.85 24.3438C239.141 24.8646 238.673 25.5208 238.443 26.3125L232.287 25.8125C232.6 24.3542 233.214 23.0938 234.131 22.0313C235.048 20.9583 236.23 20.1354 237.678 19.5625C239.136 18.9792 240.824 18.6875 242.74 18.6875C244.074 18.6875 245.35 18.8438 246.568 19.1562C247.798 19.4688 248.886 19.9531 249.834 20.6094C250.792 21.2656 251.548 22.1094 252.1 23.1406C252.652 24.1615 252.928 25.3854 252.928 26.8125V43H246.615V39.6719H246.428C246.042 40.4219 245.527 41.0833 244.881 41.6563C244.235 42.2188 243.459 42.6615 242.553 42.9844C241.646 43.2969 240.6 43.4531 239.412 43.4531ZM241.318 38.8594C242.298 38.8594 243.162 38.6667 243.912 38.2813C244.662 37.8854 245.251 37.3542 245.678 36.6875C246.105 36.0208 246.318 35.2656 246.318 34.4219V31.875C246.11 32.0104 245.824 32.1354 245.459 32.25C245.105 32.3542 244.704 32.4531 244.256 32.5469C243.808 32.6302 243.36 32.7083 242.912 32.7812C242.464 32.8438 242.058 32.901 241.693 32.9531C240.912 33.0677 240.23 33.25 239.646 33.5C239.063 33.75 238.61 34.0885 238.287 34.5156C237.964 34.9323 237.803 35.4531 237.803 36.0781C237.803 36.9844 238.131 37.6771 238.787 38.1562C239.454 38.625 240.298 38.8594 241.318 38.8594Z" fill="url(#paint7_linear_6_6205)"/>
<path d="M264.748 29.125V43H258.092V19H264.436V23.2344H264.717C265.248 21.8385 266.139 20.7344 267.389 19.9219C268.639 19.099 270.154 18.6875 271.936 18.6875C273.602 18.6875 275.055 19.0521 276.295 19.7813C277.535 20.5104 278.498 21.5521 279.186 22.9062C279.873 24.25 280.217 25.8542 280.217 27.7188V43H273.561V28.9063C273.571 27.4375 273.196 26.2917 272.436 25.4688C271.675 24.6354 270.628 24.2188 269.295 24.2188C268.399 24.2188 267.607 24.4115 266.92 24.7969C266.243 25.1823 265.712 25.7448 265.326 26.4844C264.951 27.2135 264.758 28.0938 264.748 29.125Z" fill="url(#paint8_linear_6_6205)"/>
<path d="M292.119 29.125V43H285.463V19H291.807V23.2344H292.088C292.619 21.8385 293.51 20.7344 294.76 19.9219C296.01 19.099 297.525 18.6875 299.307 18.6875C300.973 18.6875 302.426 19.0521 303.666 19.7813C304.906 20.5104 305.869 21.5521 306.557 22.9062C307.244 24.25 307.588 25.8542 307.588 27.7188V43H300.932V28.9063C300.942 27.4375 300.567 26.2917 299.807 25.4688C299.046 24.6354 297.999 24.2188 296.666 24.2188C295.77 24.2188 294.979 24.4115 294.291 24.7969C293.614 25.1823 293.083 25.7448 292.697 26.4844C292.322 27.2135 292.13 28.0938 292.119 29.125Z" fill="url(#paint9_linear_6_6205)"/>
<path d="M323.771 43.4688C321.303 43.4688 319.178 42.9688 317.396 41.9688C315.626 40.9583 314.261 39.5313 313.303 37.6875C312.344 35.8333 311.865 33.6406 311.865 31.1094C311.865 28.6406 312.344 26.474 313.303 24.6094C314.261 22.7448 315.61 21.2917 317.35 20.25C319.1 19.2083 321.152 18.6875 323.506 18.6875C325.089 18.6875 326.563 18.9427 327.928 19.4531C329.303 19.9531 330.501 20.7083 331.521 21.7188C332.553 22.7292 333.355 24 333.928 25.5312C334.501 27.0521 334.787 28.8333 334.787 30.875V32.7031H314.521V28.5781H328.521C328.521 27.6198 328.313 26.7708 327.896 26.0313C327.48 25.2917 326.902 24.7135 326.162 24.2969C325.433 23.8698 324.584 23.6563 323.615 23.6563C322.605 23.6563 321.709 23.8906 320.928 24.3594C320.157 24.8177 319.553 25.4375 319.115 26.2188C318.678 26.9896 318.454 27.849 318.443 28.7969V32.7188C318.443 33.9062 318.662 34.9323 319.1 35.7969C319.548 36.6615 320.178 37.3281 320.99 37.7969C321.803 38.2656 322.766 38.5 323.881 38.5C324.62 38.5 325.298 38.3958 325.912 38.1875C326.527 37.9792 327.053 37.6667 327.49 37.25C327.928 36.8333 328.261 36.3229 328.49 35.7188L334.646 36.125C334.334 37.6042 333.693 38.8958 332.725 40C331.766 41.0938 330.527 41.9479 329.006 42.5625C327.495 43.1667 325.751 43.4688 323.771 43.4688Z" fill="url(#paint10_linear_6_6205)"/>
<path d="M339.131 43V19H345.584V23.1875H345.834C346.271 21.6979 347.006 20.5729 348.037 19.8125C349.068 19.0417 350.256 18.6562 351.6 18.6562C351.933 18.6562 352.292 18.6771 352.678 18.7188C353.063 18.7604 353.402 18.8177 353.693 18.8906V24.7969C353.381 24.7031 352.949 24.6198 352.396 24.5469C351.844 24.474 351.339 24.4375 350.881 24.4375C349.902 24.4375 349.027 24.651 348.256 25.0781C347.495 25.4948 346.891 26.0781 346.443 26.8281C346.006 27.5781 345.787 28.4427 345.787 29.4219V43H339.131Z" fill="url(#paint11_linear_6_6205)"/>
<path d="M69.498 73.2031C69.373 71.9427 68.8366 70.9635 67.8887 70.2656C66.9408 69.5677 65.6543 69.2188 64.0293 69.2188C62.9251 69.2188 61.9928 69.375 61.2324 69.6875C60.472 69.9896 59.8887 70.4115 59.4824 70.9531C59.0866 71.4948 58.8887 72.1094 58.8887 72.7969C58.8678 73.3698 58.9876 73.8698 59.248 74.2969C59.5189 74.724 59.8887 75.0938 60.3574 75.4062C60.8262 75.7083 61.3678 75.974 61.9824 76.2031C62.597 76.4219 63.2533 76.6094 63.9512 76.7656L66.8262 77.4531C68.222 77.7656 69.5033 78.1823 70.6699 78.7031C71.8366 79.224 72.847 79.8646 73.7012 80.625C74.5553 81.3854 75.2168 82.2812 75.6855 83.3125C76.1647 84.3438 76.4095 85.526 76.4199 86.8594C76.4095 88.8177 75.9095 90.5156 74.9199 91.9531C73.9408 93.3802 72.5241 94.4896 70.6699 95.2812C68.8262 96.0625 66.6022 96.4531 63.998 96.4531C61.4147 96.4531 59.1647 96.0573 57.248 95.2656C55.3418 94.474 53.8522 93.3021 52.7793 91.75C51.7168 90.1875 51.1595 88.2552 51.1074 85.9531H57.6543C57.7272 87.026 58.0345 87.9219 58.5762 88.6406C59.1283 89.349 59.8626 89.8854 60.7793 90.25C61.7064 90.6042 62.7533 90.7812 63.9199 90.7812C65.0658 90.7812 66.0605 90.6146 66.9043 90.2812C67.7585 89.9479 68.4199 89.4844 68.8887 88.8906C69.3574 88.2969 69.5918 87.6146 69.5918 86.8438C69.5918 86.125 69.3783 85.5208 68.9512 85.0312C68.5345 84.5417 67.9199 84.125 67.1074 83.7812C66.3053 83.4375 65.321 83.125 64.1543 82.8438L60.6699 81.9688C57.972 81.3125 55.8418 80.2865 54.2793 78.8906C52.7168 77.4948 51.9408 75.6146 51.9512 73.25C51.9408 71.3125 52.4564 69.6198 53.498 68.1719C54.5501 66.724 55.9928 65.5938 57.8262 64.7812C59.6595 63.9687 61.7428 63.5625 64.0762 63.5625C66.4512 63.5625 68.5241 63.9687 70.2949 64.7812C72.0762 65.5938 73.4616 66.724 74.4512 68.1719C75.4408 69.6198 75.9512 71.2969 75.9824 73.2031H69.498Z" fill="url(#paint12_linear_6_6205)"/>
<path d="M80.8457 105V72H87.4082V76.0312H87.7051C87.9967 75.3854 88.4186 74.7292 88.9707 74.0625C89.5332 73.3854 90.2624 72.8229 91.1582 72.375C92.0645 71.9167 93.1895 71.6875 94.5332 71.6875C96.2832 71.6875 97.8978 72.1458 99.377 73.0625C100.856 73.9687 102.038 75.3385 102.924 77.1719C103.809 78.9948 104.252 81.2812 104.252 84.0312C104.252 86.7083 103.82 88.9688 102.955 90.8125C102.101 92.6458 100.934 94.0365 99.4551 94.9844C97.9863 95.9219 96.3405 96.3906 94.5176 96.3906C93.2259 96.3906 92.127 96.1771 91.2207 95.75C90.3249 95.3229 89.5905 94.7865 89.0176 94.1406C88.4447 93.4844 88.0072 92.8229 87.7051 92.1562H87.502V105H80.8457ZM87.3613 84C87.3613 85.4271 87.5592 86.6719 87.9551 87.7344C88.3509 88.7969 88.9238 89.625 89.6738 90.2188C90.4238 90.8021 91.3353 91.0938 92.4082 91.0938C93.4915 91.0938 94.4082 90.7969 95.1582 90.2031C95.9082 89.599 96.4759 88.7656 96.8613 87.7031C97.2572 86.6302 97.4551 85.3958 97.4551 84C97.4551 82.6146 97.2624 81.3958 96.877 80.3438C96.4915 79.2917 95.9238 78.4688 95.1738 77.875C94.4238 77.2813 93.502 76.9844 92.4082 76.9844C91.3249 76.9844 90.4082 77.2708 89.6582 77.8438C88.9186 78.4167 88.3509 79.2292 87.9551 80.2812C87.5592 81.3333 87.3613 82.5729 87.3613 84Z" fill="url(#paint13_linear_6_6205)"/>
<path d="M119.627 96.4688C117.158 96.4688 115.033 95.9688 113.252 94.9688C111.481 93.9583 110.117 92.5313 109.158 90.6875C108.2 88.8333 107.721 86.6406 107.721 84.1094C107.721 81.6406 108.2 79.474 109.158 77.6094C110.117 75.7448 111.465 74.2917 113.205 73.25C114.955 72.2083 117.007 71.6875 119.361 71.6875C120.945 71.6875 122.419 71.9427 123.783 72.4531C125.158 72.9531 126.356 73.7083 127.377 74.7188C128.408 75.7292 129.21 77 129.783 78.5312C130.356 80.0521 130.643 81.8333 130.643 83.875V85.7031H110.377V81.5781H124.377C124.377 80.6198 124.169 79.7708 123.752 79.0312C123.335 78.2917 122.757 77.7135 122.018 77.2969C121.288 76.8698 120.439 76.6562 119.471 76.6562C118.46 76.6562 117.564 76.8906 116.783 77.3594C116.012 77.8177 115.408 78.4375 114.971 79.2188C114.533 79.9896 114.309 80.849 114.299 81.7969V85.7188C114.299 86.9062 114.518 87.9323 114.955 88.7969C115.403 89.6615 116.033 90.3281 116.846 90.7969C117.658 91.2656 118.622 91.5 119.736 91.5C120.476 91.5 121.153 91.3958 121.768 91.1875C122.382 90.9792 122.908 90.6667 123.346 90.25C123.783 89.8333 124.117 89.3229 124.346 88.7188L130.502 89.125C130.189 90.6042 129.549 91.8958 128.58 93C127.622 94.0938 126.382 94.9479 124.861 95.5625C123.351 96.1667 121.606 96.4688 119.627 96.4688Z" fill="url(#paint14_linear_6_6205)"/>
<path d="M145.83 96.4688C143.372 96.4688 141.257 95.9479 139.486 94.9062C137.726 93.8542 136.372 92.3958 135.424 90.5312C134.486 88.6667 134.018 86.5208 134.018 84.0938C134.018 81.6354 134.492 79.4792 135.439 77.625C136.398 75.7604 137.757 74.3073 139.518 73.2656C141.278 72.2135 143.372 71.6875 145.799 71.6875C147.893 71.6875 149.726 72.0677 151.299 72.8281C152.872 73.5885 154.117 74.6562 155.033 76.0312C155.95 77.4062 156.455 79.0208 156.549 80.875H150.268C150.09 79.6771 149.622 78.7135 148.861 77.9844C148.111 77.2448 147.127 76.875 145.908 76.875C144.877 76.875 143.976 77.1563 143.205 77.7188C142.445 78.2708 141.851 79.0781 141.424 80.1406C140.997 81.2031 140.783 82.4896 140.783 84C140.783 85.5312 140.992 86.8333 141.408 87.9062C141.835 88.9792 142.434 89.7969 143.205 90.3594C143.976 90.9219 144.877 91.2031 145.908 91.2031C146.669 91.2031 147.351 91.0469 147.955 90.7344C148.57 90.4219 149.075 89.9688 149.471 89.375C149.877 88.7708 150.143 88.0469 150.268 87.2031H156.549C156.445 89.0365 155.945 90.651 155.049 92.0469C154.163 93.4323 152.939 94.5156 151.377 95.2969C149.814 96.0781 147.965 96.4688 145.83 96.4688Z" fill="url(#paint15_linear_6_6205)"/>
<path d="M160.811 96V72H167.467V96H160.811ZM164.154 68.9062C163.165 68.9062 162.316 68.5781 161.607 67.9219C160.91 67.2552 160.561 66.4583 160.561 65.5312C160.561 64.6146 160.91 63.8281 161.607 63.1719C162.316 62.5052 163.165 62.1719 164.154 62.1719C165.144 62.1719 165.988 62.5052 166.686 63.1719C167.394 63.8281 167.748 64.6146 167.748 65.5312C167.748 66.4583 167.394 67.2552 166.686 67.9219C165.988 68.5781 165.144 68.9062 164.154 68.9062Z" fill="url(#paint16_linear_6_6205)"/>
<path d="M179.643 96.4531C178.111 96.4531 176.747 96.1875 175.549 95.6562C174.351 95.1146 173.403 94.3177 172.705 93.2656C172.018 92.2031 171.674 90.8802 171.674 89.2969C171.674 87.9635 171.919 86.8438 172.408 85.9375C172.898 85.0313 173.564 84.3021 174.408 83.75C175.252 83.1979 176.21 82.7812 177.283 82.5C178.367 82.2188 179.502 82.0208 180.689 81.9062C182.085 81.7604 183.21 81.625 184.064 81.5C184.919 81.3646 185.538 81.1667 185.924 80.9062C186.309 80.6458 186.502 80.2604 186.502 79.75V79.6562C186.502 78.6667 186.189 77.901 185.564 77.3594C184.95 76.8177 184.075 76.5469 182.939 76.5469C181.742 76.5469 180.788 76.8125 180.08 77.3438C179.372 77.8646 178.903 78.5208 178.674 79.3125L172.518 78.8125C172.83 77.3542 173.445 76.0937 174.361 75.0312C175.278 73.9583 176.46 73.1354 177.908 72.5625C179.367 71.9792 181.054 71.6875 182.971 71.6875C184.304 71.6875 185.58 71.8438 186.799 72.1562C188.028 72.4688 189.117 72.9531 190.064 73.6094C191.023 74.2656 191.778 75.1094 192.33 76.1406C192.882 77.1615 193.158 78.3854 193.158 79.8125V96H186.846V92.6719H186.658C186.273 93.4219 185.757 94.0833 185.111 94.6562C184.465 95.2188 183.689 95.6615 182.783 95.9844C181.877 96.2969 180.83 96.4531 179.643 96.4531ZM181.549 91.8594C182.528 91.8594 183.393 91.6667 184.143 91.2812C184.893 90.8854 185.481 90.3542 185.908 89.6875C186.335 89.0208 186.549 88.2656 186.549 87.4219V84.875C186.34 85.0104 186.054 85.1354 185.689 85.25C185.335 85.3542 184.934 85.4531 184.486 85.5469C184.038 85.6302 183.59 85.7083 183.143 85.7812C182.695 85.8438 182.288 85.901 181.924 85.9531C181.143 86.0677 180.46 86.25 179.877 86.5C179.294 86.75 178.84 87.0885 178.518 87.5156C178.195 87.9323 178.033 88.4531 178.033 89.0781C178.033 89.9844 178.361 90.6771 179.018 91.1562C179.684 91.625 180.528 91.8594 181.549 91.8594Z" fill="url(#paint17_linear_6_6205)"/>
<path d="M204.979 64V96H198.322V64H204.979Z" fill="url(#paint18_linear_6_6205)"/>
<path d="M250.025 80C250.025 83.4896 249.364 86.4583 248.041 88.9062C246.729 91.3542 244.937 93.224 242.666 94.5156C240.406 95.7969 237.864 96.4375 235.041 96.4375C232.197 96.4375 229.645 95.7917 227.385 94.5C225.124 93.2083 223.338 91.3385 222.025 88.8906C220.713 86.4427 220.057 83.4792 220.057 80C220.057 76.5104 220.713 73.5417 222.025 71.0938C223.338 68.6458 225.124 66.7812 227.385 65.5C229.645 64.2083 232.197 63.5625 235.041 63.5625C237.864 63.5625 240.406 64.2083 242.666 65.5C244.937 66.7812 246.729 68.6458 248.041 71.0938C249.364 73.5417 250.025 76.5104 250.025 80ZM243.166 80C243.166 77.7396 242.827 75.8333 242.15 74.2812C241.484 72.7292 240.541 71.5521 239.322 70.75C238.104 69.9479 236.676 69.5469 235.041 69.5469C233.406 69.5469 231.979 69.9479 230.76 70.75C229.541 71.5521 228.593 72.7292 227.916 74.2812C227.249 75.8333 226.916 77.7396 226.916 80C226.916 82.2604 227.249 84.1667 227.916 85.7188C228.593 87.2708 229.541 88.4479 230.76 89.25C231.979 90.0521 233.406 90.4531 235.041 90.4531C236.676 90.4531 238.104 90.0521 239.322 89.25C240.541 88.4479 241.484 87.2708 242.15 85.7188C242.827 84.1667 243.166 82.2604 243.166 80Z" fill="url(#paint19_linear_6_6205)"/>
<path d="M267.818 72V77H253.006V72H267.818ZM256.396 96V70.2656C256.396 68.526 256.735 67.0833 257.412 65.9375C258.1 64.7917 259.037 63.9323 260.225 63.3594C261.412 62.7865 262.761 62.5 264.271 62.5C265.292 62.5 266.225 62.5781 267.068 62.7344C267.923 62.8906 268.558 63.0312 268.975 63.1562L267.787 68.1562C267.527 68.0729 267.204 67.9948 266.818 67.9219C266.443 67.849 266.058 67.8125 265.662 67.8125C264.683 67.8125 264.001 68.0417 263.615 68.5C263.23 68.9479 263.037 69.5781 263.037 70.3906V96H256.396Z" fill="url(#paint20_linear_6_6205)"/>
<path d="M284.791 72V77H269.979V72H284.791ZM273.369 96V70.2656C273.369 68.526 273.708 67.0833 274.385 65.9375C275.072 64.7917 276.01 63.9323 277.197 63.3594C278.385 62.7865 279.734 62.5 281.244 62.5C282.265 62.5 283.197 62.5781 284.041 62.7344C284.895 62.8906 285.531 63.0312 285.947 63.1562L284.76 68.1562C284.499 68.0729 284.176 67.9948 283.791 67.9219C283.416 67.849 283.031 67.8125 282.635 67.8125C281.656 67.8125 280.973 68.0417 280.588 68.5C280.202 68.9479 280.01 69.5781 280.01 70.3906V96H273.369Z" fill="url(#paint21_linear_6_6205)"/>
<path d="M298.936 96.4688C296.467 96.4688 294.342 95.9688 292.561 94.9688C290.79 93.9583 289.425 92.5313 288.467 90.6875C287.508 88.8333 287.029 86.6406 287.029 84.1094C287.029 81.6406 287.508 79.474 288.467 77.6094C289.425 75.7448 290.774 74.2917 292.514 73.25C294.264 72.2083 296.316 71.6875 298.67 71.6875C300.253 71.6875 301.727 71.9427 303.092 72.4531C304.467 72.9531 305.665 73.7083 306.686 74.7188C307.717 75.7292 308.519 77 309.092 78.5312C309.665 80.0521 309.951 81.8333 309.951 83.875V85.7031H289.686V81.5781H303.686C303.686 80.6198 303.477 79.7708 303.061 79.0312C302.644 78.2917 302.066 77.7135 301.326 77.2969C300.597 76.8698 299.748 76.6562 298.779 76.6562C297.769 76.6562 296.873 76.8906 296.092 77.3594C295.321 77.8177 294.717 78.4375 294.279 79.2188C293.842 79.9896 293.618 80.849 293.607 81.7969V85.7188C293.607 86.9062 293.826 87.9323 294.264 88.7969C294.712 89.6615 295.342 90.3281 296.154 90.7969C296.967 91.2656 297.93 91.5 299.045 91.5C299.785 91.5 300.462 91.3958 301.076 91.1875C301.691 90.9792 302.217 90.6667 302.654 90.25C303.092 89.8333 303.425 89.3229 303.654 88.7188L309.811 89.125C309.498 90.6042 308.857 91.8958 307.889 93C306.93 94.0938 305.691 94.9479 304.17 95.5625C302.66 96.1667 300.915 96.4688 298.936 96.4688Z" fill="url(#paint22_linear_6_6205)"/>
<path d="M314.295 96V72H320.748V76.1875H320.998C321.436 74.6979 322.17 73.5729 323.201 72.8125C324.232 72.0417 325.42 71.6562 326.764 71.6562C327.097 71.6562 327.456 71.6771 327.842 71.7188C328.227 71.7604 328.566 71.8177 328.857 71.8906V77.7969C328.545 77.7031 328.113 77.6198 327.561 77.5469C327.008 77.474 326.503 77.4375 326.045 77.4375C325.066 77.4375 324.191 77.651 323.42 78.0781C322.66 78.4948 322.055 79.0781 321.607 79.8281C321.17 80.5781 320.951 81.4427 320.951 82.4219V96H314.295Z" fill="url(#paint23_linear_6_6205)"/>
<defs>
<linearGradient id="paint0_linear_6_6205" x1="167" y1="-46" x2="265" y2="134" gradientUnits="userSpaceOnUse">
<stop stop-color="white"/>
<stop offset="1" stop-color="#919191"/>
</linearGradient>
<linearGradient id="paint1_linear_6_6205" x1="167" y1="-46" x2="265" y2="134" gradientUnits="userSpaceOnUse">
<stop stop-color="white"/>
<stop offset="1" stop-color="#919191"/>
</linearGradient>
<linearGradient id="paint2_linear_6_6205" x1="167" y1="-46" x2="265" y2="134" gradientUnits="userSpaceOnUse">
<stop stop-color="white"/>
<stop offset="1" stop-color="#919191"/>
</linearGradient>
<linearGradient id="paint3_linear_6_6205" x1="167" y1="-46" x2="265" y2="134" gradientUnits="userSpaceOnUse">
<stop stop-color="white"/>
<stop offset="1" stop-color="#919191"/>
</linearGradient>
<linearGradient id="paint4_linear_6_6205" x1="167" y1="-46" x2="265" y2="134" gradientUnits="userSpaceOnUse">
<stop stop-color="white"/>
<stop offset="1" stop-color="#919191"/>
</linearGradient>
<linearGradient id="paint5_linear_6_6205" x1="167" y1="-46" x2="265" y2="134" gradientUnits="userSpaceOnUse">
<stop stop-color="white"/>
<stop offset="1" stop-color="#919191"/>
</linearGradient>
<linearGradient id="paint6_linear_6_6205" x1="167" y1="-46" x2="265" y2="134" gradientUnits="userSpaceOnUse">
<stop stop-color="white"/>
<stop offset="1" stop-color="#919191"/>
</linearGradient>
<linearGradient id="paint7_linear_6_6205" x1="167" y1="-46" x2="265" y2="134" gradientUnits="userSpaceOnUse">
<stop stop-color="white"/>
<stop offset="1" stop-color="#919191"/>
</linearGradient>
<linearGradient id="paint8_linear_6_6205" x1="167" y1="-46" x2="265" y2="134" gradientUnits="userSpaceOnUse">
<stop stop-color="white"/>
<stop offset="1" stop-color="#919191"/>
</linearGradient>
<linearGradient id="paint9_linear_6_6205" x1="167" y1="-46" x2="265" y2="134" gradientUnits="userSpaceOnUse">
<stop stop-color="white"/>
<stop offset="1" stop-color="#919191"/>
</linearGradient>
<linearGradient id="paint10_linear_6_6205" x1="167" y1="-46" x2="265" y2="134" gradientUnits="userSpaceOnUse">
<stop stop-color="white"/>
<stop offset="1" stop-color="#919191"/>
</linearGradient>
<linearGradient id="paint11_linear_6_6205" x1="167" y1="-46" x2="265" y2="134" gradientUnits="userSpaceOnUse">
<stop stop-color="white"/>
<stop offset="1" stop-color="#919191"/>
</linearGradient>
<linearGradient id="paint12_linear_6_6205" x1="167" y1="-46" x2="265" y2="134" gradientUnits="userSpaceOnUse">
<stop stop-color="white"/>
<stop offset="1" stop-color="#919191"/>
</linearGradient>
<linearGradient id="paint13_linear_6_6205" x1="167" y1="-46" x2="265" y2="134" gradientUnits="userSpaceOnUse">
<stop stop-color="white"/>
<stop offset="1" stop-color="#919191"/>
</linearGradient>
<linearGradient id="paint14_linear_6_6205" x1="167" y1="-46" x2="265" y2="134" gradientUnits="userSpaceOnUse">
<stop stop-color="white"/>
<stop offset="1" stop-color="#919191"/>
</linearGradient>
<linearGradient id="paint15_linear_6_6205" x1="167" y1="-46" x2="265" y2="134" gradientUnits="userSpaceOnUse">
<stop stop-color="white"/>
<stop offset="1" stop-color="#919191"/>
</linearGradient>
<linearGradient id="paint16_linear_6_6205" x1="167" y1="-46" x2="265" y2="134" gradientUnits="userSpaceOnUse">
<stop stop-color="white"/>
<stop offset="1" stop-color="#919191"/>
</linearGradient>
<linearGradient id="paint17_linear_6_6205" x1="167" y1="-46" x2="265" y2="134" gradientUnits="userSpaceOnUse">
<stop stop-color="white"/>
<stop offset="1" stop-color="#919191"/>
</linearGradient>
<linearGradient id="paint18_linear_6_6205" x1="167" y1="-46" x2="265" y2="134" gradientUnits="userSpaceOnUse">
<stop stop-color="white"/>
<stop offset="1" stop-color="#919191"/>
</linearGradient>
<linearGradient id="paint19_linear_6_6205" x1="167" y1="-46" x2="265" y2="134" gradientUnits="userSpaceOnUse">
<stop stop-color="white"/>
<stop offset="1" stop-color="#919191"/>
</linearGradient>
<linearGradient id="paint20_linear_6_6205" x1="167" y1="-46" x2="265" y2="134" gradientUnits="userSpaceOnUse">
<stop stop-color="white"/>
<stop offset="1" stop-color="#919191"/>
</linearGradient>
<linearGradient id="paint21_linear_6_6205" x1="167" y1="-46" x2="265" y2="134" gradientUnits="userSpaceOnUse">
<stop stop-color="white"/>
<stop offset="1" stop-color="#919191"/>
</linearGradient>
<linearGradient id="paint22_linear_6_6205" x1="167" y1="-46" x2="265" y2="134" gradientUnits="userSpaceOnUse">
<stop stop-color="white"/>
<stop offset="1" stop-color="#919191"/>
</linearGradient>
<linearGradient id="paint23_linear_6_6205" x1="167" y1="-46" x2="265" y2="134" gradientUnits="userSpaceOnUse">
<stop stop-color="white"/>
<stop offset="1" stop-color="#919191"/>
</linearGradient>
</defs>
</svg>
