<svg width="232" height="29" viewBox="0 0 232 29" fill="none" xmlns="http://www.w3.org/2000/svg">
<path d="M1.03615 0.568359H23.971L24.1363 9.61832H22.8759C21.8566 4.48036 19.7421 1.91139 16.5326 1.91139H15.8921V26.9124H20.0865V28.2761H4.94126V26.9124H9.11499V1.91139H8.49513C5.28563 1.91139 3.16433 4.48036 2.13123 9.61832H0.87085L1.03615 0.568359Z" fill="url(#paint0_linear_6_22099)"/>
<path d="M33.0416 28.7927C30.2729 28.7927 28.0621 27.9111 26.4091 26.1479C24.7561 24.3848 23.9297 22.3323 23.9297 19.9906C23.9297 17.6214 24.7699 15.5552 26.4504 13.792C28.1309 12.0289 30.328 11.1473 33.0416 11.1473C35.7828 11.1473 37.9936 12.022 39.6741 13.7714C41.3684 15.507 42.2155 17.5801 42.2155 19.9906C42.2155 22.3874 41.3753 24.4536 39.6948 26.1892C38.028 27.9248 35.8103 28.7927 33.0416 28.7927ZM33.0416 12.2011C32.3115 12.2011 31.7261 12.3801 31.2853 12.7383C30.8445 13.0826 30.5759 13.6199 30.4795 14.3499C30.3831 15.0662 30.3349 16.9464 30.3349 19.9906C30.3349 22.9522 30.3762 24.7704 30.4588 25.4454C30.5553 26.1204 30.8308 26.6714 31.2853 27.0984C31.7537 27.5116 32.3804 27.7182 33.1656 27.7182C33.7992 27.7182 34.3502 27.5392 34.8185 27.181C35.3006 26.8091 35.5899 26.1479 35.6863 25.1975C35.7828 24.2332 35.831 22.6078 35.831 20.3212C35.831 16.7536 35.6932 14.5083 35.4177 13.5854C35.1422 12.6625 34.3502 12.2011 33.0416 12.2011Z" fill="url(#paint1_linear_6_22099)"/>
<path d="M63.3527 11.6432V27.057H65.7082V28.2761H62.237C60.5014 28.2761 59.3719 28.3174 58.8484 28.4001C58.3388 28.4965 57.96 28.5516 57.712 28.5654V25.1768H57.6294C57.0784 26.2237 56.245 27.0502 55.1293 27.6562C54.0273 28.2623 52.8289 28.5654 51.5341 28.5654C50.2944 28.5654 49.2337 28.3174 48.3521 27.8215C47.4843 27.3256 46.9333 26.7816 46.6992 26.1892C46.4788 25.5832 46.3686 24.6258 46.3686 23.3172V12.9242H44.0131V11.6432H52.0093V22.656C52.0093 24.3365 52.0782 25.4454 52.2159 25.9826C52.3537 26.5198 52.7462 26.7884 53.3937 26.7884C54.0686 26.7884 54.8262 26.4923 55.6665 25.9C56.5067 25.3077 57.0577 24.6327 57.3194 23.8751C57.5812 23.1175 57.712 22.0568 57.712 20.6931V12.9242H54.964V11.6432H63.3527Z" fill="url(#paint2_linear_6_22099)"/>
<path d="M74.4276 11.3952V15.9615H74.5103C74.8408 14.3361 75.3849 13.1309 76.1425 12.3457C76.9002 11.5468 77.7404 11.1473 78.6633 11.1473C79.5587 11.1473 80.2887 11.471 80.8535 12.1184C81.4182 12.7521 81.7006 13.5372 81.7006 14.4739C81.7006 15.2728 81.4871 15.9202 81.0601 16.4161C80.6331 16.8982 80.1165 17.1393 79.5105 17.1393C78.9044 17.1393 78.3809 16.912 77.9401 16.4574C77.5131 16.0029 77.2996 15.5001 77.2996 14.9491C77.2996 14.2604 77.4167 13.7783 77.6509 13.5028C77.8988 13.2273 78.0228 13.0482 78.0228 12.9656C78.0228 12.814 77.9126 12.7383 77.6922 12.7383C77.0035 12.7383 76.3423 13.4132 75.7086 14.7632C75.0888 16.1131 74.7789 18.3032 74.7789 21.3337V27.0157H77.8575V28.2761H66.9893V27.0157H69.1381V12.9242H66.9893V11.6432H69.7373C71.1974 11.6432 72.2719 11.6019 72.9606 11.5192L73.7044 11.3952H74.4276Z" fill="url(#paint3_linear_6_22099)"/>
<path d="M92.0936 11.1473V14.6598H92.1763C93.6364 12.3182 95.6819 11.1473 98.3129 11.1473C99.4837 11.1473 100.51 11.3952 101.392 11.8911C102.273 12.387 102.831 12.8967 103.065 13.4201C103.313 13.9298 103.437 14.7081 103.437 15.7549V27.0157H105.793V28.2761H95.3995V27.0157H97.7963V15.445C97.7963 14.3981 97.6517 13.7163 97.3624 13.3995C97.0869 13.0826 96.6944 12.9242 96.1847 12.9242C95.496 12.9242 94.6419 13.3581 93.6226 14.2259C92.6033 15.0937 92.0936 16.6158 92.0936 18.7922V27.0157H94.5111V28.2761H84.0561V27.0157H86.4529V12.9242H84.0974V11.6432H85.6058C86.9695 11.6432 88.3194 11.5605 89.6555 11.3952L91.4944 11.1473H92.0936Z" fill="url(#paint4_linear_6_22099)"/>
<path d="M117.983 18.7922V15.0731C117.983 14.0675 117.859 13.3581 117.611 12.9449C117.363 12.5317 116.73 12.325 115.71 12.325C114.898 12.325 114.264 12.449 113.809 12.697C113.355 12.9311 113.128 13.1722 113.128 13.4201C113.128 13.5854 113.286 13.8334 113.603 14.164C113.933 14.4945 114.099 14.9078 114.099 15.4037C114.099 16.12 113.83 16.7398 113.293 17.2633C112.756 17.7729 112.081 18.0278 111.268 18.0278C110.524 18.0278 109.884 17.7867 109.346 17.3046C108.809 16.8087 108.541 16.2095 108.541 15.507C108.541 14.2948 109.257 13.2686 110.689 12.4283C112.136 11.5743 114.133 11.1473 116.681 11.1473C118.651 11.1473 120.297 11.3952 121.62 11.8911C122.956 12.387 123.624 13.5028 123.624 15.2384V23.9577C123.624 25.4592 124.044 26.2099 124.884 26.2099C125.118 26.2099 125.442 26.079 125.855 25.8173L126.413 26.7471C125.242 28.1108 123.886 28.7927 122.343 28.7927C120.731 28.7927 119.381 27.9593 118.293 26.2925C116.489 27.9593 114.484 28.7927 112.28 28.7927C110.793 28.7927 109.622 28.407 108.768 27.6356C107.914 26.8504 107.487 25.8793 107.487 24.7222C107.487 21.0444 110.986 19.0677 117.983 18.7922ZM117.983 22.5734V19.8873C116.124 19.9562 114.829 20.2524 114.099 20.7758C113.369 21.2855 113.004 22.1464 113.004 23.3585C113.004 24.2952 113.231 25.0322 113.685 25.5694C114.14 26.1066 114.725 26.3752 115.442 26.3752C116.254 26.3752 116.881 26.1066 117.322 25.5694C117.763 25.0322 117.983 24.0335 117.983 22.5734Z" fill="url(#paint5_linear_6_22099)"/>
<path d="M135.566 11.1473V14.7012H135.649C136.972 12.3319 139.086 11.1473 141.992 11.1473C145.037 11.1473 146.731 12.4008 147.075 14.9078C148.59 12.4008 150.608 11.1473 153.129 11.1473C154.782 11.1473 156.008 11.3815 156.807 11.8498C157.62 12.3044 158.129 12.8829 158.336 13.5854C158.556 14.2742 158.667 15.1626 158.667 16.2508V27.0157H161.022V28.2761H150.629V27.0157H153.026V15.7963C153.026 14.4601 152.888 13.6405 152.613 13.3375C152.337 13.0344 151.958 12.8829 151.476 12.8829C150.65 12.8829 149.823 13.2479 148.997 13.978C148.17 14.7081 147.647 15.507 147.426 16.3748C147.22 17.2288 147.117 18.4203 147.117 19.9493V27.0157H149.513V28.2761H139.079V27.0157H141.476V15.9202C141.476 14.5979 141.331 13.7714 141.042 13.4408C140.753 13.0964 140.346 12.9242 139.823 12.9242C138.859 12.9242 137.908 13.3581 136.971 14.2259C136.035 15.0937 135.566 16.7467 135.566 19.1848V27.0157H137.963V28.2761H127.57V27.0157H129.926V12.9242H127.57V11.6432H130.484C131.517 11.6432 132.509 11.5605 133.459 11.3952L134.761 11.1473H135.566Z" fill="url(#paint6_linear_6_22099)"/>
<path d="M179.039 18.9989H168.874V21.6849C168.874 23.7924 169.06 25.2526 169.432 26.0653C169.817 26.8642 170.692 27.2637 172.056 27.2637C173.254 27.2637 174.37 26.878 175.403 26.1066C176.45 25.3352 177.249 24.1368 177.8 22.5114H179.039C178.53 24.6052 177.586 26.1755 176.209 27.2223C174.831 28.2692 173.178 28.7927 171.25 28.7927C168.619 28.7927 166.511 27.8904 164.927 26.0859C163.357 24.2814 162.572 22.2015 162.572 19.846C162.572 17.587 163.371 15.5759 164.969 13.8127C166.566 12.0358 168.564 11.1473 170.961 11.1473C173.027 11.1473 174.824 11.7947 176.353 13.0895C177.882 14.3844 178.778 16.3541 179.039 18.9989ZM168.874 17.6558H173.316V15.9202C173.316 14.4188 173.109 13.4477 172.696 13.0069C172.297 12.5523 171.746 12.325 171.043 12.325C170.382 12.325 169.852 12.5248 169.452 12.9242C169.067 13.3237 168.874 14.3361 168.874 15.9615V17.6558Z" fill="url(#paint7_linear_6_22099)"/>
<path d="M188.255 11.1473V14.6598H188.337C189.797 12.3182 191.843 11.1473 194.474 11.1473C195.645 11.1473 196.671 11.3952 197.553 11.8911C198.434 12.387 198.992 12.8967 199.226 13.4201C199.474 13.9298 199.598 14.7081 199.598 15.7549V27.0157H201.954V28.2761H191.561V27.0157H193.957V15.445C193.957 14.3981 193.813 13.7163 193.523 13.3995C193.248 13.0826 192.855 12.9242 192.346 12.9242C191.657 12.9242 190.803 13.3581 189.784 14.2259C188.764 15.0937 188.255 16.6158 188.255 18.7922V27.0157H190.672V28.2761H180.217V27.0157H182.614V12.9242H180.258V11.6432H181.767C183.13 11.6432 184.48 11.5605 185.816 11.3952L187.655 11.1473H188.255Z" fill="url(#paint8_linear_6_22099)"/>
<path d="M210.983 6.47769V11.6432H215.157V12.9242H210.983V24.2057C210.983 25.7071 211.444 26.4578 212.367 26.4578C213.207 26.4578 213.841 25.7071 214.268 24.2057H215.549C215.301 25.776 214.75 26.8986 213.896 27.5736C213.042 28.2348 211.672 28.5654 209.784 28.5654C208.435 28.5654 207.436 28.3519 206.788 27.9248C206.155 27.4978 205.762 26.9951 205.611 26.4165C205.459 25.838 205.383 25.101 205.383 24.2057V12.9242H203.069V11.6432H205.383V7.44881L210.983 6.47769Z" fill="url(#paint9_linear_6_22099)"/>
<path d="M229.765 11.1473V16.2921H228.504C227.733 13.7025 226.066 12.4077 223.504 12.4077C222.54 12.4077 221.706 12.6419 221.004 13.1102C220.301 13.5648 219.95 14.1226 219.95 14.7838C219.95 15.3486 220.219 15.7825 220.756 16.0855C221.307 16.3886 222.698 16.6503 224.93 16.8707C227.161 17.0911 228.738 17.6834 229.661 18.6476C230.584 19.6118 231.046 20.8447 231.046 22.3461C231.046 24.2332 230.46 25.7829 229.289 26.9951C228.132 28.1935 226.562 28.7927 224.578 28.7927C222.622 28.7927 221.011 28.2141 219.744 27.057L218.442 28.1108H217.491V22.0568H218.731C219.626 25.6383 221.589 27.429 224.62 27.429C225.708 27.429 226.645 27.1741 227.43 26.6645C228.229 26.1548 228.628 25.5074 228.628 24.7222C228.628 24.1713 228.415 23.7236 227.988 23.3792C227.574 23.0348 226.576 22.7731 224.992 22.5941C223.421 22.415 222.127 22.1739 221.107 21.8709C220.088 21.5541 219.255 20.9893 218.607 20.1766C217.96 19.3501 217.636 18.255 217.636 16.8913C217.636 15.321 218.187 13.9711 219.289 12.8416C220.391 11.7121 221.913 11.1473 223.855 11.1473C225.233 11.1473 226.555 11.5399 227.822 12.325L228.794 11.1473H229.765Z" fill="url(#paint10_linear_6_22099)"/>
<defs>
<linearGradient id="paint0_linear_6_22099" x1="116" y1="32.3563" x2="116" y2="60.7305" gradientUnits="userSpaceOnUse">
<stop stop-color="white"/>
<stop offset="1" stop-color="#808285"/>
</linearGradient>
<linearGradient id="paint1_linear_6_22099" x1="116" y1="32.3563" x2="116" y2="60.7305" gradientUnits="userSpaceOnUse">
<stop stop-color="white"/>
<stop offset="1" stop-color="#808285"/>
</linearGradient>
<linearGradient id="paint2_linear_6_22099" x1="116" y1="32.3563" x2="116" y2="60.7305" gradientUnits="userSpaceOnUse">
<stop stop-color="white"/>
<stop offset="1" stop-color="#808285"/>
</linearGradient>
<linearGradient id="paint3_linear_6_22099" x1="116" y1="32.3563" x2="116" y2="60.7305" gradientUnits="userSpaceOnUse">
<stop stop-color="white"/>
<stop offset="1" stop-color="#808285"/>
</linearGradient>
<linearGradient id="paint4_linear_6_22099" x1="116" y1="32.3563" x2="116" y2="60.7305" gradientUnits="userSpaceOnUse">
<stop stop-color="white"/>
<stop offset="1" stop-color="#808285"/>
</linearGradient>
<linearGradient id="paint5_linear_6_22099" x1="116" y1="32.3563" x2="116" y2="60.7305" gradientUnits="userSpaceOnUse">
<stop stop-color="white"/>
<stop offset="1" stop-color="#808285"/>
</linearGradient>
<linearGradient id="paint6_linear_6_22099" x1="116" y1="32.3563" x2="116" y2="60.7305" gradientUnits="userSpaceOnUse">
<stop stop-color="white"/>
<stop offset="1" stop-color="#808285"/>
</linearGradient>
<linearGradient id="paint7_linear_6_22099" x1="116" y1="32.3563" x2="116" y2="60.7305" gradientUnits="userSpaceOnUse">
<stop stop-color="white"/>
<stop offset="1" stop-color="#808285"/>
</linearGradient>
<linearGradient id="paint8_linear_6_22099" x1="116" y1="32.3563" x2="116" y2="60.7305" gradientUnits="userSpaceOnUse">
<stop stop-color="white"/>
<stop offset="1" stop-color="#808285"/>
</linearGradient>
<linearGradient id="paint9_linear_6_22099" x1="116" y1="32.3563" x2="116" y2="60.7305" gradientUnits="userSpaceOnUse">
<stop stop-color="white"/>
<stop offset="1" stop-color="#808285"/>
</linearGradient>
<linearGradient id="paint10_linear_6_22099" x1="116" y1="32.3563" x2="116" y2="60.7305" gradientUnits="userSpaceOnUse">
<stop stop-color="white"/>
<stop offset="1" stop-color="#808285"/>
</linearGradient>
</defs>
</svg>
