<svg width="40" height="40" viewBox="0 0 40 40" fill="none" xmlns="http://www.w3.org/2000/svg">
<path d="M10.5219 1.78919C11.2193 1.36299 12.2755 0.958316 13.6909 0.575154C15.106 0.191716 16.5315 0 17.9673 0C20.0182 0 21.8334 0.308679 23.4127 0.926593C24.992 1.54423 26.0074 2.51331 26.4585 3.83382C27.1969 6.04893 27.9968 8.62625 28.8583 11.5655C29.7199 14.5047 30.5811 17.5399 31.4427 20.6709C32.3042 23.8018 33.1451 26.8903 33.9653 29.936C34.7858 32.982 36.4472 36.05 39.9998 36.9482C40.04 36.9584 34.8883 39.0949 33.9039 39.4568C32.9195 39.819 31.7503 40 30.3966 40C29.4122 40 28.5814 39.9148 27.9047 39.7446C27.2277 39.5741 26.674 39.3184 26.2433 38.9777C25.8125 38.637 25.4638 38.1896 25.1972 37.6359C24.9306 37.082 24.6947 36.4431 24.4895 35.719L23.382 31.31H12.2447C11.9167 32.5878 11.5884 33.9083 11.2604 35.2716C10.932 36.6348 10.604 37.9554 10.2757 39.2334C9.70143 39.4464 9.09645 39.6273 8.46048 39.7763C7.8248 39.9255 7.05566 40 6.15308 40C4.06092 40 2.5126 39.6273 1.50756 38.882C0.502521 38.1363 0 37.1032 0 35.7827C0 35.1863 0.0820795 34.5899 0.245957 33.9935C0.410113 33.3971 0.594648 32.6943 0.799844 31.8849C1.08712 30.7349 1.4869 29.3079 1.99975 27.6039C2.5126 25.9 3.07654 24.0575 3.69185 22.0766C4.30716 20.0957 4.9635 18.0618 5.66089 15.9745C6.35827 13.8871 7.01462 11.9169 7.62993 10.064C8.24524 8.2108 8.80918 6.5601 9.32203 5.11186C9.83488 3.66335 10.2347 2.55579 10.5219 1.78919ZM17.9056 10.032C17.3314 11.8212 16.6853 13.8126 15.9673 16.0065C15.2495 18.2003 14.6035 20.4259 14.0292 22.6838H21.6592C21.0849 20.3834 20.5003 18.1363 19.9054 15.9425C19.3107 13.7486 18.7672 11.7784 18.275 10.032H17.9056Z" fill="url(#paint0_linear_4_39)"/>
<defs>
<linearGradient id="paint0_linear_4_39" x1="20" y1="0" x2="20" y2="40" gradientUnits="userSpaceOnUse">
<stop stop-color="white"/>
<stop offset="1" stop-color="#C2C2C2" stop-opacity="0.74"/>
</linearGradient>
</defs>
</svg>
