<svg width="20" height="11" viewBox="0 0 20 11" fill="none" xmlns="http://www.w3.org/2000/svg">
<path d="M19.5598 0.420151C19.2778 0.150816 18.8954 -0.00048833 18.4967 -0.000488347C18.098 -0.000488364 17.7157 0.150816 17.4337 0.420151L9.99092 7.53169L2.54815 0.42015C2.26457 0.158448 1.88476 0.0136388 1.49053 0.0169121C1.09629 0.0201854 0.71917 0.171279 0.440392 0.43765C0.161614 0.704021 0.00348487 1.06436 5.9044e-05 1.44105C-0.00336678 1.81774 0.148187 2.18065 0.422078 2.45161L8.92789 10.5789C9.20985 10.8482 9.59222 10.9995 9.99092 10.9995C10.3896 10.9995 10.772 10.8482 11.054 10.5789L19.5598 2.45161C19.8416 2.18219 20 1.81683 20 1.43588C20 1.05492 19.8416 0.689567 19.5598 0.420151V0.420151Z" fill="#903D80"/>
</svg>
