<svg width="20" height="11" viewBox="0 0 20 11" fill="none" xmlns="http://www.w3.org/2000/svg">
<path d="M19.5598 0.420517C19.2778 0.151182 18.8954 -0.000122119 18.4967 -0.000122136C18.098 -0.000122153 17.7157 0.151182 17.4337 0.420517L9.99092 7.53205L2.54815 0.420516C2.26457 0.158814 1.88476 0.014005 1.49053 0.0172783C1.09629 0.0205516 0.71917 0.171646 0.440392 0.438017C0.161614 0.704388 0.00348487 1.06472 5.9044e-05 1.44141C-0.00336678 1.81811 0.148187 2.18101 0.422078 2.45197L8.92789 10.5792C9.20985 10.8486 9.59222 10.9999 9.99092 10.9999C10.3896 10.9999 10.772 10.8486 11.054 10.5792L19.5598 2.45197C19.8416 2.18256 20 1.8172 20 1.43625C20 1.05529 19.8416 0.689933 19.5598 0.420517V0.420517Z" fill="#903D80"/>
</svg>
