<svg width="20" height="11" viewBox="0 0 20 11" fill="none" xmlns="http://www.w3.org/2000/svg">
<path d="M0.440231 10.5796C0.722196 10.8489 1.10457 11.0002 1.50327 11.0002C1.90197 11.0002 2.28434 10.8489 2.56631 10.5796L10.0091 3.46807L17.4518 10.5796C17.7354 10.8413 18.1152 10.9861 18.5095 10.9828C18.9037 10.9796 19.2808 10.8285 19.5596 10.5621C19.8384 10.2957 19.9965 9.9354 19.9999 9.55871C20.0034 9.18202 19.8518 8.81911 19.5779 8.54815L11.0721 0.420883C10.7901 0.151548 10.4078 0.000243578 10.0091 0.000243573C9.61038 0.000243569 9.228 0.151548 8.94604 0.420882L0.440231 8.54815C0.158351 8.81756 2.16713e-08 9.18292 1.71285e-08 9.56388C1.25857e-08 9.94483 0.158351 10.3102 0.440231 10.5796V10.5796Z" fill="#2121B1"/>
</svg>
